<?xml version="1.0" encoding="UTF-8"?>
<svg xmlns="http://www.w3.org/2000/svg" xmlns:xlink="http://www.w3.org/1999/xlink" id="a" width="865.76" height="682.89" viewBox="0 0 865.76 682.89">
  <defs>
    <clipPath id="b">
      <rect x="576.36" y="518.31" width="25.71" height="8.42" rx="3.92" ry="3.92" fill="none"></rect>
    </clipPath>
    <clipPath id="ab">
      <rect x="448.07" y="560.79" width="12.69" height="4.95" rx="2.31" ry="2.31" fill="none"></rect>
    </clipPath>
  </defs>
  <path d="M557.7,588.52h-45.13s5.46-26.83,5.46-52.03c0-6.27-.2-12.44-.51-18.18-.91-17.33-2.77-30.72-2.77-30.72h49.53s-9.83,10.74-11.65,38.52c-1.82,27.78,5.07,62.4,5.07,62.4h0Z" fill="#002346"></path>
  <g opacity=".43">
    <polygon points="526.41 544.65 531.56 588.53 526.41 588.53 526.41 544.65" fill="#381f3d"></polygon>
  </g>
  <g opacity=".43">
    <path d="M557.7,588.52h-19.34c-.2-15.18-1.13-60.98-5.4-64.99-2.47-2.32-9.16-4.05-15.43-5.21-.91-17.33-2.77-30.72-2.77-30.72h49.53s-9.83,10.74-11.65,38.52c-1.82,27.78,5.07,62.4,5.07,62.4h0Z" fill="#381f3d"></path>
  </g>
  <path d="M694.64,481.06c-15.23,8.49-34.44-1.47-34.44-1.47,0,0-1.13,6.27-7.98,16.97s-29.73,.74-29.73,.74c0,0-3.62,9.59-19.21,17.39-15.59,7.8-38.08-12.6-38.08-12.6-.44,1.06-.99,2.07-1.64,3.01-3.81,5.66-10.07,9.2-16.88,9.55-14.14,1.13-32.64-16.76-32.64-16.76,0,0-1.46,3.84-16.32,7.49s-32.27-12.88-32.27-12.88c-5.47,4.62-12.42,7.11-19.57,7.01-11.6-.36-19.38-13.28-19.38-13.28,0,0-19.42,8.86-31.38,5.54-11.97-3.32-10.75-13.3-10.75-13.3,0,0-13.17,5.55-27.79-3.3h0c-14.63-8.86-8.75-25.72,21.51-53.52,13-11.94,24.13-30.39,32.64-47.53,2.25-4.59,4.36-9.09,6.22-13.35,7.41-16.88,11.58-29.92,11.58-29.92,0,0,200.91-28.65,213.14,8.72,5.85,17.87,17.48,42.77,28.66,64.47,12.19,23.71,23.84,43.68,26.87,46.77,2.07,2.18,3.72,4.72,4.89,7.49,3.05,7.25,3.24,16.82-7.43,22.77h-.02Z" fill="#7cd295"></path>
  <path d="M595.28,517.06c-12.92,0-26.83-11.39-29.88-14.02-.4,.82-.86,1.62-1.37,2.37-3.91,5.79-10.3,9.41-17.27,9.79-13.1,1.01-29.47-13.51-32.57-16.43-1.07,1.33-4.64,4.3-16.29,7.15-13.96,3.38-29.73-10.21-32.42-12.66-5.51,4.52-12.45,6.94-19.59,6.82-10.72-.34-18.09-10.84-19.57-13.14-3.06,1.34-20.17,8.48-31.31,5.37-10.19-2.83-11.17-10.45-11.19-13.03-9.26,2.8-19.28,1.48-27.5-3.64l-.09-.06c-4.7-2.87-7.33-6.62-7.77-11.13-1-10.13,8.57-24.21,29.27-43.23,11.04-10.13,21.96-26.07,32.47-47.37,2.12-4.27,4.21-8.76,6.21-13.33,7.31-16.63,11.51-29.74,11.56-29.86l.11-.34h.35c8.22-1.13,201.48-28.3,213.76,9.09,6.85,20.92,20.87,49.33,28.62,64.4,12.48,24.31,23.92,43.74,26.77,46.63,2.11,2.24,3.8,4.85,4.99,7.69,1.98,4.67,5.2,16.29-7.65,23.47h0c-13.73,7.65-30.8,.48-34.33-1.13-.48,1.95-2.25,7.72-7.88,16.47-6.57,10.2-26.36,2.63-29.92,1.13-1.01,2.16-5.56,10.31-19.26,17.17-2.57,1.25-5.4,1.87-8.25,1.82h0Zm-30.31-15.93l.61,.55c.23,.2,22.38,20.05,37.44,12.51,15.06-7.54,18.91-17,18.94-17.09l.19-.54,.54,.24c.23,.09,22.51,9.65,29.03-.53,6.75-10.46,7.88-16.72,7.88-16.77l.14-.75,.68,.35c.19,.1,19.14,9.73,33.91,1.49,12.06-6.75,9-17.65,7.17-22.04-1.14-2.71-2.75-5.2-4.76-7.34-3.31-3.38-15.41-24.41-26.96-46.9-7.77-15.09-21.81-43.56-28.69-64.56-11.72-35.77-202.75-9.7-212.19-8.39-.71,2.16-4.82,14.44-11.5,29.64-2.01,4.59-4.11,9.08-6.22,13.37-10.57,21.39-21.58,37.47-32.72,47.7-20.42,18.76-29.88,32.64-28.92,42.29,.42,4.22,2.81,7.61,7.32,10.33l.09,.06c8.13,5.08,18.11,6.26,27.21,3.22l.89-.37-.11,.96c0,.38-.99,9.55,10.34,12.7,11.62,3.22,30.8-5.43,30.99-5.52l.46-.2,.26,.43c.08,.12,7.76,12.66,18.92,13.01,6.99,.07,13.78-2.36,19.14-6.87l.39-.35,.38,.36c.17,.16,17.36,16.25,31.74,12.73,14.3-3.48,15.99-7.15,16.01-7.15l.33-.73,.59,.54c.19,.18,18.47,17.68,32.2,16.6,6.62-.37,12.7-3.81,16.42-9.3,.62-.91,1.15-1.88,1.59-2.89l.29-.78h-.02Z" fill="#002346"></path>
  <path d="M669.26,352.61c-2.92,6.75-11.38,7.42-20.16,5.98-11.92-1.95-24.44-7.88-24.44-7.88,0,0,2.25,4.66,1.6,8.37-.47,2.58-2.36,4.7-7.4,4.56-5.85-.18-13.17-3.51-19.24-6.97-4.14-2.35-8.12-4.96-11.94-7.8,.19,.33,10.37,17.14-2.88,22.41-1.53,.59-3.12,.99-4.74,1.22-7.59,1.13-13.34,.25-17.58-1.26-7.13-2.52-9.97-6.87-9.97-6.87-4.01,7.03-11.94,10.85-19.93,9.6-14.15-1.85-13.43-13.29-13.43-13.29,0,0-16.67,15.87-30.45,12.92-13.78-2.95-13.42-14.77-13.42-14.77,0,0-11.26,9.97-25.74,5.91-14.49-4.06-8.34-19.19-8.34-19.19,0,0-19.83,3.05-26.47-9.23s8.35-15.87,26.83-38.27c7.51-9.08,14.06-20.55,19.19-30.98,4.53-9.19,8.53-18.64,11.99-28.29l143.95,6.12c1.27,8.05,2.96,16.04,5.04,23.92,3.06,11.53,7.59,24.68,13.75,33.31l.42,.57c13.42,18.16,40.27,34.02,33.35,49.9h.01Z" fill="#7cd295"></path>
  <path d="M535.58,374.77c-1.03,0-2.06-.06-3.08-.2-11.65-1.52-13.56-9.49-13.9-12.62-3.7,3.29-17.83,14.87-30.06,12.25-11.51-2.48-13.51-11.09-13.79-14.2-2.96,2.25-13.08,8.79-25.4,5.34-4.23-1.18-7.17-3.38-8.75-6.62-2.34-4.78-.96-10.31-.27-12.38-4.07,.45-20.13,1.45-26.14-9.65-4.5-8.31,.45-12.81,9.42-20.98,6.26-5.52,12.11-11.5,17.48-17.89,6.44-7.79,12.87-18.18,19.14-30.86,4.51-9.18,8.5-18.6,11.97-28.22l.14-.39h.43l144.43,6.09,.07,.46c1.28,8.03,2.96,15.99,5.03,23.85,3.94,14.8,8.53,25.94,13.66,33.13l.37,.51c4.27,5.76,9.87,11.26,15.3,16.6,11.84,11.65,23.03,22.65,18.17,33.85-2.61,6.01-9.6,8.14-20.77,6.31-9.62-1.58-19.72-5.74-23.27-7.29,.98,2.33,1.35,4.86,1.07,7.37-.44,2.39-2.17,5.17-7.96,5.02-5.01-.16-11.56-2.52-19.51-7.03-4.22-2.41-7.88-4.86-10.02-6.39,1.56,3.23,3.95,9.44,2.25,14.57-1.07,3.05-3.49,5.44-6.55,6.47-1.57,.6-3.2,1.01-4.86,1.24-5.97,1.04-12.09,.6-17.85-1.27-3.75-1.23-7.11-3.44-9.73-6.4-3.69,5.83-10.11,9.37-17.01,9.36v-.03Zm-15.77-15.44l-.09,1.43c0,.45-.5,10.94,12.93,12.7,7.76,1.19,15.45-2.5,19.37-9.3l.44-.86,.53,.81s2.85,4.22,9.68,6.64c5.59,1.82,11.53,2.24,17.32,1.23,1.57-.19,3.12-.57,4.6-1.13,2.75-.93,4.92-3.06,5.91-5.79,2.25-6.63-3.07-15.44-3.3-15.81l-1.51-2.49,2.33,1.74c3.8,2.83,7.77,5.42,11.89,7.77,7.67,4.36,14.23,6.75,18.98,6.89,4.01,.09,6.3-1.26,6.82-4.1,.64-3.49-1.53-7.97-1.55-8.01l-.7-1.44,1.44,.68c.12,.06,12.58,5.88,24.29,7.79,10.6,1.73,17.18-.17,19.55-5.63,4.56-10.49-6.37-21.23-17.93-32.64-5.45-5.36-11.08-10.91-15.35-16.67-.18-.24-.32-.42-.44-.6-5.2-7.27-9.86-18.54-13.82-33.48-3.03-11.39-4.65-21.31-4.99-23.51l-143.07-6.09c-3.45,9.53-7.41,18.86-11.89,27.95-6.29,12.74-12.78,23.16-19.21,31.04-5.41,6.43-11.29,12.45-17.59,18.01-8.82,8.04-13.25,12.08-9.18,19.62,6.38,11.8,25.7,9,25.89,8.94l.98-.15-.37,.92c0,.07-2.77,6.93-.08,12.38,1.43,2.9,4.13,4.94,8.04,6.03,14.04,3.93,25.11-5.68,25.22-5.79l.97-.86v1.29c0,.46-.17,11.38,12.97,14.19,13.25,2.89,29.7-12.58,29.87-12.7l1.06-1.04v.04Z" fill="#002346"></path>
  <path d="M619.05,327.61c-19.56,0-61.69-10.01-94.84-19.45-25.31-7.2-69.01-21.03-72.29-27.16-1.35-2.29-1.63-5.05-.79-7.56,1.49-4.27,6-7,8.08-8.07,.57-.26,1.23,0,1.49,.56h0c.22,.54,0,1.15-.51,1.43-1.81,.92-5.8,3.32-7.01,6.83-.64,1.91-.4,4.01,.64,5.74,1.8,3.38,27.27,13.65,70.91,26.09,33.01,9.4,74.92,19.37,94.25,19.37h.59c23.87-.26,28.61-4.22,29.55-5.91,.19-.32,.28-.68,.26-1.05-.02-.4,.16-.78,.5-1h0c.54-.31,1.23-.12,1.54,.42,.08,.13,.12,.28,.14,.44,.05,.76-.11,1.51-.47,2.18-2.36,4.5-12.96,6.94-31.52,7.15h-.52Z" fill="#002346"></path>
  <path d="M603.55,448.72c-11.76,0-24.41-.51-37.64-1.54-44.57-3.47-86.21-12.22-108.68-22.84-23.16-10.95-37.88-23.64-43.74-37.75-3.47-8.33-2.69-14.63-2.13-17.2,.15-.6,.76-.97,1.36-.82,.03,0,.05,.01,.08,.02l.95,.35-1.02-.38h.08c.52,.2,.82,.75,.7,1.29-.48,2.25-1.24,8.19,2.07,16.03,3.93,9.29,14.5,23.13,42.58,36.41,45.36,21.44,168.84,33.59,211.48,15.31,6.45-2.77,10.6-6.11,12.38-9.94,.24-.5,.82-.75,1.35-.59h0c.58,.22,.88,.87,.66,1.45,0,.02-.01,.03-.02,.05-1.97,4.36-6.51,8.08-13.51,11.08-13.81,5.94-37.66,9.07-66.95,9.07h0Z" fill="#002346"></path>
  <ellipse cx="598.35" cy="302.62" rx="6.27" ry="6.38" fill="#002346"></ellipse>
  <ellipse cx="520.15" cy="328.71" rx="4.21" ry="4.29" fill="#002346"></ellipse>
  <ellipse cx="463.2" cy="398.92" rx="7.67" ry="7.8" fill="#002346"></ellipse>
  <ellipse cx="527.99" cy="390.36" rx="3.64" ry="3.7" fill="#fff" stroke="#002346" stroke-miterlimit="10" stroke-width="1.13"></ellipse>
  <ellipse cx="574.06" cy="471.12" rx="6" ry="6.11" fill="#002346"></ellipse>
  <ellipse cx="468.4" cy="462.57" rx="10.7" ry="10.9" fill="#fff" stroke="#002346" stroke-miterlimit="10" stroke-width="1.13"></ellipse>
  <ellipse cx="658.15" cy="465.54" rx="6.53" ry="6.64" fill="#fff" stroke="#002346" stroke-miterlimit="10" stroke-width="1.13"></ellipse>
  <path d="M623.58,268.53c-.6,.18-1.22,.3-1.85,.37h-.39c-10.54,.88-27.5-10.45-27.5-10.45,0,0,6.53,14.76-2.17,18.08-8.7,3.32-24.29-11.26-24.29-11.26,0,0,3.62,14.63-10.88,17.18-2.52,.48-5.13,.34-7.59-.42-9.09-2.85-13.08-13.51-13.08-13.51,0,0-11.97,11.37-17.76,9.79-5.8-1.58-8.68-13.02-8.68-13.02,0,0-13.44,8.32-22.51,3.23s-3.44-12.38-3.24-12.62c-.18,.1-8.87,5.47-22.14,0-13.27-5.47-6.53-11.81,10.87-31.4,6.92-7.8,12.93-17.86,17.66-27.17,4.33-8.54,8.12-17.35,11.35-26.37l94.27,4.24s1.61,6.31,4.39,15.17c3.24,10.57,7.14,20.92,11.69,30.99,3.17,6.75,6.67,13.01,10.39,17.5,14.87,18.01,11.6,26.63,1.46,29.66h0Z" fill="#7cd295"></path>
  <path d="M553.49,283.31c-1.61,0-3.2-.23-4.74-.71-7.88-2.49-12.01-10.56-13.12-13.1-2.56,2.31-12.38,10.81-17.71,9.36s-8.13-10.13-8.88-12.7c-2.84,1.61-14.22,7.46-22.43,2.86-2.95-1.67-4.7-3.76-5.21-6.24-.33-1.89-.05-3.84,.82-5.56-3.24,1.34-10.81,3.38-20.94-.81-4.5-1.83-6.7-3.75-7.26-6.2-1.13-4.77,4.5-11.04,14.63-22.42l3.28-3.67c5.94-6.7,11.85-15.76,17.57-27.01,4.31-8.53,8.1-17.31,11.32-26.31l.14-.41h.43l94.71,4.24,.11,.41c0,.07,1.63,6.4,4.38,15.14,3.23,10.54,7.13,20.86,11.66,30.91,2.72,6.19,6.18,12.03,10.31,17.39,8.19,9.94,11.5,17.77,9.83,23.3-1.05,3.38-3.95,5.86-8.64,7.27h0c-.63,.18-1.28,.31-1.94,.38h-.41c-8.93,.74-22.01-6.87-26.4-9.6,1.04,2.88,2.78,8.95,.99,13.24-.74,1.86-2.24,3.32-4.12,4-7.59,2.9-19.78-6.91-23.64-10.3,.54,3.63-.17,7.33-2.03,10.49-1.97,3.03-5.19,4.96-9.58,5.75-1.04,.19-2.09,.29-3.14,.29h.01Zm-17.42-15.75l.29,.79c0,.11,4.01,10.47,12.72,13.2,2.38,.72,4.89,.86,7.33,.39,4.06-.72,7.02-2.49,8.81-5.25,3.14-4.83,1.63-11.18,1.61-11.26l-.45-1.83,1.38,1.29c.15,.15,15.43,14.31,23.71,11.15,1.59-.58,2.86-1.81,3.48-3.38,2.19-5.25-1.58-13.89-1.61-13.98l-.79-1.77,1.61,1.07c.17,.11,16.88,11.26,27.14,10.36h.3c.61-.07,1.22-.19,1.81-.36h0c4.31-1.28,6.97-3.48,7.88-6.53,1.56-5.13-1.67-12.62-9.61-22.24-4.19-5.43-7.7-11.35-10.46-17.63-4.56-10.09-8.48-20.47-11.73-31.06-2.35-7.51-3.88-13.26-4.29-14.79l-93.42-4.22c-3.22,8.91-6.98,17.61-11.26,26.06-5.75,11.33-11.73,20.52-17.74,27.28l-3.28,3.68c-9.58,10.73-15.36,17.21-14.4,21.39,.46,2.03,2.56,3.75,6.6,5.41,12.85,5.3,21.27,.26,21.63,0l2.61-1.61-1.87,2.43c-1.33,1.82-1.9,4.08-1.6,6.31,.43,2.14,2,3.98,4.66,5.47,8.67,4.87,21.8-3.13,21.93-3.21l.65-.41,.19,.74c0,.11,2.87,11.14,8.28,12.62,5.41,1.47,17.12-9.55,17.23-9.66l.63-.5,.03,.05Z" fill="#002346"></path>
  <path d="M619.61,239.49c-9.21,0-35.68-4.14-59.33-8.68-13.6-2.61-58.73-11.67-68.42-18.53-5.63-3.97-8.24-7.79-7.82-11.32,.53-4.5,5.7-6.56,5.91-6.64l.8,2.07s-4.18,1.7-4.5,4.84c-.3,2.62,2.08,5.81,6.9,9.23,6.21,4.4,32.17,11.37,67.74,18.2,32.96,6.31,58.53,9.53,60.92,8.45-.2,.12-.34,.33-.37,.56l2.15,.41c-.09,.52-.45,.96-.96,1.13-.98,.26-1.99,.35-3.01,.28h0Z" fill="#002346"></path>
  <ellipse cx="569" cy="161.01" rx="5.12" ry="5.21" fill="#fff"></ellipse>
  <path d="M610.45,186.45c-2.63,3.22-6.4,3.6-10.13,2.77l-.73-.18-.48-.14c-.64-.18-1.28-.39-1.91-.63l-.47-.19c-.87-.34-1.71-.73-2.51-1.13l-.62-.33-.21-.11c-.64-.34-1.25-.68-1.81-1.01l-.16-.09-.35-.21c-1.34-.81-2.63-1.7-3.86-2.66,.11,.19,6.46,10.58-2.92,11.17s-20.37-11.8-20.37-11.8c0,0-3.38,7.79-8.31,11.13-1.88,1.46-4.36,1.89-6.62,1.13-8.37-3.04-10.56-11.6-10.56-11.6,0,0-6.18,10.94-14.91,7.27-4.93-1.88-7.79-7.04-6.75-12.21-.36,.33-14.49,13.21-27.79,6.63-13.3-6.58,.73-12.97,14.19-32.23s33.44-58.85,33.44-58.85l6.2-13.23,2.16-4.61s20.01,39.99,33.12,59.25c13.1,19.26,39.65,42.96,32.37,51.86h-.01Z" fill="#7cd295"></path>
  <path d="M551.24,195.12c-.83,0-1.65-.15-2.42-.44-4.92-1.91-8.77-5.86-10.54-10.84-1.87,2.71-7.54,9.61-14.96,6.49-4.69-1.75-7.65-6.39-7.28-11.38-3.67,2.97-15.76,11.51-27.32,5.77-3.47-1.71-5.26-3.47-5.63-5.53-.68-3.53,2.76-7.36,7.94-13.16,4.2-4.54,8.11-9.34,11.71-14.36,13.28-19,33.24-58.36,33.44-58.76l8.85-18.88,.52,1.04c.2,.41,20.15,40.18,33.08,59.2,4.07,5.99,9.49,12.46,14.73,18.72,11.78,14.06,22.92,27.34,17.62,33.77h0c-2.45,2.99-6.06,3.98-10.72,2.96l-.75-.19-.5-.14c-.61-.17-1.27-.39-1.95-.65l-.48-.18c-.81-.33-1.65-.7-2.56-1.13l-.84-.44c-.65-.35-1.27-.7-1.85-1.04l-.29-.18-.21-.12c-.75-.46-1.43-.91-2-1.31,.89,2.04,1.8,5.08,.65,7.27-.82,1.58-2.54,2.45-5.1,2.62-8.5,.54-17.84-8.78-20.26-11.36-1,2.09-4,7.8-8.15,10.6-1.38,1.01-3.02,1.57-4.73,1.62v.03Zm-12.58-14.07l.35,1.36c0,.08,2.25,8.32,10.2,11.26,2.08,.71,4.38,.32,6.11-1.04,4.76-3.22,8.07-10.82,8.1-10.9l.35-.82,.59,.68c.11,.11,10.83,12.18,19.92,11.6,2.14-.14,3.53-.81,4.18-2.03,1.51-2.88-1.58-8.06-1.71-8.27l-1.6-2.65,2.43,1.9c1.22,.94,2.5,1.82,3.82,2.62l.34,.2-.14,.57,.28-.48c.56,.33,1.13,.68,1.79,1l.83,.43c.87,.44,1.68,.8,2.45,1.13l.47,.18c.65,.25,1.28,.45,1.87,.62l.46,.14,.7,.17c4.23,.93,7.45,.07,9.61-2.57h0c4.72-5.76-6.12-18.68-17.59-32.38-5.27-6.28-10.7-12.78-14.81-18.81-11.8-17.35-29.39-51.87-32.64-58.28l-7.88,16.79c-.2,.42-20.19,39.85-33.52,58.91-3.64,5.03-7.59,9.83-11.82,14.37-4.78,5.35-8.24,9.21-7.67,12.19,.32,1.69,1.92,3.19,5.04,4.74,12.89,6.37,26.59-6,27.16-6.53l1.28-1.18-.35,1.7c-1.03,4.93,1.72,9.87,6.45,11.59,8.16,3.46,14.15-6.91,14.2-7.02l.73-1.2h.02Z" fill="#002346"></path>
  <path d="M589.43,149.26c-.14,.59-.71,.96-1.31,.84-7.54-1.7-50.45-11.8-60.7-23.29-4.07-4.5-5.74-8.71-4.95-12.38,.59-2.38,2.11-4.43,4.22-5.68,.54-.3,1.23-.11,1.53,.43,.02,.03,.03,.06,.04,.09l.38,.92-.43-1.02v.1c.2,.5,.03,1.06-.42,1.36-1.61,.95-2.78,2.5-3.25,4.31-.62,2.87,.88,6.35,4.43,10.34,9.7,10.85,52.32,20.95,59.58,22.6,.58,.15,.94,.73,.82,1.32l.04,.06h.02Z" fill="#002346"></path>
  <ellipse cx="465.78" cy="327.69" rx="10.24" ry="10.43" fill="#fff" stroke="#002346" stroke-miterlimit="10" stroke-width="1.13"></ellipse>
  <ellipse cx="633.78" cy="415.34" rx="6.76" ry="6.89" fill="#fff" stroke="#002346" stroke-miterlimit="10" stroke-width="1.13"></ellipse>
  <ellipse cx="520.99" cy="204.55" rx="5.05" ry="5.14" fill="#fff" stroke="#002346" stroke-miterlimit="10" stroke-width="1.13"></ellipse>
  <ellipse cx="584.45" cy="213.32" rx="5.2" ry="5.29" fill="#fff" stroke="#002346" stroke-miterlimit="10" stroke-width="1.13"></ellipse>
  <ellipse cx="524.36" cy="149.36" rx="6.33" ry="6.44" fill="#fff" stroke="#002346" stroke-miterlimit="10" stroke-width="1.13"></ellipse>
  <ellipse cx="575.71" cy="409.49" rx="11.46" ry="11.67" fill="#002346"></ellipse>
  <ellipse cx="430.46" cy="446.61" rx="9.34" ry="9.51" fill="#002346"></ellipse>
  <path d="M492.08,233.51c-.04,2.37-2,4.25-4.37,4.21s-4.25-2-4.21-4.37c.04-2.34,1.95-4.21,4.29-4.21,2.39,.02,4.31,1.98,4.29,4.37h0Z" fill="#002346"></path>
  <ellipse cx="526.71" cy="248.64" rx="8.68" ry="8.84" fill="#002346"></ellipse>
  <path d="M557.79,123.71c-.05,2.44-2.07,4.37-4.5,4.32-2.44-.05-4.37-2.07-4.32-4.5,.05-2.4,2.01-4.32,4.41-4.32,2.45,.05,4.41,2.05,4.41,4.5h0Z" fill="#002346"></path>
  <path d="M591.54,185.5c.56,.34,1.13,.68,1.81,1.01-.64-.34-1.25-.62-1.81-1.01Z" fill="#fff"></path>
  <path d="M547.73,50.74l5.76,12.47c.28,.6,.83,1.02,1.49,1.13l12.91,2c1.17,.23,1.93,1.37,1.69,2.54-.08,.41-.28,.78-.57,1.08l-9.34,9.75c-.47,.51-.67,1.2-.56,1.88l2.19,13.75c.25,1.08-.42,2.17-1.5,2.42-.46,.11-.95,.05-1.38-.17l-11.54-6.49c-.58-.33-1.28-.33-1.86,0l-11.54,6.49c-1,.51-2.22,.11-2.72-.89-.21-.42-.27-.9-.17-1.36l2.25-13.75c.11-.68-.1-1.37-.57-1.88l-9.33-9.75c-.83-.86-.81-2.22,.05-3.06,.3-.29,.67-.49,1.08-.57l12.9-2c.65-.11,1.21-.53,1.5-1.13l5.77-12.52c.48-.96,1.64-1.35,2.6-.87,.39,.2,.71,.52,.89,.92h0Z" fill="#f69074"></path>
  <path d="M532.54,98.47c-.5,0-.99-.16-1.4-.45-.86-.6-1.3-1.65-1.13-2.69l2.25-13.75c.08-.51-.08-1.03-.43-1.41l-9.33-9.74c-.72-.75-.95-1.84-.61-2.81,.28-.92,1.07-1.61,2.03-1.76l12.91-2c.47-.09,.87-.41,1.07-.84l5.77-12.52c.55-1.27,2.02-1.84,3.29-1.29,.58,.25,1.04,.71,1.29,1.29l5.77,12.52c.2,.44,.6,.75,1.07,.84l12.91,2c.96,.15,1.74,.83,2.03,1.76,.34,.98,.1,2.06-.61,2.81l-9.34,9.74c-.34,.38-.5,.9-.42,1.41l2.25,13.75c.18,1.04-.26,2.09-1.13,2.69-.76,.55-1.79,.6-2.6,.12l-11.55-6.48c-.4-.24-.9-.24-1.29,0l-11.62,6.44c-.36,.23-.78,.36-1.2,.37h.02Zm13.39-48.4c-.56,0-1.06,.34-1.27,.86l-5.81,12.56c-.35,.78-1.08,1.34-1.92,1.47l-12.91,2.01c-.54,.09-.97,.48-1.13,1-.2,.58-.06,1.23,.36,1.68l9.34,9.74c.59,.63,.86,1.51,.72,2.36l-2.25,13.75c-.11,.61,.14,1.23,.64,1.59,.41,.3,.97,.33,1.41,.07l11.55-6.49c.74-.42,1.65-.42,2.4,0l11.55,6.49c.44,.26,.99,.23,1.41-.07,.51-.36,.76-.98,.64-1.59l-2.25-13.75c-.14-.86,.13-1.73,.72-2.36l9.34-9.74c.43-.45,.56-1.1,.35-1.68-.15-.52-.59-.91-1.13-1l-12.91-2.01c-.85-.14-1.57-.69-1.92-1.47l-5.77-12.52c-.19-.48-.64-.81-1.15-.86v-.05h0Z" fill="#002346"></path>
  <circle cx="449.97" cy="283.33" r="5.67" fill="#002346"></circle>
  <circle cx="406.85" cy="373.72" r="5.67" fill="#002346"></circle>
  <circle cx="471.31" cy="296.5" r="5.67" fill="#002346"></circle>
  <circle cx="426.81" cy="412.29" r="5.67" fill="#002346"></circle>
  <circle cx="412.27" cy="394.12" r="5.67" fill="#f69074"></circle>
  <path d="M412.27,400.36c-3.44,0-6.23-2.8-6.22-6.25,0-3.44,2.8-6.23,6.25-6.22,3.44,0,6.22,2.8,6.22,6.24s-2.8,6.24-6.25,6.24h0Zm0-11.36c-2.82,0-5.11,2.3-5.1,5.12,0,2.82,2.3,5.11,5.12,5.1,2.82,0,5.1-2.29,5.1-5.11s-2.29-5.11-5.11-5.11h-.01Z" fill="#002346"></path>
  <circle cx="499.01" cy="305.59" r="5.67" fill="#f69074"></circle>
  <path d="M499,311.82c-3.45,0-6.25-2.8-6.25-6.25s2.8-6.25,6.25-6.25,6.25,2.8,6.25,6.25h0c0,3.46-2.8,6.25-6.25,6.25Zm0-11.36c-2.83,0-5.12,2.29-5.12,5.12s2.29,5.12,5.12,5.12,5.12-2.29,5.12-5.12h0c0-2.83-2.29-5.12-5.12-5.12Z" fill="#002346"></path>
  <circle cx="479.02" cy="437.26" r="5.67" fill="#002346"></circle>
  <circle cx="449.97" cy="426.8" r="5.67" fill="#f69074"></circle>
  <path d="M449.93,433.06c-3.45,0-6.25-2.79-6.26-6.24,0-3.45,2.79-6.25,6.24-6.26,3.45,0,6.25,2.79,6.26,6.24h0c0,3.45-2.79,6.25-6.24,6.26Zm0-11.36c-2.83,0-5.13,2.28-5.13,5.11s2.28,5.13,5.11,5.13,5.13-2.28,5.13-5.11v-.02c0-2.82-2.29-5.1-5.11-5.11h0Z" fill="#002346"></path>
  <circle cx="532.61" cy="314.66" r="5.67" fill="#002346"></circle>
  <circle cx="604.34" cy="451.79" r="5.67" fill="#002346"></circle>
  <circle cx="663.83" cy="445.88" r="5.67" transform="translate(-120.1 287.98) rotate(-22.5)" fill="#002346"></circle>
  <circle cx="633.86" cy="451.79" r="5.67" fill="#f69074"></circle>
  <path d="M633.86,458.02c-3.44,0-6.23-2.8-6.22-6.25,0-3.44,2.8-6.23,6.25-6.22,3.44,0,6.22,2.8,6.22,6.24s-2.8,6.24-6.25,6.24h0Zm0-11.36c-2.82,0-5.11,2.3-5.1,5.12,0,2.82,2.3,5.11,5.12,5.1,2.82,0,5.1-2.29,5.1-5.11s-2.3-5.11-5.12-5.11h0Z" fill="#002346"></path>
  <circle cx="689.71" cy="427.72" r="5.67" fill="#002346"></circle>
  <circle cx="577.1" cy="451.79" r="5.67" fill="#f69074"></circle>
  <path d="M577.13,458.02c-3.44,0-6.24-2.79-6.24-6.24s2.79-6.24,6.24-6.24,6.24,2.79,6.24,6.24h0c0,3.44-2.79,6.24-6.24,6.24Zm0-11.35c-2.82,0-5.11,2.29-5.11,5.11s2.29,5.11,5.11,5.11,5.11-2.29,5.11-5.11h0c0-2.82-2.29-5.11-5.11-5.11h0Z" fill="#002346"></path>
  <circle cx="512.63" cy="443.16" r="5.67" transform="translate(-6.92 878.18) rotate(-80.78)" fill="#f69074"></circle>
  <path d="M512.63,449.4c-3.44,0-6.24-2.79-6.24-6.24s2.79-6.24,6.24-6.24,6.24,2.79,6.24,6.24-2.79,6.23-6.24,6.24Zm0-11.35c-2.82,0-5.11,2.29-5.11,5.11s2.29,5.11,5.11,5.11,5.11-2.29,5.11-5.11-2.28-5.13-5.11-5.13h0v.02h0Z" fill="#002346"></path>
  <circle cx="564.85" cy="324.65" r="5.67" fill="#f69074"></circle>
  <path d="M564.85,330.89c-3.44,0-6.24-2.79-6.24-6.24s2.79-6.24,6.24-6.24,6.24,2.79,6.24,6.24h0c0,3.44-2.79,6.23-6.24,6.24Zm0-11.35c-2.82,0-5.11,2.29-5.11,5.11s2.29,5.11,5.11,5.11,5.11-2.29,5.11-5.11h0c0-2.82-2.29-5.1-5.11-5.11Z" fill="#002346"></path>
  <circle cx="543.51" cy="449.09" r="5.67" transform="translate(-160 402.53) rotate(-35.78)" fill="#002346"></circle>
  <circle cx="589.83" cy="327.85" r="5.67" transform="translate(171.71 857.53) rotate(-80.78)" fill="#002346"></circle>
  <circle cx="618.85" cy="330.52" r="5.67" transform="translate(155.01 856.9) rotate(-76.72)" fill="#f69074"></circle>
  <path d="M618.87,336.8c-3.45,0-6.25-2.79-6.26-6.24,0-3.45,2.79-6.25,6.24-6.26,3.45,0,6.25,2.79,6.26,6.24h0c0,3.46-2.79,6.25-6.24,6.26Zm0-11.36c-2.83,0-5.13,2.28-5.13,5.11s2.28,5.13,5.11,5.13,5.13-2.28,5.13-5.11v-.02c-.02-2.81-2.3-5.07-5.11-5.08v-.03h0Z" fill="#002346"></path>
  <circle cx="649.96" cy="325.77" r="5.69" fill="#002346"></circle>
  <circle cx="481.74" cy="205.24" r="5.67" fill="#002346"></circle>
  <circle cx="535.33" cy="137.13" r="5.67" fill="#f69074"></circle>
  <path d="M535.33,143.36c-3.45,0-6.25-2.79-6.26-6.24,0-3.45,2.79-6.25,6.24-6.26,3.45,0,6.25,2.79,6.26,6.24v.02c0,3.44-2.79,6.23-6.24,6.24h0Zm0-11.36c-2.83,0-5.13,2.28-5.13,5.11s2.28,5.13,5.11,5.13,5.13-2.28,5.13-5.11h0c0-2.84-2.29-5.13-5.11-5.13h0Z" fill="#002346"></path>
  <circle cx="492.19" cy="215.67" r="5.67" fill="#f69074"></circle>
  <path d="M492.19,221.92c-3.45,0-6.25-2.8-6.25-6.25s2.8-6.25,6.25-6.25,6.25,2.8,6.25,6.25h0c0,3.45-2.8,6.25-6.25,6.25Zm0-11.36c-2.83,0-5.12,2.29-5.12,5.12s2.29,5.12,5.12,5.12,5.12-2.29,5.12-5.12h0c0-2.84-2.3-5.12-5.12-5.12Z" fill="#002346"></path>
  <circle cx="551.22" cy="144.38" r="5.67" transform="translate(-13.29 221.93) rotate(-22.5)" fill="#002346"></circle>
  <circle cx="510.35" cy="223.39" r="5.67" fill="#002346"></circle>
  <circle cx="518.54" cy="124.87" r="5.67" transform="translate(312.2 616.7) rotate(-80.78)" fill="#002346"></circle>
  <circle cx="529.88" cy="227.94" r="5.67" fill="#f69074"></circle>
  <path d="M529.85,234.18c-3.45,0-6.25-2.8-6.25-6.25s2.8-6.25,6.25-6.25,6.25,2.8,6.25,6.25h0c0,3.46-2.8,6.25-6.25,6.25Zm0-11.36c-2.83,0-5.12,2.29-5.12,5.12s2.29,5.12,5.12,5.12,5.12-2.29,5.12-5.12h0c0-2.83-2.29-5.12-5.12-5.12h0Z" fill="#002346"></path>
  <circle cx="593.45" cy="152.11" r="5.67" fill="#002346"></circle>
  <circle cx="573.92" cy="150.29" r="5.67" transform="translate(61.83 449.84) rotate(-45)" fill="#f69074"></circle>
  <path d="M573.92,156.53c-3.45,0-6.25-2.8-6.25-6.25s2.8-6.25,6.25-6.25,6.25,2.8,6.25,6.25h0c0,3.45-2.8,6.25-6.25,6.25Zm0-11.36c-2.83,0-5.12,2.29-5.12,5.12s2.29,5.12,5.12,5.12,5.12-2.29,5.12-5.12h0c0-2.84-2.3-5.12-5.12-5.12Z" fill="#002346"></path>
  <circle cx="553.96" cy="233.85" r="5.67" transform="translate(234.37 743.19) rotate(-80.78)" fill="#002346"></circle>
  <circle cx="577.1" cy="237.92" r="5.67" fill="#f69074"></circle>
  <path d="M577.13,244.16c-3.44,0-6.24-2.79-6.24-6.24s2.79-6.24,6.24-6.24,6.24,2.79,6.24,6.24h0c0,3.44-2.79,6.24-6.24,6.24Zm0-11.35c-2.82,0-5.11,2.29-5.11,5.11s2.29,5.11,5.11,5.11,5.11-2.29,5.11-5.11h0c0-2.82-2.29-5.11-5.11-5.11h0Z" fill="#002346"></path>
  <circle cx="598.44" cy="241.56" r="5.67" fill="#002346"></circle>
  <circle cx="617.51" cy="243.82" r="5.67" fill="#f69074"></circle>
  <path d="M617.51,250.06c-3.45,0-6.25-2.79-6.26-6.24,0-3.45,2.79-6.25,6.24-6.26,3.45,0,6.25,2.79,6.26,6.24h0c0,3.46-2.79,6.25-6.24,6.26Zm0-11.36c-2.83,0-5.13,2.28-5.13,5.11s2.28,5.13,5.11,5.13,5.13-2.28,5.13-5.11v-.02c-.01-2.82-2.29-5.09-5.11-5.1h0Z" fill="#002346"></path>
  <rect x="541.7" y="533.61" width="50.17" height="56.2" fill="#f69074"></rect>
  <path d="M592.43,590.37h-51.33v-57.33h51.33v57.33Zm-50.17-1.13h49.04v-55.08h-49.08l.03,55.08h.01Z" fill="#002346"></path>
  <g clip-path="url(#b)">
    <g>
      <rect x="576.36" y="518.31" width="1.25" height="8.42" fill="#fff"></rect>
      <rect x="577.61" y="518.31" width=".95" height="8.42" fill="#fff"></rect>
      <rect x="578.56" y="518.31" width=".95" height="8.42" fill="#fefefe"></rect>
      <rect x="579.49" y="518.31" width=".95" height="8.42" fill="#fdfdfd"></rect>
      <rect x="580.44" y="518.31" width=".95" height="8.42" fill="#fcfcfc"></rect>
      <rect x="581.38" y="518.31" width=".95" height="8.42" fill="#fcfbfc"></rect>
      <rect x="582.31" y="518.31" width=".95" height="8.42" fill="#fbfafb"></rect>
      <rect x="583.26" y="518.31" width=".95" height="8.42" fill="#faf9fa"></rect>
      <rect x="584.19" y="518.31" width=".95" height="8.42" fill="#f9f8f9"></rect>
      <rect x="585.14" y="518.31" width=".95" height="8.42" fill="#f8f7f8"></rect>
      <rect x="586.07" y="518.31" width=".95" height="8.42" fill="#f7f6f7"></rect>
      <rect x="587.02" y="518.31" width=".95" height="8.42" fill="#f7f5f7"></rect>
      <rect x="587.97" y="518.31" width=".95" height="8.42" fill="#f6f4f6"></rect>
      <rect x="588.9" y="518.31" width=".95" height="8.42" fill="#f5f3f5"></rect>
      <rect x="589.85" y="518.31" width=".95" height="8.42" fill="#f4f1f4"></rect>
      <rect x="590.78" y="518.31" width=".95" height="8.42" fill="#f3f0f3"></rect>
      <rect x="591.72" y="518.31" width=".95" height="8.42" fill="#f2eff2"></rect>
      <rect x="592.66" y="518.31" width=".95" height="8.42" fill="#f2eef2"></rect>
      <rect x="593.6" y="518.31" width=".95" height="8.42" fill="#f1edf1"></rect>
      <rect x="594.55" y="518.31" width=".95" height="8.42" fill="#f0ecf0"></rect>
      <rect x="595.48" y="518.31" width=".95" height="8.42" fill="#efebef"></rect>
      <rect x="596.43" y="518.31" width=".95" height="8.42" fill="#eeeaee"></rect>
      <rect x="597.36" y="518.31" width=".95" height="8.42" fill="#ede9ed"></rect>
      <rect x="598.31" y="518.31" width=".95" height="8.42" fill="#ede8ed"></rect>
      <rect x="599.24" y="518.31" width=".95" height="8.42" fill="#ece7ec"></rect>
      <rect x="600.19" y="518.31" width=".95" height="8.42" fill="#ebe6eb"></rect>
      <rect x="601.13" y="518.31" width=".95" height="8.42" fill="#eae5ea"></rect>
    </g>
  </g>
  <path d="M641.41,524.77v5.79c.03,1.66-1.3,3.03-2.96,3.06h-100.34c-1.67-.02-3-1.4-2.97-3.06h0v-5.79c-.03-1.67,1.31-3.04,2.97-3.06h100.34c1.66,.03,2.99,1.4,2.96,3.06Z" fill="#f69074"></path>
  <path d="M638.45,534.18h-100.34c-1.97-.03-3.55-1.65-3.53-3.62v-5.79c-.02-1.97,1.56-3.59,3.53-3.62h100.34c1.97,.04,3.54,1.65,3.52,3.62v5.79c.02,1.97-1.55,3.59-3.52,3.62h0Zm-100.34-11.91c-1.35,.03-2.43,1.15-2.41,2.5v5.79c-.02,1.35,1.06,2.47,2.41,2.5h100.34c1.35-.03,2.42-1.15,2.4-2.5v-5.79c.03-1.35-1.05-2.47-2.4-2.5h-100.34Z" fill="#002346"></path>
  <path d="M585.53,524.77v5.79c0,1.69-1.83,3.06-4.1,3.06h-42.19c-2.25,0-4.11-1.37-4.11-3.06v-5.79c0-1.69,1.83-3.06,4.11-3.06h42.19c2.26,0,4.1,1.37,4.1,3.06Z" fill="#f69074"></path>
  <path d="M581.44,534.18h-42.19c-2.58,0-4.67-1.63-4.67-3.62v-5.79c0-1.99,2.09-3.62,4.67-3.62h42.19c2.57,0,4.66,1.63,4.66,3.62v5.79c.03,2.03-2.09,3.62-4.66,3.62Zm-42.19-11.91c-1.96,0-3.55,1.13-3.55,2.5v5.79c0,1.37,1.59,2.5,3.55,2.5h42.19c1.95,0,3.53-1.13,3.53-2.5v-5.79c0-1.37-1.59-2.5-3.53-2.5h-42.19Z" fill="#002346"></path>
  <rect x="588.45" y="533.61" width="47.71" height="56.2" fill="#f69074"></rect>
  <path d="M636.78,590.37h-48.9v-57.33h48.9v57.33Zm-47.71-1.13h46.59v-55.08h-46.64l.06,55.08h-.01Z" fill="#002346"></path>
  <rect x="382.79" y="537.31" width="36.33" height="40.69" fill="#f69074"></rect>
  <path d="M419.68,578.56h-37.45v-41.82h37.45v41.82Zm-36.32-1.13h35.2v-39.56h-35.2v39.56Z" fill="#002346"></path>
  <path d="M420.79,527.04s8.41-11.48,13.87-9.46c5.46,2.03,9.53,4.89,7.44,7.73-2.09,2.85-14.97,7.68-14.97,7.68l-2.59-1.89s13.1-1.9,12.81-5.93c-.29-4.03-3.83-1.99-6.9-.57s-7.27,7.01-7.27,7.01l-2.39-4.57h0Z" fill="#f69074"></path>
  <path d="M427.05,533.64l-3.01-2.18c-.25,.32-.39,.52-.41,.52l-.54,.72-2.96-5.63,.21-.28c.35-.48,8.72-11.81,14.51-9.66,3.38,1.25,7.47,3.28,8.24,5.85,.28,.94,.08,1.97-.54,2.74-2.17,2.95-14.69,7.68-15.22,7.88l-.29,.04h.01Zm-1.13-2.25l1.26,.92c3.74-1.42,12.83-5.22,14.43-7.38,.4-.48,.54-1.14,.37-1.74-.5-1.64-3.24-3.51-7.56-5.12-4.02-1.5-10.55,5.72-13,9l1.81,3.48c1.26-1.56,4.42-5.31,6.94-6.48l.74-.35c2.09-.99,4.27-2.03,5.7-1.19,.82,.6,1.29,1.56,1.25,2.58,.32,3.78-8.37,5.72-11.91,6.36l-.03-.07h0Zm9.44-8.08c-1.39,.22-2.73,.69-3.96,1.38l-.75,.36c-1.95,.9-4.45,3.66-5.89,5.38,4.86-.75,12.17-2.79,11.99-5.28-.07-.89-.3-1.46-.71-1.69-.2-.09-.42-.12-.64-.1l-.03-.06h0Z" fill="#002346"></path>
  <path d="M412.47,527.04s-8.41-11.48-13.87-9.46c-5.46,2.03-9.53,4.89-7.44,7.73,2.09,2.85,14.97,7.68,14.97,7.68l2.59-1.89s-13.1-1.9-12.82-5.93c.28-4.03,3.82-1.99,6.89-.57s7.27,7.01,7.27,7.01l2.41-4.57h0Z" fill="#f69074"></path>
  <path d="M406.23,533.64l-.29-.11c-.53-.2-13.05-4.93-15.22-7.88-.62-.77-.82-1.79-.54-2.74,.77-2.58,4.91-4.6,8.24-5.85,5.79-2.15,14.16,9.17,14.52,9.66l.2,.28-2.96,5.63-.54-.72s-.15-.2-.41-.52l-3.01,2.25h.01Zm-6.25-15.76c-.38,0-.76,.07-1.13,.2-4.31,1.61-7.07,3.48-7.55,5.12-.18,.61-.04,1.26,.37,1.74,1.6,2.16,10.68,5.97,14.42,7.38l1.26-.92c-3.53-.63-12.22-2.57-11.94-6.31-.04-1.02,.43-1.98,1.26-2.58,1.42-.82,3.59,.2,5.68,1.19l.74,.35c2.53,1.13,5.63,4.92,6.94,6.48l1.81-3.48c-2.27-2.93-7.86-9.12-11.88-9.12v-.07l.02,.02Zm-2.12,5.46c-.24-.01-.47,.04-.68,.16-.41,.23-.64,.8-.7,1.69-.19,2.49,7.11,4.5,11.99,5.28-1.44-1.72-3.95-4.5-5.9-5.38l-.75-.36c-1.23-.68-2.57-1.14-3.96-1.35v-.03h0Z" fill="#002346"></path>
  <path d="M410.72,526.23h12.94c1.57,0,2.84,1.27,2.84,2.84v.43c0,1.57-1.27,2.84-2.84,2.84h-12.94c-1.57,0-2.84-1.27-2.84-2.84v-.43c0-1.57,1.27-2.84,2.84-2.84Z" fill="#002346"></path>
  <path d="M454.99,530.9v4.19c.04,1.21-.91,2.21-2.11,2.25h-72.73c-1.2-.02-2.16-1-2.14-2.2v-4.24c-.04-1.2,.89-2.21,2.09-2.25h72.71c1.21,0,2.18,.98,2.18,2.18v.07h0Z" fill="#f69074"></path>
  <path d="M452.84,537.87h-72.69c-1.51-.02-2.72-1.27-2.7-2.78v-4.19c-.02-1.51,1.19-2.75,2.7-2.77h72.66c1.51,.02,2.73,1.26,2.71,2.77v4.19c.02,1.5-1.18,2.74-2.68,2.78Zm-72.69-8.61c-.89,.02-1.59,.75-1.58,1.64h0v4.19c-.02,.89,.69,1.63,1.58,1.65h72.66c.9-.02,1.61-.76,1.59-1.65h0v-4.19c.02-.89-.69-1.62-1.58-1.64h-72.67Z" fill="#002346"></path>
  <path d="M414.52,530.9v4.19c0,1.23-1.33,2.25-2.97,2.25h-30.54c-1.64,0-2.97-.99-2.97-2.25v-4.19c0-1.22,1.33-2.25,2.97-2.25h30.54c1.64,.04,2.97,1.04,2.97,2.25Z" fill="#f69074"></path>
  <path d="M411.55,537.87h-30.54c-1.96,0-3.53-1.25-3.53-2.78v-4.19c0-1.53,1.58-2.77,3.53-2.77h30.54c1.95,0,3.53,1.24,3.53,2.77v4.19c-.05,1.53-1.59,2.78-3.53,2.78Zm-30.54-8.61c-1.31,0-2.41,.75-2.41,1.64v4.19c0,.9,1.13,1.65,2.41,1.65h30.54c1.31,0,2.41-.75,2.41-1.65v-4.19c0-.89-1.13-1.64-2.41-1.64h-30.54Z" fill="#002346"></path>
  <rect x="416.64" y="537.31" width="34.56" height="40.69" fill="#f69074"></rect>
  <path d="M451.75,578.56h-35.67v-41.82h35.67v41.82Zm-34.54-1.13h33.42v-39.56h-33.42v39.56h0Z" fill="#002346"></path>
  <rect x="430.45" y="528.7" width="6.64" height="8.62" fill="#002346"></rect>
  <rect x="429.82" y="537.31" width="6.64" height="40.69" fill="#002346"></rect>
  <rect x="395.52" y="528.7" width="6.74" height="8.62" fill="#002346"></rect>
  <rect x="396.16" y="537.31" width="6.74" height="40.69" fill="#002346"></rect>
  <g opacity=".2">
    <rect x="382.79" y="537.31" width="67.45" height="5.82"></rect>
  </g>
  <rect x="470.87" y="555.93" width="36.33" height="40.69" fill="#ebecec"></rect>
  <path d="M507.77,597.18h-37.45v-41.82h37.45v41.82Zm-36.32-1.13h35.2v-39.56h-35.2v39.56Z" fill="#002346"></path>
  <path d="M508.88,545.66s8.41-11.48,13.87-9.46c5.46,2.03,9.53,4.89,7.44,7.73s-14.97,7.68-14.97,7.68l-2.59-1.89s13.1-1.9,12.8-5.93-3.82-1.99-6.89-.57-7.27,7.01-7.27,7.01l-2.39-4.57h0Z" fill="#f69074"></path>
  <path d="M515.14,552.26l-3.02-2.25c-.25,.32-.39,.52-.41,.52l-.54,.72-2.96-5.63,.21-.28c.35-.47,8.72-11.8,14.51-9.65,3.38,1.25,7.47,3.28,8.24,5.85,.28,.94,.08,1.97-.54,2.74-2.17,2.95-14.69,7.68-15.22,7.88l-.28,.1h.01Zm-1.13-2.25l1.26,.92c3.74-1.43,12.83-5.22,14.43-7.38,.4-.48,.54-1.14,.37-1.74-.5-1.64-3.25-3.51-7.56-5.12-4.02-1.5-10.55,5.72-13,9l1.81,3.48c1.26-1.56,4.42-5.31,6.94-6.48l.74-.35c2.09-.99,4.27-2.01,5.7-1.19,.82,.6,1.29,1.56,1.25,2.58,.32,3.78-8.37,5.75-11.86,6.35l-.08-.06h0Zm9.44-8.08c-1.39,.22-2.73,.69-3.96,1.38l-.75,.36c-1.95,.9-4.5,3.66-5.89,5.38,4.86-.75,12.17-2.79,11.99-5.28-.07-.89-.3-1.46-.71-1.69-.2-.09-.42-.12-.64-.1l-.03-.06h0Z" fill="#002346"></path>
  <path d="M500.59,545.66s-8.41-11.48-13.87-9.46c-5.46,2.03-9.53,4.89-7.44,7.73s14.97,7.68,14.97,7.68l2.59-1.89s-13.14-1.9-12.82-5.89,3.82-1.99,6.89-.57,7.27,7.01,7.27,7.01l2.41-4.61h0Z" fill="#f69074"></path>
  <path d="M494.32,552.26l-.29-.11c-.53-.2-13.05-4.93-15.22-7.88-.62-.77-.82-1.79-.54-2.74,.77-2.58,4.91-4.6,8.24-5.85,5.79-2.14,14.16,9.17,14.51,9.65l.21,.28-2.96,5.63-.54-.72s-.15-.2-.41-.52l-3.01,2.26h.01Zm-6.25-15.76c-.38,0-.76,.07-1.13,.2-4.31,1.61-7.07,3.48-7.55,5.12-.18,.61-.04,1.26,.37,1.74,1.6,2.16,10.68,5.95,14.42,7.38l1.26-.92c-3.53-.63-12.22-2.57-11.94-6.31-.04-1.02,.43-1.99,1.26-2.58,1.42-.82,3.59,.2,5.68,1.19l.74,.35c2.53,1.13,5.68,4.92,6.94,6.48l1.81-3.48c-2.27-2.97-7.86-9.15-11.88-9.15v-.03h.02Zm-2.12,5.5c-.24-.01-.47,.04-.68,.16-.41,.23-.64,.8-.7,1.69-.19,2.49,7.11,4.5,11.99,5.28-1.44-1.72-3.95-4.5-5.9-5.38l-.75-.36c-1.23-.7-2.57-1.17-3.96-1.38h0Z" fill="#002346"></path>
  <rect x="495.97" y="544.85" width="18.62" height="6.1" rx="2.87" ry="2.87" fill="#002346"></rect>
  <rect x="504.73" y="555.93" width="34.56" height="40.69" fill="#ebecec"></rect>
  <path d="M539.83,597.18h-35.67v-41.82h35.67v41.82Zm-34.54-1.13h33.42v-39.56h-33.42v39.56h0Z" fill="#002346"></path>
  <rect x="517.91" y="555.93" width="6.64" height="40.69" fill="#002346"></rect>
  <rect x="484.25" y="555.93" width="6.74" height="40.69" fill="#002346"></rect>
  <path d="M136.42,484.62l.18,.07c9.05,4.22,17.73,9.19,25.96,14.85,.39,.37,.83,.69,1.31,.93,.98,.6,2.25,1.25,2.49,1.43,2.25,1.31,5.55-.09,7.32-3.14s1.34-6.57-.95-7.88c-.17-.1-2.25-1.7-2.48-1.83h0l-11.99-9.89c-4.33-3.7-.98-9.22-.98-9.22l-16.08-9.44-5.73,7.94-.7,1.13c-8.03,10.67,.34,14.55,1.65,15.07v-.02Z" fill="#f69074"></path>
  <path d="M168.22,502.93c-.75,0-1.49-.18-2.15-.55l-.38-.21c-.52-.29-1.38-.78-2.12-1.23-.52-.26-.99-.6-1.41-1l-.62-.41c-7.97-5.48-16.4-10.28-25.18-14.33h-.15c-2.44-.94-4.33-2.91-5.18-5.38-.86-3.01,.24-6.57,3.25-10.61l6.75-9.43,17.03,10-.29,.48c-.12,.21-3.05,5.16,.86,8.5l11.99,9.88c.23,.15,.71,.5,1.62,1.19l.81,.62c1.31,.8,2.14,2.18,2.25,3.7,.16,1.73-.23,3.46-1.13,4.94-1.19,2.23-3.44,3.68-5.97,3.84h.02Zm-26.89-41.73l-6.13,8.61c-2.79,3.75-3.83,6.99-3.07,9.65,.75,2.13,2.4,3.82,4.5,4.64h0l.17,.07c8.85,4.08,17.34,8.91,25.37,14.43l.86,.63c.35,.29,.73,.54,1.13,.75,.73,.44,1.59,.91,2.09,1.2l.39,.23c2.01,1.13,4.95-.18,6.55-2.94,.76-1.28,1.1-2.76,.97-4.24-.08-1.18-.71-2.25-1.71-2.88-.08,0-.46-.34-.91-.68s-1.19-.9-1.47-1.13h0l-12.15-10.02c-3.85-3.3-2.09-7.88-1.36-9.43l-15.22-8.89h0Z" fill="#002346"></path>
  <path d="M136.42,484.62c4.35-2.05,6.23-7.24,4.18-11.59-1.02-2.16-2.87-3.81-5.14-4.56l-.7,1.08c-8.03,10.67,.34,14.55,1.65,15.07h.01Z" fill="#002346"></path>
  <polygon points="259.29 477.6 257.25 488.08 239.55 487.67 241.63 473.45 259.29 477.6" fill="#fff"></polygon>
  <path d="M257.72,488.68l-18.81-.43,2.25-15.45,18.79,4.4-2.23,11.48Zm-17.51-1.53l16.59,.38,1.85-9.48-16.55-3.88-1.89,12.98h0Z" fill="#002346"></path>
  <rect x="236.72" y="484.1" width="25.65" height="8.34" rx="3.88" ry="3.88" transform="translate(-3.15 1.62) rotate(-.37)" fill="#002346"></rect>
  <path d="M247.72,515.6h.18c9.94-.93,19.94-1.04,29.9-.33,.52,.13,1.06,.18,1.6,.15h2.88c2.62,0,4.74-2.88,4.72-6.4s-2.17-6.35-4.81-6.34c-.2,0-2.77-.34-3.06-.33h0l-15.33-2.47c-5.63-1.01-5.5-7.46-5.5-7.46h-18.66l-.87,9.79-.11,1.25c-1.45,13.23,7.68,12.36,9.07,12.13h-.01Z" fill="#f69074"></path>
  <path d="M246.4,516.26c-2.13,.06-4.2-.7-5.79-2.13-2.25-2.16-3.12-5.8-2.57-10.81l1.02-11.53h19.75v.57c0,.24,0,5.99,5.03,6.9l15.12,2.43h.19c.26,0,.84,.08,1.99,.21l1.02,.12h0c2.9,0,5.3,3.07,5.32,6.89,.02,3.82-2.35,6.93-5.28,6.97h-2.89c-.57,.04-1.15-.01-1.71-.15h-.74c-9.65-.7-19.34-.57-28.96,.37h-.17c-.45,.08-.9,.12-1.35,.14l.02,.02Zm-6.29-23.33l-.93,10.51c-.52,4.66,.23,7.97,2.25,9.88,1.72,1.46,4.01,2.09,6.24,1.72h.18c9.7-.95,19.46-1.07,29.19-.37l1.07,.11c.44,.07,.88,.1,1.33,.08h2.79c2.25,0,4.19-2.65,4.16-5.84-.02-3.2-1.91-5.82-4.16-5.82l-1.13-.14c-.56,0-1.44-.17-1.79-.19h0l-15.56-2.51c-4.99-.89-5.81-5.77-5.94-7.45h-17.69v.02Z" fill="#002346"></path>
  <path d="M279.39,515.39h2.88c2.62,0,4.74-2.88,4.72-6.4s-2.17-6.35-4.81-6.34c-.2,0-2.77-.34-3.06-.33-1.35,2.75-2.24,7.14,.27,13.07Z" fill="#002346"></path>
  <path d="M247.72,515.6c2.71-3.98,1.69-9.41-2.29-12.12-1.96-1.34-4.39-1.82-6.71-1.33l-.11,1.25c-1.41,13.29,7.72,12.43,9.12,12.2h0Z" fill="#002346"></path>
  <polygon points="165.62 457.68 158.57 465.7 143.5 456.4 152.47 445.18 165.62 457.68" fill="#fff"></polygon>
  <path d="M158.67,466.43l-16.03-9.88,9.75-12.2,13.99,13.3-7.71,8.78h0Zm-14.34-10.13l14.13,8.71,6.38-7.25-12.31-11.71-8.19,10.24h-.01Z" fill="#002346"></path>
  <rect x="147.66" y="449.14" width="8.34" height="25.65" rx="3.88" ry="3.88" transform="translate(-324.16 362.47) rotate(-60)" fill="#002346"></rect>
  <path d="M163.86,500.47c.98,.6,2.25,1.25,2.49,1.43,2.25,1.31,5.55-.09,7.32-3.14s1.34-6.57-.95-7.88c-.17-.1-2.25-1.7-2.48-1.83-2.57,1.7-5.55,5.03-6.38,11.42h0Z" fill="#002346"></path>
  <path d="M270.78,292.89s.97,96.8-5.76,149.09l-1.28,36.87h-25.34s-2.88-104.85-9.61-153.26c0,0-9.62,32.71-17.31,64.77,0,0-1.28,11.26-12.19,25.33l-30.75,44.25-21.16-14.75,28.85-50.98s4.82-87.21,7.7-105.16l23.4-11.55,62.84,1.92,.62,13.47h0Z" fill="#fbe493" stroke="#002346" stroke-miterlimit="10" stroke-width="1.13"></path>
  <path d="M228.79,326.15c-.09,0-.19-.02-.27-.07-.23-.11-.37-.36-.33-.61l3.85-26.29c.04-.31,.33-.53,.64-.48s.53,.33,.48,.64l-3.62,24.76,9.59-8.45,2.86-23.51c.04-.31,.32-.53,.63-.5s.53,.32,.5,.63h0l-2.88,23.73c0,.14-.08,.26-.19,.35l-10.9,9.62c-.09,.1-.22,.17-.36,.18Z" fill="#002346"></path>
  <path d="M179.41,397.97c-.15,0-.29-.06-.39-.17l-3.21-3.21c-.17-.16-.21-.42-.11-.63,.09-.21,.31-.34,.54-.33l11.86,.64c.31,0,.56,.25,.56,.56s-.25,.56-.56,.56l-10.4-.56,2.17,2.16c.22,.22,.22,.58,0,.8-.12,.12-.29,.18-.46,.17h0Z" fill="#002346"></path>
  <rect x="217.41" y="145.23" width="19.96" height="25.16" fill="#f2b3c1"></rect>
  <path d="M237.94,170.95h-21.08v-26.28h21.08v26.28Zm-19.96-1.13h18.83v-24.03h-18.83v24.03Z" fill="#002346"></path>
  <path d="M237.38,145.23v15.76s-18.27,0-19.96-15.76h19.96Z" fill="#002346"></path>
  <path d="M219.68,293.88l-40.79-5.7,2.52-73.02s-9.55,15.84-18.35,24.65c-1.92,1.92-2.69,4.71-2.04,7.35l10.28,41.65-12.97,9.8s-24.67-39.58-28.93-56.28c-.7-2.8-.35-5.77,.99-8.33,6.57-12.64,33.98-62.4,60.19-65.71,0,0,18.66-6.96,26.56-8.53,0,0,4.74,38.57,4.11,67.34l-1.58,66.77h0Z" fill="#f69074"></path>
  <path d="M158.18,299.44l-.33-.52c-.25-.39-24.76-39.85-29-56.4-.74-2.94-.37-6.04,1.05-8.72,7.6-14.63,34.43-62.63,60.55-66,1.18-.44,18.96-7.01,26.59-8.53l.6-.12,.08,.61c0,.38,4.74,38.95,4.11,67.43l-1.6,67.34-41.92-5.84,2.48-71.44c-2.79,4.41-10.32,15.95-17.31,22.95-1.78,1.79-2.5,4.37-1.9,6.82l10.34,42.03-13.73,10.4h-.01Zm58.53-138.96c-8.08,1.77-25.7,8.32-25.89,8.39h-.14c-26.25,3.32-54.38,55.08-59.75,65.41-1.28,2.42-1.62,5.22-.96,7.88,3.93,15.36,25.62,50.82,28.53,55.56l12.18-9.21-10.13-41.31c-.69-2.83,.14-5.82,2.19-7.88,8.64-8.67,18.17-24.39,18.27-24.55l1.13-1.86-2.59,74.71,39.62,5.62,1.56-66.09c.53-26.44-3.49-61.62-4.09-66.66h.07Z" fill="#002346"></path>
  <path d="M181.41,215.7c-.32,0-.57-.27-.56-.59,0-.11,.04-.21,.09-.3l6.56-9.41c3.49-4.94,6.15-10.41,7.88-16.21,2.09-7.22,2.04-12.96-.19-16.61-1.03-1.79-2.72-3.12-4.7-3.69-.31-.06-.51-.36-.46-.67s.36-.51,.67-.46c2.3,.61,4.25,2.11,5.44,4.18,2.44,4,2.56,9.89,.33,17.55-1.76,5.91-4.47,11.49-8.03,16.53l-6.55,9.41c-.11,.17-.29,.27-.48,.27Z" fill="#002346"></path>
  <path d="M187.67,281.71l-4.5-5.63,.39-.35c7.15-6.54,19.73-21.93,19.86-22.07l.29-.35,5.99,2.99-.29,.52c-6.92,12.27-21.17,24.38-21.31,24.49l-.43,.39h0Zm-2.95-5.47l3.11,3.87c2.41-2.09,14.1-12.58,20.33-23.3l-4.13-2.06c-1.89,2.3-12.66,15.29-19.32,21.49h.01Z" fill="#002346"></path>
  <path d="M239.74,160.6c5.45,23.75,9.44,47.8,11.95,72.04,0,0,2.32,38.17,1.65,62.07l22.41-1.99-2.54-46.31s5.54,12.04,20.7,11.05l54.39-2.31-3.3-15.83-42.02-9.24c-2.76-.61-5.05-2.51-6.16-5.11-3.19-7.54-10.56-24.02-19.42-37.74-8.62-13.24-21.94-22.72-37.27-26.52l-.41-.11h.02Z" fill="#f69074"></path>
  <path d="M252.77,295.31v-.63c.65-23.64-1.63-61.64-1.65-62.02-2.51-24.2-6.5-48.22-11.94-71.93l-.21-.9,1.35,.33c15.49,3.81,28.94,13.38,37.61,26.77,8.72,13.51,15.94,29.49,19.46,37.83,1.03,2.43,3.18,4.21,5.76,4.77l42.39,9.27,3.5,16.88-55.05,2.34c-7.89,.73-15.55-2.87-20.04-9.4l2.4,44.6-23.57,2.08h0Zm-12.28-133.94c5.34,23.48,9.26,47.26,11.75,71.21,0,.39,2.25,37.82,1.69,61.5l21.23-1.88-2.62-48.69,1.24,2.67c.21,.47,5.56,11.66,20.15,10.73l53.74-2.25-3.08-14.81-41.65-9.16c-2.94-.64-5.38-2.68-6.55-5.45-3.51-8.3-10.69-24.22-19.37-37.65-8.43-13.03-21.47-22.39-36.51-26.2h0l-.02-.02Z" fill="#002346"></path>
  <path d="M274.76,278.79c-5.33-1.56-9.65-5.47-11.74-10.61v-.15l1.79-8.12,.73,.79c3.91,4.21,9.38,9.07,9.43,9.13l-.75,.84c0-.06-4.92-4.38-8.77-8.43l-1.27,5.71c2.05,4.71,6.05,8.28,10.96,9.77l-.38,1.07h0Z" fill="#002346"></path>
  <path d="M273.22,246.96c-.29,0-.52-.22-.55-.51l-8.45-73.03c-.03-.31,.19-.59,.5-.63,.31-.03,.59,.19,.63,.5l8.49,73.04c.03,.31-.19,.58-.5,.62h-.12Z" fill="#002346"></path>
  <path d="M239.74,160.6s-11.93,3.93-22.59-.79c0,0,5.26,40.52,4.11,67.34l-1.43,63.64s16.82,2.9,33.34,0c0,0,1.13-14.57-1.47-58.17-2.57-24.22-6.57-48.27-11.95-72.03h-.01Z" fill="#fff"></path>
  <path d="M237.2,292.64c-5.86,.02-11.71-.42-17.5-1.29l-.47-.08,1.44-64.16c1.13-26.46-4.05-66.86-4.11-67.27l-.12-.99,.91,.41c10.33,4.57,22.07,.81,22.19,.77l.6-.19,.14,.61c5.38,23.76,9.37,47.81,11.95,72.04,2.56,43.17,1.5,58.13,1.49,58.27v.44l-.43,.07c-5.31,.92-10.69,1.39-16.07,1.38h-.02Zm-16.83-2.33c2.83,.43,17.67,2.45,32.24,0,.15-2.74,.8-18.64-1.51-57.66-2.56-23.99-6.51-47.81-11.81-71.35-2.5,.72-12.25,3.06-21.5-.61,.79,6.34,5.03,42.22,4,66.49l-1.42,63.13h0Z" fill="#002346"></path>
  <path d="M345.05,239.32s34.68,1.87,24.56,6.31c0,0,8.27,4.29,3.06,5.98,0,0,1.99,3.83-6.58,2.61,0,0,2.76,4.59-7.36,2.44,0,0-5.12-.9-10.38-1.52l-3.3-15.83h0Z" fill="#f2b3c1"></path>
  <path d="M363.2,257.8c-1.54-.04-3.08-.23-4.58-.59,0,0-5.16-.91-10.33-1.52h-.39l-3.53-16.88h.73c6.16,.34,26.31,1.68,26.92,5.09,.14,.79-.47,1.37-1.19,1.81,1.58,.93,4.29,2.79,4.14,4.5-.07,.74-.6,1.33-1.58,1.76,.14,.6,.02,1.23-.32,1.74-.83,1.13-2.84,1.56-6.13,1.19,.15,.59,.04,1.23-.3,1.73-.56,.77-1.7,1.16-3.43,1.16h-.01Zm-14.37-3.16c5.07,.62,9.96,1.47,10.01,1.49,5.31,1.13,6.58,.27,6.88-.15s-.1-1.45-.1-1.46l-.6-1,1.13,.16c4.5,.64,5.68-.21,5.98-.61,.2-.37,.2-.81,0-1.18l-.29-.59,.62-.21c.48-.15,1.29-.48,1.33-.98,.09-1.13-2.57-2.96-4.5-3.96l-1.05-.54,1.13-.47c1.29-.56,1.53-.97,1.51-1.07-.3-1.69-13.15-3.43-25.13-4.13l3.11,14.71h-.03Z" fill="#002346"></path>
  <path d="M349.85,249.26h-.2c-.29-.11-.43-.43-.33-.72,0-.14,1.25-3.24,3.46-3.79,1.13-.23,2.3,.13,3.11,.96,1.25,1.22,3.44,2.79,4.3,2.36,.23-.11,.73-.63,.45-2.94-.41-2.5-2.6-4.32-5.13-4.25-.31,0-.55-.27-.54-.58h0c.03-.3,.27-.53,.57-.54,3.07,0,5.71,2.2,6.21,5.23,.28,2.25-.07,3.6-1.07,4.1-1.86,.91-4.95-1.96-5.55-2.54-.52-.57-1.31-.84-2.07-.7-1.36,.34-2.4,2.35-2.68,3.1-.1,.2-.3,.33-.53,.33v-.02Z" fill="#002346"></path>
  <path d="M369.61,246.2h0l-6.12-.46c-.31-.02-.55-.29-.52-.6s.29-.55,.6-.52l6.13,.46c.31,0,.56,.25,.56,.56s-.25,.56-.56,.56h-.09Z" fill="#002346"></path>
  <path d="M372.06,251.87h-.11l-7.81-1.53c-.3-.06-.5-.36-.44-.66h0c.05-.29,.33-.49,.62-.45h.03l7.82,1.53c.3,.06,.5,.34,.44,.64h0c-.06,.26-.29,.45-.55,.45v.02Z" fill="#002346"></path>
  <path d="M366.09,254.77h-.1l-6.12-1.13c-.31-.05-.52-.35-.47-.66s.35-.52,.66-.47l6.13,1.07c.31,.03,.54,.3,.51,.61s-.3,.54-.61,.51v.06h0Z" fill="#002346"></path>
  <path d="M231.64,109.26h0c8.52,0,15.42,6.9,15.42,15.42v15.13c0,8.52-6.9,15.42-15.42,15.42h0c-8.52,0-15.42-6.9-15.42-15.42v-15.13c0-8.52,6.9-15.42,15.42-15.42Z" fill="#f2b3c1"></path>
  <path d="M232.69,155.79h-2.15c-8.22-.02-14.88-6.69-14.89-14.91v-17.28c0-8.23,6.68-14.9,14.91-14.91h2.13c8.23,.01,14.9,6.68,14.9,14.91v17.28c0,8.23-6.67,14.9-14.9,14.91h0Zm-2.15-45.98c-7.61,.01-13.78,6.18-13.79,13.79v17.28c0,7.61,6.18,13.78,13.79,13.79h2.15c7.62,0,13.79-6.17,13.8-13.79v-17.28c0-7.62-6.18-13.79-13.8-13.79,0,0-2.15,0-2.15,0Z" fill="#002346"></path>
  <path d="M247.24,124.19s3.6-10.58-.18-15.81c0,0,6.99-9.89-5.82-9.6,0,0-13.2-9.93-27.09,5.63,0,0-14.63,3.6-10.82,20.73,0,0,1.13,6.67,4.15,8.66l9.74-2.7s3.24-2.88,1.26-13.71l6.34-2.4s6.45,1.86,16.42-2.25c-.02,0,5.18,3.38,6,11.46h0Z" fill="#002346"></path>
  <path d="M240.42,100c-3.46,4.93-17.45,23.16-37.07,24.65-.51-2.16-.74-4.39-.66-6.61,0,0,18.2-7.99,30.27-22.78,1.01-1.28,2.69-1.84,4.27-1.4,1.61,.43,2.93,1.59,3.55,3.14,.4,.99,.27,2.12-.35,2.99h-.01Z" fill="#fbe493"></path>
  <path d="M202.92,125.25l-.11-.47c-.54-2.21-.76-4.48-.68-6.75v-.33l.29-.14c.18-.08,18.22-8.1,30.06-22.62,1.15-1.46,3.06-2.08,4.85-1.58,1.77,.48,3.22,1.76,3.91,3.47,.48,1.17,.33,2.5-.41,3.52h0c-3.82,5.47-17.8,23.4-37.48,24.89h-.43Zm.3-6.81c-.04,1.89,.16,3.78,.57,5.63,18.93-1.71,32.44-19.06,36.15-24.37,.51-.72,.61-1.64,.28-2.45-.55-1.39-1.73-2.44-3.17-2.81-1.35-.37-2.8,.1-3.67,1.2-11.15,13.68-27.71,21.62-30.17,22.8h0Z" fill="#002346"></path>
  <path d="M186.48,122.99l.44,.55c.64,.26,1.33,.39,2.03,.38,1.74,0,3.45-.44,4.98-1.28,1.67-.89,3.15-2.1,4.36-3.57,.95-1.13,1.6-2.48,1.9-3.93,1.46-6.2,2.52,2.9,2.52,2.9,6.88-3.04,13.32-6.99,19.14-11.75,3.94-3.13,7.53-6.67,10.72-10.57,.45-.66,1.1-1.17,1.85-1.45,0,0-11.66-9-24.22-9-5.63-.02-10.83,2.99-13.62,7.88-2.1,3.88-3.45,8.12-3.98,12.49-.3,2.25-.59,4.38-.7,6.58-.14,2.95-1.79,8.72-5.39,10.76h-.03Z" fill="#f69074"></path>
  <path d="M189.11,124.49h-.18c-.77,0-1.54-.14-2.25-.44l-.14-.06-.93-1.13,.57-.33c3.26-1.83,4.98-7.23,5.11-10.29,.1-2.18,.37-4.3,.69-6.64,.55-4.45,1.92-8.75,4.05-12.7,2.89-5.1,8.29-8.24,14.15-8.23h.08c12.58,0,24.01,8.78,24.48,9.15l.82,.63-.98,.35c-.63,.24-1.17,.66-1.55,1.22-3.22,3.94-6.85,7.53-10.83,10.7-5.86,4.8-12.33,8.78-19.26,11.83l-.7,.3-.09-.75c-.13-1.49-.44-2.96-.93-4.37-.2,.49-.36,1-.47,1.52-.32,1.53-1,2.96-2,4.15-1.24,1.52-2.77,2.78-4.5,3.71-1.57,.86-3.34,1.33-5.13,1.35v.03Zm-1.79-1.38c.52,.18,1.07,.26,1.62,.26,1.64,0,3.26-.42,4.69-1.22,1.6-.84,3.02-1.99,4.19-3.38,.88-1.06,1.49-2.31,1.79-3.66,.38-1.64,.82-2.7,1.62-2.65,.33,0,1.27,.07,1.91,4.81,6.56-2.99,12.71-6.82,18.28-11.4,3.89-3.11,7.45-6.63,10.61-10.48,.31-.48,.73-.89,1.22-1.19-2.71-1.92-12.63-8.39-23.06-8.39h-.02c-5.43-.01-10.44,2.9-13.14,7.61-2.05,3.82-3.38,8-3.92,12.3-.32,2.25-.59,4.4-.69,6.54-.12,2.54-1.52,8.35-5.11,10.84h.01Z" fill="#002346"></path>
  <circle cx="184.07" cy="125.71" r="5.31" fill="#fbe493"></circle>
  <path d="M184.07,131.6c-3.25,0-5.89-2.62-5.9-5.88s2.62-5.89,5.88-5.9c3.25,0,5.89,2.62,5.9,5.88h0c0,3.26-2.63,5.89-5.88,5.9Zm0-10.64c-2.63,0-4.77,2.12-4.77,4.75s2.12,4.77,4.75,4.77,4.77-2.12,4.77-4.75v-.02c0-2.62-2.13-4.74-4.75-4.75Z" fill="#002346"></path>
  <g opacity=".2">
    <path d="M198.27,119.07c.95-1.13,1.6-2.48,1.9-3.93,1.46-6.2,2.52,2.9,2.52,2.9,6.88-3.04,13.32-6.99,19.14-11.75-4.85-4.67-11.07-7.66-17.74-8.53-13.68,.34-6.72,19.05-5.82,21.31h0Z"></path>
  </g>
  <ellipse cx="212.53" cy="135" rx="6.31" ry="6.26" fill="#f2b3c1"></ellipse>
  <path d="M213.16,141.82c-3.76,.34-7.09-2.44-7.42-6.21-.34-3.76,2.44-7.09,6.21-7.42,3.76-.34,7.09,2.44,7.42,6.21,.02,.2,.03,.4,.03,.6,.15,3.6-2.63,6.65-6.24,6.82h0Zm0-12.52c-3.15-.34-5.97,1.93-6.31,5.08-.34,3.15,1.93,5.97,5.08,6.31,3.15,.34,5.97-1.93,6.31-5.08,.02-.21,.03-.41,.03-.62,.15-2.98-2.13-5.53-5.11-5.7h0Z" fill="#002346"></path>
  <path d="M169.73,289.88c1.43,2.1,3.45,3.74,5.81,4.69,0,0,13.97,6.75,12.11,11.62,0,0-1.13,2.72-6.18-2.25,0,0,1.36,5.19-3.7,5.19,0,0-1.24,3.7-5.81,2.6,0,0-1.61,2.34-5.32-.12,0,0-3.58,2.71-4.2-2.35,0,0-1.52-7.49-4.1-10.67l11.39-8.7h0Z" fill="#f2b3c1"></path>
  <path id="c" d="M169.73,313.33c-1.1-.04-2.17-.4-3.08-1.02-.85,.59-1.92,.75-2.9,.44-1.01-.43-1.64-1.56-1.87-3.38,0,0-1.52-7.35-3.97-10.38l-.36-.45,12.38-9.48,.33,.53c1.36,2.01,3.29,3.58,5.54,4.5,1.52,.74,14.42,7.19,12.38,12.38-.25,.56-.76,.95-1.36,1.06-1.18,.25-2.74-.44-4.61-2.05,.04,1.02-.26,2.02-.84,2.85-.8,.95-1.98,1.49-3.22,1.46-1.08,2.23-3.61,3.35-5.99,2.67-.66,.58-1.52,.89-2.41,.87h-.02Zm-3.11-2.39l.33,.23c3.16,2.12,4.5,.35,4.5,.27l.21-.32,.37,.09c4,.97,5.1-2.09,5.14-2.25l.14-.38h.41c1.01,.1,2.01-.29,2.7-1.04,.61-1.04,.78-2.28,.5-3.46l-.51-1.95,1.44,1.41c2.77,2.7,4.14,2.9,4.73,2.78,.23-.03,.43-.17,.54-.37,1.36-3.55-8.08-9.07-11.84-10.9-2.26-.92-4.23-2.44-5.68-4.4l-10.49,8.05c2.42,3.43,3.82,10.13,3.87,10.45,.12,1,.43,2.25,1.19,2.53,.75,.16,1.53-.03,2.12-.52l.34-.23h0Z" fill="#002346"></path>
  <path d="M181.47,304.54c-.18,0-.35-.09-.45-.24l-5.07-6.92c-.19-.25-.14-.6,.11-.79h0c.25-.18,.6-.12,.79,.12l5.08,6.92c.18,.25,.12,.6-.12,.79-.1,.08-.22,.12-.34,.11h0Z" fill="#002346"></path>
  <path d="M168.9,308.82c-.52,0-1.04-.03-1.55-.11-.3-.06-.51-.35-.46-.65,.06-.3,.35-.51,.65-.46,0,0,4.38,.72,6.6-1.99,.19-.24,.55-.28,.79-.09h0c.24,.2,.27,.55,.08,.79-1.56,1.7-3.8,2.62-6.11,2.51h0Z" fill="#002346"></path>
  <path d="M248.56,533.14c.64,2.8-1.73,6.25-1.73,6.25-1.29,2.16-.32,8.42-.32,8.42-5.08-.21-3.13-7.23-3.13-7.23,.32-3.13-1.95-3.13-1.95-3.13l-11.97,8.52c-8.31,7.34-9.5,5.82-9.5,5.82-3.56-.86,4.75-8.73,4.75-8.73l-8.85,6.4c-.72,.59-1.7,.74-2.57,.39-3.52-1.55,7.96-10.43,7.96-10.43l-9.27,4.86c-.64,.3-1.41,.03-1.71-.61-.21-.44-.15-.96,.16-1.35,1.94-2.05,4.14-3.84,6.54-5.34,.06-.06,.07-.16,0-.22-.04-.04-.09-.06-.14-.05-15.26,3.55,22.33-14.27,22.33-14.27l9.39,10.69h.01Z" fill="#f2b3c1"></path>
  <path id="d" d="M220.42,552.49h-.11c-.19,0-.38-.07-.54-.17-.56-.14-.99-.57-1.13-1.13-.3-1.13,.72-2.85,1.99-4.5l-4.38,3.14c-.88,.71-2.07,.89-3.12,.46-.54-.2-.93-.7-.99-1.27-.21-1.69,2.4-4.5,4.87-6.75l-4.72,2.47c-.77,.4-1.71,.21-2.25-.47-.56-.68-.56-1.65,0-2.33,1.48-1.63,3.15-3.08,4.99-4.3-1.46,.21-2.09,0-2.25-.52s-.56-1.63,13.01-8.63c6.51-3.38,13.18-6.51,13.25-6.54,.23-.11,.5-.06,.66,.14l9.38,10.68c.07,.06,.11,.15,.12,.24,.7,3.02-1.7,6.55-1.8,6.75-.96,1.59-.5,6.33-.24,8,.03,.17-.02,.34-.14,.46-.11,.13-.28,.2-.45,.19-1.22,.01-2.37-.55-3.11-1.52-1.65-2.25-.59-6.26-.53-6.43,.12-.69-.04-1.39-.45-1.96-.21-.23-.49-.38-.8-.43l-11.8,8.4c-4.59,3.92-7.85,6.02-9.49,6.02h.03Zm0-1.05h0l-.09-.09c.2,0,2.04,.15,8.77-5.81l12.02-8.55c.1-.07,.21-.1,.33-.1,.68,.03,1.32,.32,1.79,.82,.65,.83,.91,1.89,.72,2.93,0,.12-1,3.71,.34,5.55,.38,.51,.94,.86,1.56,.98-.23-1.8-.63-6.18,.51-8.06,0-.07,2.16-3.21,1.69-5.71l-9-10.25c-11.26,5.36-23.09,11.55-25.02,13.51,.92-.08,1.82-.23,2.71-.46,.34-.08,.69,.09,.82,.42,.14,.31,.03,.68-.26,.87-2.35,1.46-4.5,3.21-6.4,5.21-.23,.27-.23,.66,0,.92,.2,.27,.57,.34,.87,.18l9.26-4.85c.26-.13,.57-.05,.73,.19,.16,.25,.1,.57-.12,.75-3.61,2.79-8.61,7.46-8.41,9.09,0,.14,.07,.26,.33,.38,.68,.25,1.44,.12,2-.34l8.86-6.37c.24-.18,.57-.14,.75,.09,.2,.22,.2,.56,0,.78-2.45,2.33-5.77,6.19-5.44,7.46,0,.07,.07,.23,.44,.32,.05,.01,.09,.03,.14,.06h.02l.08,.08Z" fill="#002346"></path>
  <path d="M288.97,529.54s2.89,43.53,51.41,20.87c0,0,29.37,4.4,38.09-15.67,1.51-3.59,2.16-7.49,1.89-11.38-.45-8.72-2.97-17.21-7.36-24.76l-80.07,22.38-3.95,8.57h-.01Z" fill="#fbe493"></path>
  <path d="M315.75,557.51c-4.76,.1-9.45-1.09-13.59-3.44-12.51-7.4-13.77-24.32-13.78-24.49v-.14l4.13-8.89,.25-.08,80.48-22.51,.21,.36c4.42,7.62,6.98,16.18,7.45,24.98,.3,3.98-.35,7.98-1.89,11.66-8.44,19.44-36.08,16.34-38.52,16.03-9.41,4.36-17.66,6.53-24.75,6.53h0Zm-26.23-27.88c.15,1.62,1.82,16.73,13.21,23.46,8.95,5.28,21.52,4.2,37.38-3.21l.15-.07h.17c.29,0,29.05,4.11,37.49-15.33,1.48-3.51,2.11-7.32,1.85-11.12-.46-8.47-2.88-16.71-7.07-24.09l-79.4,22.19-3.78,8.17h0Z" fill="#002346"></path>
  <path d="M315.3,390.69s-21.39,7.45-27.63,21.26l-46.78,99.53s-1.04,16.68,17.63,16.68l38.62-64.24,72.68,30.67,1.33-33.58s15.22,12.79,25.89,13.14l-18.38-58.95c-2.02-6.64-6.07-12.48-11.57-16.7-6.01-4.5-15.25-9-29.04-10.29l-22.74,2.48h0Z" fill="#f69074"></path>
  <path d="M258.52,528.72c-6.02,0-10.68-1.7-13.84-5.07-2.94-3.38-4.49-7.74-4.34-12.21,0-.07,.02-.14,.06-.2l46.78-99.53c6.24-13.87,27.07-21.25,27.95-21.56h.12l22.82-2.48h.11c11.8,1.13,21.66,4.59,29.33,10.4,5.61,4.29,9.73,10.24,11.77,17l18.38,58.94c.06,.17,.02,.36-.09,.51-.11,.14-.28,.23-.46,.23-9.43-.3-21.96-9.8-25.39-12.55l-1.33,32.41c-.01,.18-.11,.35-.27,.45-.16,.08-.36,.08-.52,0l-72.22-30.49-38.37,63.88c-.1,.17-.28,.28-.48,.28h-.01Zm-17.08-17.11c0,.86,0,6.91,4.06,11.26,2.88,3.06,7.15,4.65,12.7,4.7l38.46-64.01c.14-.24,.44-.34,.7-.24l71.93,30.39,1.34-32.72c.01-.21,.14-.4,.34-.48,.2-.09,.43-.06,.6,.08,.15,.12,14.43,12.04,24.76,12.96l-18.13-58.17c-1.98-6.53-5.97-12.28-11.39-16.43-7.49-5.63-17.14-9.08-28.69-10.13l-22.69,2.47c-1.24,.45-21.39,7.88-27.24,20.95l-46.73,99.39-.02-.02Z" fill="#002346"></path>
  <path d="M319.69,419.58h-.08c-.16-.02-.3-.11-.38-.24l-5.57-7.88-8.19,4.92c-.26,.15-.59,.08-.75-.17l-4.13-6.04-6.09,5.35c-.13,.11-.3,.16-.47,.12-.17-.03-.31-.12-.39-.27l-3.97-7.09c-.15-.27-.06-.61,.21-.77,.27-.15,.61-.06,.77,.21l3.64,6.48,6.04-5.25c.12-.11,.29-.15,.45-.14,.15,.02,.29,.11,.38,.24l4.2,6.13,8.18-4.92c.25-.15,.58-.08,.75,.16l5.53,7.81,7.88-6.19c.23-.18,.56-.16,.75,.06l5.25,5.55,5.48-7.41c.1-.13,.24-.21,.41-.23,.17,0,.33,.05,.45,.17l5.09,5.25,1.2-7.88c.03-.17,.13-.32,.28-.41,.16-.07,.35-.07,.51,0l7.88,3.49,.63-7.88c.01-.3,.26-.53,.56-.52h.02l5.68,.32,.64-6.54c.03-.31,.3-.54,.61-.51s.54,.3,.51,.61l-.7,7.09c-.03,.3-.29,.52-.59,.51l-5.63-.32-.65,8.09c-.01,.18-.11,.34-.27,.44-.16,.08-.35,.08-.52,0l-7.97-3.51-1.33,8.21c-.03,.21-.18,.38-.38,.45s-.43,0-.57-.15l-5.41-5.53-5.48,7.47c-.1,.13-.25,.21-.42,.23-.17,.02-.33-.05-.45-.17l-5.35-5.63-7.88,6.25c-.12,.04-.24,.05-.36,.01v.03Z" fill="#002346"></path>
  <path d="M320.56,427.71h0c-.16-.01-.31-.1-.41-.23l-6.56-8.86-7.19,5.9c-.23,.2-.58,.17-.78-.06h0s-6.03-7.18-6.03-7.18l-6.65,5.63c-.13,.12-.31,.17-.48,.12-.17-.03-.32-.15-.39-.3l-4.89-10.59c-.13-.27-.02-.6,.26-.74h.01c.28-.13,.62-.02,.75,.26h0l4.57,9.86,6.53-5.57c.11-.1,.26-.15,.41-.14,.15,.01,.29,.09,.38,.2l6.04,7.18,7.17-5.88c.24-.2,.59-.16,.79,.08,0,0,.01,.02,.02,.02l6.53,8.81,7.31-7.32c.1-.11,.25-.17,.41-.17,.15,0,.3,.06,.41,.18l5.72,6.03,4.63-7.5c.08-.13,.21-.23,.36-.26s.31,0,.44,.09l7.88,5.39,1.73-8.85c.03-.15,.12-.28,.25-.36s.29-.1,.44-.07l8.68,2.08,.48-8.82c0-.16,.07-.31,.19-.41,.12-.09,.27-.14,.42-.14l7.16,.65,2.25-6.55c.1-.29,.42-.45,.71-.35h0c.29,.09,.45,.41,.35,.7h0s-2.37,6.99-2.37,6.99c-.08,.25-.33,.4-.59,.37l-7.01-.63-.5,8.91c0,.17-.09,.33-.23,.43-.13,.1-.3,.13-.46,.09l-8.77-2.1-1.79,9.11c-.03,.18-.16,.34-.34,.41-.17,.08-.38,.06-.53-.06l-8.15-5.54-4.7,7.62c-.09,.15-.24,.24-.42,.26-.18,.02-.35-.04-.47-.17l-5.74-6.1-7.37,7.36c-.11,.12-.27,.18-.44,.17l-.02,.05Z" fill="#002346"></path>
  <path d="M372.98,498.64s-34.12-55.58-49.39-54.48l24.1,72.04s19.46,2.44,25.29-17.56h0Z" fill="#f2b3c1"></path>
  <path d="M349.5,516.88c-.63,.01-1.26-.02-1.88-.09-.21-.02-.39-.17-.46-.37l-24.11-72.04c-.06-.16-.03-.34,.07-.48,.1-.15,.25-.24,.43-.26,15.48-1.13,48.51,52.46,49.91,54.75,.09,.13,.11,.3,.07,.45-4.82,16.49-18.91,18.04-24.02,18.04h-.01Zm-1.38-1.13c2.67,.23,18.91,.86,24.25-16.97-2.25-3.69-33.36-53.33-48-54.03l23.75,71Z" fill="#002346"></path>
  <path d="M293.26,439.21s11.1-1.85,20.65,15.11l12.96,62.58s-10.49,15.68-37.9,12.64c-1.35-7.84-1.97-15.79-1.86-23.74l6.15-66.59Z" fill="#f2b3c1"></path>
  <path d="M295.82,530.5c-2.32,0-4.63-.14-6.93-.39-.24-.03-.43-.21-.48-.45-1.35-7.88-1.98-15.86-1.87-23.85l6.17-66.64c.03-.25,.22-.46,.47-.51,.47-.08,11.59-1.72,21.24,15.39v.16l13.01,62.62c.03,.15,0,.3-.09,.43-.09,.11-9.09,13.25-31.52,13.25h0Zm-6.39-1.48c24.84,2.65,35.55-10.52,36.84-12.25l-12.88-62.26c-8.21-14.5-17.54-14.91-19.61-14.79l-6.12,66.13c-.08,7.76,.51,15.51,1.77,23.16h0Z" fill="#002346"></path>
  <path d="M272.6,560.2c-7.94,11.74-12.28,30.55-13.69,37.5-.54,2.76-1.22,5.49-2.04,8.17-4.5,14.31-10.5,21.12-15.65,24.32-5.75,3.5-13.25,1.68-16.75-4.07-.04-.07-.09-.15-.13-.22-6.96-12.04,3.1-27.12,10.42-35.68,4.55-5.36,8.05-11.53,10.31-18.19l6.99-20.33c.74,.65,1.58,1.17,2.49,1.54l14.16,6c1.18,.5,2.45,.76,3.74,.77h0l.15,.18h0Z" fill="#f69074"></path>
  <path d="M234.95,632.58c-1.06,0-2.11-.14-3.14-.39-3.35-.84-6.23-3-7.97-5.99-7.2-12.49,3.48-28.14,10.49-36.33,4.53-5.3,8.02-11.41,10.27-18.01l7.24-21.12,.63,.55c.7,.6,1.49,1.09,2.34,1.45l14.13,6c1.11,.48,2.3,.72,3.51,.72h.25l.65,.69-.25,.37c-7.81,11.56-12.11,29.94-13.6,37.3-.54,2.78-1.23,5.52-2.05,8.23-3.78,12.12-9.12,20.42-15.88,24.63-1.98,1.25-4.28,1.91-6.62,1.9h0Zm17.41-79.92l-6.7,19.57c-2.29,6.73-5.85,12.97-10.48,18.37-6.82,7.98-17.23,23.14-10.37,35.04,3.23,5.56,10.36,7.46,15.92,4.23,.07-.04,.15-.09,.22-.13,6.53-4.07,11.71-12.16,15.4-24.01,.82-2.67,1.49-5.38,2.03-8.13,1.47-7.29,5.68-25.28,13.33-37.03-1.11-.08-2.2-.35-3.23-.79l-14.13-6c-.72-.29-1.39-.68-2.01-1.14h.02v.02Z" fill="#002346"></path>
  <path d="M235.11,629.16c-.63,0-1.25-.08-1.86-.23-6.33-1.52-8.82-10.37-8.94-10.74-.08-.31,.1-.63,.41-.71s.63,.1,.71,.41c0,.09,2.43,8.59,8.12,9.95,3.64,.87,7.88-1.33,12.64-6.53,.21-.23,.57-.25,.8-.03,.23,.21,.25,.57,.03,.8-4.33,4.7-8.33,7.08-11.92,7.08h0Z" fill="#002346"></path>
  <path d="M361.25,633.28c-24.09,2.12-16.29-45.02-16.29-45.02-.37-11.65-2.99-23.11-7.71-33.77,.68,.09,1.36,.13,2.05,.12,0,0,12.82,.2,20.26-4.99h.32c0,19.14,8.85,38.6,8.85,38.6,13.42,41.16-7.47,45.06-7.47,45.06h-.01Z" fill="#f69074"></path>
  <path d="M359.72,633.89c-3.75,.1-7.37-1.43-9.91-4.2-10.3-11.12-5.63-40.27-5.41-41.51-.38-11.53-2.98-22.88-7.65-33.43l-.43-.93,1.01,.15c.65,.08,1.31,.11,1.97,.11,.14,0,12.73,.14,19.9-4.89l.17-.12,1.04,.12v.5c0,18.77,8.71,38.17,8.8,38.36,5.68,17.37,6.09,30.32,1.2,38.56-3.62,6.12-8.84,7.16-9.06,7.2h0c-.54,.06-1.09,.08-1.63,.08h0Zm-21.56-78.7c4.5,10.48,7,21.71,7.36,33.1-.06,.39-4.81,29.94,5.12,40.66,2.69,2.89,6.61,4.29,10.52,3.77,3.56-1.05,6.54-3.48,8.3-6.75,3.22-5.46,5.63-16.41-1.31-37.55-.07-.14-8.64-19.2-8.88-37.96-7.52,4.84-19.48,4.69-19.99,4.7h0c-.41,.06-.79,.04-1.13,.02h.01Z" fill="#002346"></path>
  <path d="M383.92,456.22s11.32,24.76,24.08,19.14c0,0,8.93-3.57,7.14-14.25-.32-1.79-1.02-3.48-2.06-4.98-2.4-3.56-7.46-11.48-9.33-17.59,0,0-2.63-10.56-7.56-14.34-1.79-1.35-4.23-1.42-6.09-.17l-12.19,8.1s-7.68,4.45,6.02,24.09h-.01Z" fill="#f69074"></path>
  <path d="M404.07,476.76c-11.09,0-20-18.88-20.64-20.26-7.97-11.45-8.76-17.87-8-21.24,.22-1.45,1.01-2.74,2.19-3.6l12.16-8.1c2.06-1.4,4.77-1.32,6.75,.18,5.03,3.86,7.67,14.22,7.78,14.63,1.86,6.1,7.08,14.22,9.24,17.41,4.28,6.23,2.69,14.75-3.54,19.03-.57,.39-1.17,.74-1.79,1.04-1.3,.59-2.71,.9-4.14,.91h0Zm-11.03-53.08c-.94,0-1.86,.28-2.65,.8l-12.19,8.13c-.93,.73-1.54,1.79-1.7,2.96-.68,3.16,.16,9.25,7.88,20.33v.09c.11,.24,11.26,24.21,23.33,18.84,.37-.15,8.51-3.56,6.82-13.65-.31-1.71-.99-3.33-1.98-4.75-2.71-4.03-7.55-11.69-9.4-17.75,0-.12-2.66-10.43-7.37-14.05-.79-.61-1.75-.94-2.75-.95h.01Z" fill="#002346"></path>
  <circle cx="386.92" cy="430.19" r="8.68" fill="#002346"></circle>
  <path d="M368.58,423.4h0c-.31-.02-.54-.29-.52-.6l.2-2.48c.02-.31,.29-.54,.6-.52,.31,.03,.54,.3,.52,.61l-.19,2.47c-.02,.31-.29,.54-.6,.52h-.01Z" fill="#002346"></path>
  <path d="M334.93,329.23h0c9.39,0,16.99,7.61,16.99,17v21.1c0,9.39-7.61,17-16.99,17h0c-9.39,0-16.99-7.61-16.99-17v-21.1c0-9.39,7.61-17,16.99-17Z" fill="#f2b3c1"></path>
  <path d="M336.11,384.89h-2.36c-9.04-.01-16.36-7.34-16.38-16.38v-23.47c0-9.04,7.33-16.37,16.38-16.38h2.36c9.04,0,16.37,7.33,16.38,16.38v23.47c-.01,9.04-7.34,16.36-16.38,16.38Zm-2.36-55.15c-8.42,.01-15.24,6.83-15.25,15.25v23.47c.01,8.42,6.83,15.24,15.25,15.25h2.36c8.42-.01,15.24-6.83,15.25-15.25v-23.41c-.01-8.42-6.83-15.24-15.25-15.25l-2.36-.06Z" fill="#002346"></path>
  <path d="M344.35,345.22c-8.4-.4-16.83-.04-25.17,1.08,0,0,3.71,7.45,1.4,11.49l-5.05,13.19-.23,19.71s-21.12,7.29-27.63,21.26l-6.52,15.22s-18.16-6.21-11.32-22.2c2.55-4.91,6.15-9.2,10.55-12.57,0,0,11.18-9,10.56-22.35,0,0,.78-52.77,39.11-46.41,0,0,23.9,1.55,25.29,22.66,0,0-.3,14.44,4.04,17.23,0,0,22.35,13.97,10.56,36.94,0,0-13.82-11.8-31.82-12.26v-4.21s13.35-2.33,13.81-16.68v-21.09l-3.38-.08" fill="#002346"></path>
  <path d="M338.12,384v6.99l.08,.16c1.85,3.88,.21,8.53-3.68,10.38-1.05,.5-2.2,.76-3.37,.76h-9c-4.29,.02-7.79-3.43-7.81-7.72,0-.73,.09-1.45,.29-2.15,.18-.59,.41-1.18,.66-1.74l.23-19.71c.95-.08,1.88-.34,2.72-.78,0,0,1.87,15.53,19.88,13.81h0Z" fill="#f2b3c1"></path>
  <path id="e" d="M331.15,402.87h-9c-2.65-.01-5.15-1.26-6.75-3.38-1.55-2.05-2.02-4.72-1.27-7.18,.17-.58,.38-1.15,.63-1.7l.23-20.11h.51c.86-.06,1.69-.29,2.45-.69l.77-.51,.1,.91c.08,.61,2.03,14.95,19.26,13.32l.62-.06v7.52c1.25,2.56,1.09,5.59-.44,8-1.54,2.42-4.22,3.89-7.09,3.87h-.02Zm-15.06-31.38l-.28,19.45c-.24,.54-.45,1.1-.63,1.67-.64,2.12-.22,4.43,1.13,6.19,1.37,1.87,3.55,2.97,5.86,2.96h9c2.5,.01,4.83-1.26,6.17-3.38,1.31-2.08,1.45-4.7,.37-6.91l-.14-.27v-6.51c-15.45,1.13-19.05-10.46-19.72-13.6-.57,.19-1.17,.32-1.77,.39h.01Z" fill="#002346"></path>
  <path d="M338.12,384v6.99s-13.19-1.55-15.68-11.95c0,.01,5.28,6.37,15.68,4.96h0Z" fill="#002346"></path>
  <ellipse cx="315.53" cy="362.75" rx="6.28" ry="8.23" fill="#f2b3c1"></ellipse>
  <path id="f" d="M315.53,371.54c-3.77,0-6.84-3.94-6.84-8.79s3.07-8.79,6.84-8.79,6.85,3.95,6.85,8.79-3.02,8.79-6.85,8.79Zm0-16.46c-3.15,0-5.72,3.44-5.72,7.67s2.57,7.67,5.72,7.67,5.73-3.43,5.73-7.67-2.57-7.67-5.73-7.67Z" fill="#002346"></path>
  <path d="M375.81,419.82s-.26,13.45,9.39,12.44c0,0,7.62,.51,3.56-13.71,0,0-5.55-17.47-17.57-15.98-2.55,.35-4.83,1.8-6.22,3.96-2.45,3.67-5.72,9.87-.57,10.75,0,0,.25,3.05,3.3,1.53-.04,1.03,.76,1.9,1.79,1.94,.46,.02,.9-.13,1.26-.42,0,0,2.15,4.1,5.08-.51h-.02Z" fill="#f2b3c1"></path>
  <path id="g" d="M384.13,432.88c-1.88,.04-3.7-.65-5.08-1.92-2.84-2.6-3.57-7.15-3.75-9.55-.59,.71-1.46,1.12-2.39,1.13-.99-.12-1.87-.68-2.4-1.52-.67,.34-1.46,.34-2.13,0-.56-.33-.97-.87-1.13-1.5-.7,.31-1.5,.29-2.18-.06-.63-.41-1.06-1.05-1.2-1.78-1.1-.19-2.03-.9-2.5-1.91-1.13-2.49,1.13-6.61,3.1-9.62,1.51-2.28,3.95-3.79,6.66-4.13,12.38-1.53,17.94,15.63,18.18,16.37,1.72,6.02,1.62,10.27-.29,12.63-.93,1.17-2.35,1.83-3.84,1.81-.37,.03-.72,.06-1.06,.06h.01Zm-7.72-15.06v2c0,.07-.09,7.06,3.44,10.3,1.45,1.29,3.4,1.86,5.32,1.56,1.17,.02,2.28-.5,3.01-1.41,1.13-1.43,2.07-4.59,.07-11.58,0-.16-5.54-17-16.96-15.58-2.39,.34-4.52,1.69-5.83,3.71-2.61,3.93-3.68,6.97-3.01,8.55,.4,.78,1.19,1.28,2.06,1.33l.43,.08v.43c.04,.52,.3,1,.71,1.32,.6,.19,1.26,.1,1.79-.25l.73-.37,.08,.82c.03,.52,.28,1.01,.69,1.34,.52,.15,1.09,.06,1.53-.26l.5-.27,.27,.51c.19,.37,.9,1.34,1.74,1.37s1.54-.63,2.35-1.92l1.08-1.69h0Z" fill="#002346"></path>
  <path d="M364.39,417.84s-.11,.01-.16,0c-.29-.08-.47-.38-.39-.68h0l2.25-8.13c.08-.3,.39-.47,.69-.39,.3,.09,.47,.4,.39,.7l-2.25,8.13c-.07,.23-.3,.39-.54,.38h.01Z" fill="#002346"></path>
  <path d="M367.69,419.37h-.16c-.3-.09-.47-.4-.38-.7l1.78-6.1c.09-.31,.41-.49,.72-.41,.31,.09,.49,.41,.41,.72l-1.78,6.1c-.08,.25-.32,.41-.59,.38h0Z" fill="#002346"></path>
  <path d="M370.74,420.89c-.06,.01-.13,.01-.19,0-.29-.1-.45-.42-.35-.71l2.04-5.84c.08-.3,.38-.48,.68-.41,.3,.08,.48,.38,.41,.68,0,.03-.02,.06-.03,.09l-2.03,5.83c-.09,.21-.3,.35-.53,.35h0Z" fill="#002346"></path>
  <path d="M375.81,420.38h-.17c-.3-.1-.46-.41-.37-.71l1.78-5.83c.04-.17,.17-.3,.33-.36,.15-.07,.33-.07,.48,0l4.57,2.54c.26,.17,.34,.52,.17,.78-.15,.24-.47,.33-.72,.2l-3.98-2.19-1.54,5.21c-.09,.22-.3,.36-.54,.36h0Z" fill="#002346"></path>
  <path d="M357.8,629.92c-.4,0-.81-.03-1.2-.1-6.43-1-9.65-9.61-9.78-9.98-.11-.29,.05-.61,.34-.72,.28-.11,.6,.03,.71,.32v.02c0,.08,3.13,8.36,8.89,9.26,3.7,.56,7.77-1.96,12.08-7.53,.2-.23,.56-.26,.79-.05,.21,.19,.25,.5,.1,.74-4.14,5.35-8.15,8.05-11.93,8.05h0Z" fill="#002346"></path>
  <path d="M368.41,422.88h.34c1.24,0,2.25,1.01,2.25,2.25v4.11h-4.83v-4.11c0-1.24,1-2.25,2.24-2.25Z" fill="#fff"></path>
  <path id="h" d="M371,429.78h-4.83c-.31,0-.56-.25-.56-.56v-4.1c0-1.55,1.25-2.8,2.8-2.8h.34c1.55,0,2.81,1.24,2.81,2.79h0v4.11c0,.31-.25,.56-.56,.56h0Zm-4.27-1.13h3.7v-3.53c0-.93-.76-1.68-1.69-1.68h-.34c-.93,0-1.68,.75-1.68,1.68v3.53h0Z" fill="#002346"></path>
  <circle cx="369.21" cy="436.88" r="10.66" fill="#fbe493"></circle>
  <path id="i" d="M369.21,448.16c-6.22,0-11.26-5.04-11.26-11.26s5.04-11.26,11.26-11.26,11.26,5.04,11.26,11.26-5.04,11.26-11.26,11.26Zm0-21.33c-5.59,0-10.13,4.54-10.13,10.13s4.54,10.13,10.13,10.13,10.13-4.54,10.13-10.13c.03-5.59-4.48-10.16-10.07-10.19h-.06v.06Z" fill="#002346"></path>
  <path d="M351.84,531.52c-2.43,.04-4.68,1.31-5.97,3.38,0,0-12.18-3.38-15.04,4.4l-18.92-57.54s-8.49-22.8-.79-33.68c3.46-4.86,10.21-6,15.07-2.53,.03,.02,.05,.04,.08,.06,3.59,2.54,7.88,7.6,11.82,17.49,0,0,11.15,25.66,13.74,68.42h.01Z" fill="#f2b3c1"></path>
  <path d="M330.83,539.86h0c-.24,0-.45-.16-.53-.38l-18.92-57.55c-.35-.92-8.5-23.19-.71-34.16,1.74-2.48,4.4-4.15,7.4-4.63,2.99-.49,6.06,.23,8.52,2,4.63,3.28,8.67,9.25,12.03,17.74,.1,.24,11.26,26.23,13.78,68.61,0,.16-.05,.32-.17,.44-.11,.12-.28,.18-.44,.16-2.23,.06-4.29,1.24-5.46,3.14-.14,.19-.38,.28-.61,.21-.12,0-11.72-3.14-14.36,4.06-.08,.22-.29,.36-.53,.36Zm-10.93-95.74c-.55,0-1.11,.04-1.65,.12-2.69,.44-5.09,1.94-6.66,4.16-7.44,10.5,.78,32.92,.86,33.15l18.49,56.28c3.38-5.88,12.69-4.02,14.71-3.52,1.32-1.85,3.37-3.05,5.63-3.28-2.62-41.83-13.51-67.41-13.66-67.67-3.28-8.3-7.19-14.09-11.63-17.24-1.77-1.29-3.89-1.99-6.08-2h0Z" fill="#002346"></path>
  <path d="M259.97,534.83l16.96,6.75s38.27-64.73,28.67-90.94c0,0-4.63-13.26-14.5-11.41,0,0-8.32,.62-12.02,19.43l-19.11,76.17h0Z" fill="#f2b3c1"></path>
  <path id="j" d="M276.93,542.13c-.07,.02-.14,.02-.21,0l-16.95-6.75c-.27-.1-.41-.39-.34-.66l19.14-76.15c3.74-18.98,12.17-19.81,12.53-19.84,10.13-1.91,15.02,11.65,15.06,11.78,9.53,26.15-27.15,88.76-28.71,91.41-.12,.15-.31,.23-.51,.21h-.01Zm-16.3-7.69l16.05,6.43c3.24-5.63,37.35-65.49,28.39-90.05-.06-.14-4.58-12.78-13.86-11.05-.15,0-8.03,.92-11.58,18.98l-19,75.7h0Z" fill="#002346"></path>
  <path d="M281.22,554.19c-1.5,3.53-4.96,5.83-8.8,5.83h0c-1.28,0-2.55-.26-3.74-.77l-14.11-6c-.91-.37-1.75-.89-2.49-1.54-4.04-3.4-4.56-9.44-1.15-13.48,1.83-2.18,4.54-3.42,7.39-3.4,1.28,0,2.55,.25,3.73,.75l14.11,6c4.87,2.05,7.15,7.67,5.1,12.53-.01,.02-.02,.05-.03,.07h-.01Z" fill="#fff"></path>
  <path id="k" d="M272.42,560.59c-1.36,0-2.71-.27-3.96-.81l-14.13-6c-.96-.4-1.85-.96-2.63-1.64-4.24-3.65-4.72-10.04-1.07-14.29,2.87-3.34,7.58-4.44,11.63-2.72l14.11,6c5.15,2.19,7.55,8.13,5.37,13.28h0c-1.59,3.74-5.25,6.18-9.32,6.18h0Zm-14.11-25.13c-4.97,0-9.01,4.02-9.01,8.99,0,2.63,1.14,5.13,3.14,6.84,.7,.6,1.49,1.09,2.34,1.45l14.13,6c1.11,.48,2.3,.72,3.51,.72,3.61,0,6.88-2.16,8.3-5.48h0c1.94-4.58-.19-9.86-4.77-11.81h0l-14.11-6c-1.11-.47-2.3-.72-3.51-.72h-.02Z" fill="#002346"></path>
  <path d="M361.01,548.54c-.44,.42-.92,.79-1.43,1.13-7.41,5.19-20.26,4.99-20.26,4.99-.68,0-1.37-.03-2.05-.12-11.54-1.43-6.42-15.23-6.42-15.23,3.23-8.61,15.04-4.4,15.04-4.4,3.38-3.48,5.97-3.38,5.97-3.38,6.31-.38,9.49,1.97,11.05,4.61,2.39,4.06,1.59,9.24-1.9,12.4Z" fill="#fff"></path>
  <path id="l" d="M339.63,555.22h-.28c-.71,0-1.41-.04-2.12-.12-2.72-.15-5.2-1.59-6.69-3.86-2.87-4.73-.28-11.83-.17-12.12,3.06-8.17,13.38-5.47,15.4-4.85,3.38-3.38,6.03-3.29,6.15-3.29,6.85-.41,10.05,2.43,11.51,4.9,2.54,4.29,1.68,9.78-2.04,13.09-.47,.43-.98,.82-1.51,1.18-6.99,4.85-18.34,5.08-20.26,5.08h.01Zm.09-20.82c-3.2,0-6.75,1.01-8.3,5.1,0,.06-2.51,6.89,.08,11.14,1.31,2,3.49,3.25,5.88,3.38,.66,.09,1.32,.13,1.98,.12,.14,0,12.73,.14,19.9-4.89,.49-.34,.95-.71,1.38-1.13h0c3.27-2.98,4.04-7.84,1.83-11.68-1.9-3.2-5.46-4.66-10.55-4.34-.08,0-2.45,0-5.63,3.2-.16,.15-.38,.2-.59,.14-1.96-.66-4.02-1.01-6.09-1.04h.11Z" fill="#002346"></path>
  <path d="M367.77,437.64h-.16l-8.73-2.52c-.31-.08-.49-.4-.41-.71s.4-.49,.71-.41l8.25,2.39,1.56-3.85c.07-.17,.21-.3,.39-.34,.18-.04,.37,0,.51,.12l2.42,2.18,4.5-3.98c.22-.22,.58-.21,.8,.02s.21,.58-.02,.8c-.01,.01-.02,.02-.04,.03l-4.89,4.32c-.21,.19-.54,.19-.75,0l-2.19-1.99-1.45,3.58c-.07,.22-.28,.37-.51,.37h.01Z" fill="#002346"></path>
  <path d="M368.89,443.16h-.15l-9.93-2.88c-.3-.08-.47-.39-.39-.69,.09-.3,.4-.47,.7-.39l9.44,2.69,1.8-4.38c.07-.17,.22-.3,.39-.34,.18-.04,.36,0,.5,.12l2.81,2.51,5.18-4.5c.24-.21,.59-.18,.8,.06s.18,.59-.06,.8l-5.56,4.85c-.21,.18-.53,.18-.74,0l-2.59-2.31-1.68,4.12c-.09,.21-.3,.34-.53,.34h0Z" fill="#002346"></path>
  <path d="M259.36,528c-.97,1.51-3.22,2.78-4.19,3.59-2.6,2.11-6.24,2.37-9.12,.66-11.31-6.46-5.55-20.79-5.55-20.79,0,0,.2,16.53,18.85,16.53h.01Z" fill="#002346"></path>
  <path d="M543.08,549.52v4.19c.04,1.21-.91,2.21-2.11,2.25h-72.7c-1.2-.02-2.16-1-2.14-2.2v-4.24c-.04-1.21,.91-2.21,2.11-2.25h72.68c1.2,.05,2.15,1.05,2.15,2.25h0Z" fill="#f69074"></path>
  <path id="m" d="M540.93,556.49h-72.66c-1.51-.02-2.72-1.27-2.7-2.78v-4.19c-.02-1.51,1.19-2.76,2.7-2.78h72.66c1.52,.02,2.73,1.26,2.71,2.78h0v4.19c.02,1.52-1.2,2.76-2.71,2.78h0Zm-72.66-8.62c-.89,.02-1.59,.76-1.58,1.65v4.19c-.02,.89,.69,1.63,1.58,1.65h72.66c.9-.02,1.61-.76,1.59-1.65h0v-4.19c.02-.89-.69-1.64-1.59-1.65h-72.66Z" fill="#002346"></path>
  <path d="M502.61,549.52v4.19c0,1.23-1.33,2.25-2.97,2.25h-30.57c-1.64,0-2.97-.99-2.97-2.25v-4.19c0-1.22,1.33-2.25,2.97-2.25h30.54c1.68,.03,3.01,1.07,3.01,2.25h-.01Z" fill="#f69074"></path>
  <path id="n" d="M499.64,556.49h-30.57c-1.96,0-3.53-1.25-3.53-2.78v-4.19c0-1.53,1.58-2.78,3.53-2.78h30.54c1.95,0,3.53,1.25,3.53,2.78v4.19c.03,1.53-1.55,2.78-3.5,2.78Zm-30.57-8.62c-1.31,0-2.41,.77-2.41,1.65v4.19c0,.9,1.13,1.65,2.41,1.65h30.54c1.31,0,2.41-.75,2.41-1.65v-4.19c0-.89-1.13-1.65-2.41-1.65h-30.54Z" fill="#002346"></path>
  <rect x="518.54" y="547.3" width="6.64" height="8.62" fill="#002346"></rect>
  <rect x="483.61" y="547.3" width="6.74" height="8.62" fill="#002346"></rect>
  <circle cx="604.56" cy="204.97" r="9.39" transform="translate(-27.85 118.02) rotate(-10.9)" fill="#002346"></circle>
  <g opacity=".2">
    <path d="M605.81,212.27c-.25,.92-1.7,1.34-3.24,.92s-2.6-1.5-2.35-2.42,1.7-1.34,3.24-.93,2.6,1.5,2.35,2.43Z"></path>
  </g>
  <path d="M600.35,196.64l-.23-1.79,5.72-.71,.23,1.79c.19,1.58-5.53,2.35-5.72,.71Z" fill="#f69074"></path>
  <path id="o" d="M602.44,198.09c-1.29,0-2.52-.35-2.66-1.38h0l-.29-2.34,6.83-.86,.3,2.35c.16,1.28-1.63,1.97-3.21,2.16-.32,.05-.65,.07-.98,.07h0Zm-1.54-1.52c0,.19,.87,.53,2.39,.34s2.25-.72,2.25-.91l-.15-1.24-4.6,.59,.11,1.23h0Z" fill="#002346"></path>
  <path id="p" d="M602.14,188.88c-1.04,.14-1.71,1.49-1.52,3.04s1.13,2.68,2.25,2.56,1.71-1.49,1.52-3.03-1.22-2.69-2.25-2.57h0Zm.68,5.39c-.72,.09-1.42-.78-1.56-1.95-.15-1.17,.32-2.18,1.04-2.25s1.41,.78,1.55,1.95c.15,1.17-.32,2.17-1.02,2.25h0Z" fill="#f69074"></path>
  <path d="M605.82,193.21c.08,.62-1.13,1.29-2.8,1.5-1.68,.2-3.02-.14-3.1-.77-.08-.63,1.13-1.31,2.81-1.51,1.69-.2,3.01,.15,3.08,.78h0Z" fill="#f69074"></path>
  <path id="q" d="M602.1,195.34c-1.37,0-2.62-.38-2.74-1.33,0-.32,0-.93,1.05-1.47,.71-.35,1.47-.57,2.25-.65,1.7-.21,3.58,.09,3.73,1.25h0c.15,1.13-1.61,1.91-3.3,2.13-.33,.05-.66,.08-.99,.08h0Zm1.54-2.41c-.28,0-.56,.02-.84,.06-.86,0-1.69,.33-2.32,.91,.78,.32,1.64,.41,2.47,.25,.83-.04,1.62-.35,2.25-.88-.47-.26-1.01-.38-1.55-.34h0Z" fill="#002346"></path>
  <path d="M669.36,533.43c-2.61,3.82,6.75,4.5,16.44,4.57h0c4.76,0,9.61-.1,13.2-.1l.21-.06h5.25c2.39-.42,3.31-2.94,3.65-5.05,.25-1.15,.25-2.34,0-3.49-.06-.23-.1-.46-.14-.69,0-.25-.02-.5-.07-.74h.11l.42-.24c.1-.06,.2-.12,.29-.19,.65-.44,1.19-1.03,1.59-1.71,.11-.16,.21-.34,.29-.52,.09-.19,.17-.38,.25-.59,.07-.16,.13-.33,.17-.5,.07-.19,.13-.38,.17-.57,0-.23,.15-.72,.25-1.45v-.38c.09-.54,.17-1.19,.28-1.95,.08-.56,.16-1.13,.26-1.86v-.28c.11-.81,.24-1.71,.36-2.69v-.27l.14-1.13v-.32c.08-.59,.15-1.19,.24-1.82,0-.32,.08-.64,.12-.96,.12-.98,.26-2,.39-3.06v-.2c.32-2.43,.65-5.11,1.01-7.97,.16-1.27,.32-2.57,.5-3.91,.33-2.65,.66-5.4,1.04-8.3l.24-1.95c.97-7.88,2.05-16.59,3.17-25.89v-.18c.46-3.79,.95-7.68,1.42-11.62,0-.35,.09-.7,.12-1.05,.26-2.06,.51-4.13,.77-6.22,.1-.82,.2-1.63,.29-2.47,.7-5.74,1.41-11.57,2.12-17.42v-.34c.46-3.83,.93-7.68,1.4-11.53,0-.24,.06-.46,.09-.69,.2-1.68,.41-3.38,.6-5.02,.51-4.16,1-8.32,1.5-12.38,.11-.82,.2-1.63,.3-2.45,.38-3.23,.76-6.43,1.13-9.58,.17-1.22,.32-2.44,.44-3.64l.44-3.58c.09-.78,.19-1.55,.28-2.33l1.35-11.26c.7-5.85,1.36-11.44,1.99-16.59,.1-.84,.2-1.68,.29-2.5,.09-.82,.23-1.91,.34-2.85s.17-1.52,.23-2.25c3.22-41.93-55.73-26.51-67.54-1.56,.5,6.18,2.43,35.58,3.83,52.12,1.05,12.54,2.25,27.01,3.5,41.84l8.53,101.06h-.07c-.57,.01-9.46,1.31-13.17,6.73v.03Z" fill="#fbe493"></path>
  <path id="r" d="M686.94,538.57h-1.13c-10.99,0-16.14-.97-17.23-3.05-.37-.79-.24-1.73,.33-2.4,3.48-5.08,11.26-6.66,13.34-7.01-.47-5.63-4.63-54.72-8.48-100.53l-3.51-41.84c-.91-10.81-2.04-27.01-2.87-38.82-.44-6.22-.79-11.15-.96-13.29v-.15l.07-.14c7.78-16.39,35.04-28.65,53.04-23.86,11.11,2.96,16.65,12.09,15.61,25.7,0,.74-.14,1.51-.24,2.25l-.33,2.85c-.11,.83-.21,1.66-.3,2.5-.42,3.47-.86,7.12-1.31,10.92l-.68,5.63c-.44,3.67-.9,7.44-1.36,11.26-.08,.77-.18,1.55-.27,2.33l-.44,3.58c-.14,1.19-.28,2.42-.44,3.65l-1.13,9.57c-.09,.82-.19,1.63-.29,2.45-.5,4.1-1,8.26-1.5,12.38l-.7,5.71c-.36,3.1-.74,6.18-1.13,9.26l-.27,2.25v.38l-.81,6.75c-.44,3.58-.87,7.15-1.29,10.67v.38c-.08,.7-.17,1.4-.26,2.08l-.75,6.22c0,.37-.08,.72-.12,1.06l-1.42,11.6v.23c-1.13,9.21-2.19,17.93-3.16,25.8-.08,.65-.16,1.31-.25,1.96-.35,2.81-.69,5.49-1,8.07v.21c-.17,1.34-.34,2.63-.48,3.91l-1.01,7.97-.59,.14,.56,.07-.39,3.07c0,.29-.08,.59-.11,.87-.08,.56-.14,1.01-.2,1.46l-.06,.44c.01,.12,.01,.23,0,.35l-.14,1.07c.01,.11,.01,.22,0,.33l-.35,2.65v.18l-.36,2.6c-.08,.5-.14,.93-.19,1.32v.28c-.07,.54-.16,1.07-.28,1.6-.04,.21-.1,.43-.18,.63-.04,.18-.1,.36-.18,.53,0,.16-.14,.34-.21,.51-.1,.24-.23,.46-.37,.68-.43,.75-1.03,1.39-1.74,1.88l-.32,.2-.24,.14v.34c.03,.22,.07,.43,.12,.64,.26,1.22,.26,2.48,0,3.7-.53,3.23-1.95,5.14-4.12,5.53h-10.74c-2.49,.29-4.84,.33-7.19,.33v-.03Zm-19.37-206.88c.18,2.25,.52,7.07,.95,13.15,.82,11.82,1.96,28,2.87,38.81l3.5,41.84c4.1,48.65,8.53,101.06,8.53,101.06v.54l-.54,.07c-1.01,.14-9.53,1.42-13.08,6.6h0c-.52,.75-.33,1.13-.26,1.25,.82,1.56,6.28,2.4,16.24,2.44h18.66c1.98-.35,2.79-2.69,3.1-4.58,.22-1.07,.22-2.18,0-3.25-.06-.24-.11-.49-.15-.74-.04-.26-.07-.53-.08-.8v-.42l.38-.15c.15-.07,.3-.16,.44-.25,.09-.04,.17-.09,.25-.16,.59-.4,1.09-.92,1.44-1.54,.1-.15,.19-.32,.27-.48,.08-.17,.16-.35,.23-.53,.07-.14,.12-.29,.16-.44,.07-.18,.12-.37,.16-.56,.06-.23,.15-.7,.25-1.41v-.38c.06-.38,.12-.82,.18-1.29l.74-5.47v-.2l.15-1.13v-.27l.07-.55c0-.45,.12-.91,.19-1.38s.08-.66,.12-.96l1.42-11.26c.16-1.26,.33-2.57,.5-3.91v-.2c.33-2.58,.65-5.27,1.01-8.08,.09-.65,.17-1.29,.24-1.95,.98-7.88,2.05-16.59,3.19-25.89v-.18l1.43-11.62c0-.34,.08-.68,.11-1l.77-6.27c.09-.7,.17-1.38,.26-2.08v-.38c.42-3.52,.86-7.09,1.28-10.67l.82-6.75v-.3l.28-2.25,1.13-9.26,.7-5.71c.5-4.16,.99-8.32,1.5-12.38,.1-.82,.2-1.63,.29-2.44l1.13-9.59c.16-1.22,.3-2.43,.44-3.64l.43-3.58c.1-.78,.19-1.55,.28-2.32,.46-3.87,.91-7.62,1.35-11.26l.69-5.63c.45-3.8,.89-7.46,1.31-10.93,.1-.84,.2-1.68,.29-2.5l.34-2.85c.1-.75,.17-1.51,.23-2.25,1.28-16.68-7.33-22.51-14.78-24.53-16.86-4.83-43.88,7.25-51.37,22.85h-.04Z" fill="#002346"></path>
  <path d="M685.81,538c4.76,0,9.61-.1,13.2-.1l.21-.06h5.25c2.39-.42,3.31-2.94,3.65-5.05,.25-1.15,.25-2.34,0-3.49-.06-.23-.1-.46-.14-.69,0-.25-.02-.5-.07-.74h.11l.42-.24c.1-.06,.2-.12,.29-.19,.65-.44,1.19-1.03,1.59-1.71,.11-.16,.21-.34,.29-.52,.09-.19,.17-.38,.25-.59,.07-.16,.13-.33,.17-.5,.07-.19,.13-.38,.17-.57,0-.23,.15-.72,.25-1.45v-.38c.09-.54,.17-1.19,.28-1.95,.08-.56,.16-1.13,.26-1.86v-.28c.11-.81,.24-1.71,.36-2.69v-.27l.14-1.13v-.32c.08-.59,.15-1.19,.24-1.82,0-.32,.08-.64,.12-.96,.12-.98,.26-2,.39-3.06v-.2c.32-2.43,.65-5.11,1.01-7.97,.16-1.27,.32-2.57,.5-3.91,.33-2.65,.66-5.4,1.04-8.3l.24-1.95c.97-7.88,2.05-16.59,3.17-25.89v-.18c.46-3.79,.95-7.68,1.42-11.62,0-.35,.09-.7,.12-1.05,.26-2.06,.51-4.13,.77-6.22,.1-.82,.2-1.63,.29-2.47,.7-5.74,1.41-11.57,2.12-17.42v-.34c.46-3.83,.93-7.68,1.4-11.53,0-.24,.06-.46,.09-.69,.2-1.68,.41-3.38,.6-5.02,.51-4.16,1-8.32,1.5-12.38,.11-.82,.2-1.63,.3-2.45,.38-3.23,.76-6.43,1.13-9.58,.17-1.22,.32-2.44,.44-3.64l.44-3.58c.09-.78,.19-1.55,.28-2.33l1.35-11.26c.7-5.85,1.36-11.44,1.99-16.59,.1-.84,.2-1.68,.29-2.5s.23-1.91,.34-2.85,.17-1.52,.23-2.25l-4.23,3.38s-6.75,22.03-19.07,31.35l-7.44,160.61-17.73,9.41-.02,.04Z" fill="#fbe493"></path>
  <path id="s" d="M686.94,538.57h-3.38l19.71-10.41,7.44-160.55,.21-.16c12-9.11,18.8-30.85,18.86-31.07v-.17l5.38-4.31-.09,1.28c0,.74-.14,1.51-.24,2.25l-.33,2.85c-.11,.83-.21,1.66-.3,2.5-.42,3.47-.86,7.12-1.31,10.92l-.68,5.63c-.44,3.67-.9,7.44-1.36,11.26-.08,.77-.18,1.55-.27,2.33l-.44,3.58c-.14,1.19-.28,2.42-.44,3.65l-1.13,9.57c-.09,.82-.19,1.63-.29,2.45-.5,4.1-1,8.26-1.5,12.38l-.7,5.71c-.36,3.1-.74,6.18-1.13,9.26l-.27,2.25v.38l-.81,6.75c-.44,3.58-.87,7.15-1.29,10.67v.38c-.08,.7-.17,1.4-.26,2.08l-.75,6.22c0,.37-.08,.72-.12,1.06l-1.42,11.6v.23c-1.13,9.21-2.19,17.93-3.16,25.8-.08,.65-.16,1.31-.25,1.96-.35,2.81-.69,5.49-1,8.07v.21c-.17,1.34-.34,2.63-.48,3.91l-1.01,7.97-.59,.14,.56,.07-.39,3.07c0,.29-.08,.59-.11,.87-.08,.56-.14,1.01-.2,1.46l-.06,.44c.01,.12,.01,.23,0,.35l-.14,1.07c.01,.11,.01,.22,0,.33l-.35,2.65v.18l-.36,2.6c-.08,.5-.14,.93-.19,1.32v.28c-.07,.54-.16,1.07-.28,1.6-.04,.21-.1,.43-.18,.63-.04,.18-.1,.36-.18,.53,0,.16-.14,.34-.21,.51-.1,.24-.23,.46-.37,.68-.43,.75-1.03,1.39-1.74,1.88l-.32,.2-.24,.14v.34c.03,.22,.07,.43,.12,.64,.26,1.22,.26,2.48,0,3.7-.53,3.23-1.95,5.14-4.12,5.53h-10.74c-2.42,.29-4.77,.33-7.13,.33l.03-.03Zm24.88-170.39l-7.44,160.67-16.29,8.59h16.39c1.98-.35,2.79-2.69,3.1-4.58,.22-1.07,.22-2.18,0-3.25-.06-.24-.11-.49-.15-.74-.04-.26-.07-.53-.08-.8v-.42l.38-.15c.15-.07,.3-.16,.44-.25,.09-.04,.17-.09,.25-.16,.59-.4,1.09-.92,1.44-1.54,.1-.15,.19-.32,.27-.48,.08-.17,.16-.35,.23-.53,.07-.14,.12-.29,.16-.44,.07-.18,.12-.37,.16-.56,.06-.23,.15-.7,.25-1.41v-.38c.06-.38,.12-.82,.18-1.29l.74-5.47v-.2l.15-1.13v-.27l.07-.55c0-.45,.12-.91,.19-1.38s.08-.66,.12-.96l1.42-11.26c.16-1.26,.33-2.57,.5-3.91v-.2c.33-2.58,.65-5.27,1.01-8.08,.09-.65,.17-1.29,.24-1.95,.98-7.88,2.05-16.59,3.19-25.89v-.18l1.43-11.62c0-.34,.08-.68,.11-1l.77-6.27c.09-.7,.17-1.38,.26-2.08v-.38c.42-3.52,.86-7.09,1.28-10.67l.82-6.75v-.3l.28-2.25,1.13-9.26,.7-5.71c.5-4.16,.99-8.32,1.5-12.38,.1-.82,.2-1.63,.29-2.44l1.13-9.59c.16-1.22,.3-2.43,.44-3.64l.43-3.58c.1-.78,.19-1.55,.28-2.32,.46-3.87,.91-7.62,1.35-11.26l.69-5.63c.45-3.8,.89-7.46,1.31-10.93,.1-.84,.2-1.68,.29-2.5l.34-2.85c0-.3,.08-.62,.11-.92l-3.07,2.47c-.45,1.9-7.02,21.94-18.75,31.02h-.04Z" fill="#002346"></path>
  <path d="M653.98,181.51c1.05,2.38,.48,4.65,.56,7.27,.1,3.79,.68,9.36,4.21,11.62,1.64,1.11,3.43,1.97,5.32,2.56,.59,.17,1.19,.27,1.8,.3,1.61,.03,2.96,1.24,3.16,2.84l.55,4.64,1.13,9.42c3.41,1.64,7.09,2.62,10.86,2.88,4.84,.3,9.19-2.96,10.25-7.69l7.41-31.17c1.77-4.85,5.63-10.37,2.25-14.27-6.25-7.32-17.4-17.2-29.46-12.88-4.23,1.6-7.87,4.44-10.47,8.14-1.5,1.97-2.72,4.13-3.65,6.43-.74,2.03-.81,3.89-3.12,4.87-3.17,1.33-1.87,2.68-.82,5.04h.02Z" fill="#f2b3c1"></path>
  <path id="t" d="M682.29,223.63h-.79c-3.85-.27-7.61-1.27-11.08-2.95l-.26-.14-1.68-14.39c-.17-1.32-1.29-2.32-2.62-2.34-.66-.03-1.31-.14-1.95-.33-1.94-.6-3.78-1.49-5.47-2.62-2.84-1.8-4.3-5.75-4.5-12.08v-2.25c.21-1.63,.02-3.29-.55-4.83h0c-.15-.35-.3-.68-.46-.98-.53-1.13-1-2.06-.64-3.01,.47-.89,1.28-1.54,2.25-1.8,1.61-.69,1.95-1.79,2.42-3.32,.12-.41,.25-.81,.41-1.23,.93-2.35,2.18-4.56,3.71-6.57,2.67-3.78,6.4-6.69,10.73-8.34,12.61-4.5,24.26,6.24,30.08,13.05,2.85,3.38,.98,7.56-.83,11.65-.47,1.06-.96,2.16-1.34,3.19l-7.38,31.1c-1.04,4.73-5.2,8.12-10.04,8.18h0Zm-11.08-3.84c3.27,1.51,6.79,2.42,10.38,2.69,4.57,.24,8.65-2.84,9.67-7.31l7.43-31.11c.41-1.13,.9-2.25,1.37-3.38,1.74-3.95,3.38-7.67,1.01-10.47-5.63-6.58-16.88-17.01-28.84-12.71-4.12,1.57-7.68,4.34-10.21,7.95-1.47,1.93-2.67,4.04-3.57,6.29-.15,.39-.26,.79-.38,1.13-.47,1.54-.96,3.14-3.05,4.03-.91,.38-1.44,.78-1.59,1.13s.16,1.22,.6,2.12c.16,.32,.33,.65,.48,1.02,.64,1.7,.86,3.53,.64,5.34v2.15c.17,5.92,1.46,9.57,3.96,11.15,1.59,1.07,3.33,1.91,5.17,2.49,.55,.16,1.11,.25,1.68,.28,1.91,.04,3.49,1.48,3.7,3.38l1.54,13.83h.01Z" fill="#002346"></path>
  <path d="M664.08,202.95c.59,.17,1.19,.27,1.8,.3,1.61,.03,2.96,1.24,3.16,2.84l.55,4.64c5.22-8.5,8.51-19.01,6.58-15.26-3.83,7.47-8.39,6.33-12.1,7.49h.01Z" fill="#002346"></path>
  <path d="M656.41,270.91c.17,1.61,.32,3.2,.42,4.74,.09,1.19,.17,2.37,.24,3.55,.82,13.1,1.18,26.4,2.79,39.4,1.32,10.7,10.13,17,19.68,21.53,10.49,4.99,22.29,6.47,33.89,6.75,5.54,.12,11.47-.16,16.05-3.25,.19-.12,.37-.26,.55-.39,5.73-4.28,7.54-12.38,6.26-19.45-1.4-7.62-5.88-13.68-6.75-21.39-.89-7.45-2.4-14.81-4.5-22.01-5.12-18.52-11.81-36.58-19.98-53.97-3.73-7.95-12.93-15.07-21.03-18.23-12.62-4.92-26.59,8.59-29.27,19.7-3.13,12.99,.18,29.11,1.65,43.03h0Z" fill="#f69074"></path>
  <path id="u" d="M715.32,347.42h-1.9c-14.2-.3-25.04-2.45-34.13-6.75-7.88-3.75-18.53-10.13-19.99-21.96-1.13-9.45-1.68-19.19-2.18-28.61-.19-3.61-.38-7.23-.61-10.82-.07-1.18-.15-2.36-.23-3.55-.1-1.38-.24-2.93-.43-4.7h0c-.3-2.85-.68-5.73-1.13-8.78-1.51-11.81-3.08-24.02-.57-34.44,1.77-7.32,7.99-15.04,15.15-18.77,5.11-2.67,10.25-3.12,14.87-1.32,7.46,2.9,17.31,9.95,21.39,18.52,8.22,17.37,14.96,35.4,20.15,53.9,2.11,7.23,3.61,14.63,4.5,22.11,.57,3.94,1.71,7.78,3.38,11.39,1.44,3.21,2.53,6.57,3.28,10.01,1.47,8.12-1.06,15.97-6.47,20l-.57,.41c-4.18,2.81-9.35,3.38-14.5,3.38v-.02Zm-58.36-76.54c.19,1.79,.34,3.38,.43,4.75,.09,1.19,.16,2.37,.24,3.56,.23,3.59,.42,7.2,.61,10.83,.5,9.4,1.01,19.14,2.17,28.52,1.4,11.31,11.72,17.46,19.36,21.09,8.94,4.24,19.63,6.36,33.67,6.66,5.56,.12,11.26-.18,15.76-3.16l.54-.37c5.07-3.78,7.43-11.2,6.02-18.9-.72-3.36-1.8-6.64-3.21-9.78-1.72-3.72-2.9-7.66-3.5-11.71-.88-7.42-2.38-14.75-4.47-21.93-5.15-18.46-11.85-36.44-20.02-53.77-3.88-8.3-13.51-15.12-20.71-18.01-5.45-2.13-10.59-.48-13.95,1.27-6.89,3.59-12.88,11.01-14.58,18.01-2.45,10.23-.9,22.33,.61,34.05,.39,3.05,.75,5.93,1.06,8.79l-.02,.09h0Z" fill="#002346"></path>
  <path d="M704.84,216.17c6.75-5.04,10.52-14.1,8.69-22.39-1.56-7.1-6.43-12.63-7.65-19.92-.88-5.28-1.61-12.72-8.03-13.95-.59-.11-3.05-4.43-3.73-5.13-4.81-4.86-11.45-7.46-18.28-7.15-6.28,.35-12.94,1.53-17.56,6.18-2.06,2.06-4.67,5.5-4.59,8.55,.06,2.36,.95,7.37,3.88,7.64,1.42,.12,2.86-1.36,2.34-2.68,.71,1.56,1.41,3.13,2.12,4.7,.19,.6,.59,1.1,1.13,1.42,.91,.24,1.85-.31,2.08-1.23,.19-.89,.13-1.82-.17-2.68-.18,1.77,1.13,3.29,2.45,4.5,1.33,1.22,2.75,2.5,2.96,4.25,.21,1.76-.95,3.48-1.13,5.28-.21,2.75,1.69,3.28,3.19,4.92,1.12,1.46,2.03,3.07,2.69,4.78,4.05,8.6-8.42,17.18,1.77,23.54,7.76,4.84,18.13,5.32,25.98,.64,.65-.39,1.27-.82,1.86-1.29v.02Z" fill="#002346"></path>
  <path d="M587.57,214.18c1.51,4.72,6.28,8.48,9.52,12.02,4.66,5.08,29.86,58.53,38.36,59.92,3.25,.54,26.58-19.36,36.47-27.96,2.71-2.35,4.41-3.86,4.41-3.86l-21.39-19.03-3.49,4.21-15.25,18.46s-12.73-15.11-14.98-17.9c-3.95-4.91-12.2-12.2-11.26-19.14,.28-2.17,1.13-4.3,.9-6.47-.15-1.51-1.24-8.37-2.56-8.6-3.03-.53-2.63,5.85-2.25,7.38-.07-.25-2.25-1.74-2.68-2.25-.98-1.2-1.84-2.49-2.56-3.86-1.43-2.67-2.33-5.58-2.67-8.59-.08-.71-.21-1.56-.88-1.87-.71-.21-1.46,.13-1.77,.8-.27,.66-.43,1.36-.46,2.07-.83,5.83-9.36,8.82-7.49,14.67h.03Z" fill="#f2b3c1"></path>
  <path id="v" d="M635.53,286.68h-.17c-5.5-.92-16.26-19.96-28.71-42.86-4.5-8.37-8.46-15.59-9.96-17.22-.77-.83-1.6-1.65-2.48-2.53-2.8-2.79-5.99-5.97-7.18-9.7h0c-1.13-3.56,1.24-6.15,3.53-8.64,1.76-1.91,3.58-3.89,3.92-6.34l.06-.42c.03-.64,.19-1.26,.46-1.83,.45-.93,1.53-1.38,2.51-1.05,1,.45,1.13,1.67,1.2,2.32,.33,2.93,1.22,5.77,2.6,8.37,.7,1.34,1.53,2.6,2.49,3.76,.41,.38,.84,.73,1.29,1.06l.18,.14c-.16-1.83-.09-4.59,1.13-5.89,.5-.56,1.27-.81,2-.65,2.07,.35,3.02,9,3.03,9.09,.08,1.49-.09,2.98-.48,4.41-.16,.72-.33,1.46-.42,2.19-.71,5.35,4.36,11.02,8.43,15.59,1,1.13,1.95,2.18,2.74,3.15,1.98,2.47,12.28,14.7,14.53,17.38l18.7-22.51,22.29,19.84-.47,.43s-1.7,1.51-4.41,3.86c-14.87,12.81-33.15,28.05-36.8,28.05h-.01Zm-47.43-72.65c1.13,3.47,4.06,6.4,6.91,9.24,.89,.89,1.72,1.72,2.5,2.57,1.6,1.73,5.36,8.67,10.13,17.45,9,16.48,22.51,41.39,27.9,42.29,1.63,.25,11.93-6.9,36.02-27.81,1.87-1.62,3.25-2.84,3.94-3.44l-20.49-18.25-18.81,22.68-.44-.52c-.12-.15-12.75-15.14-14.98-17.91-.77-.95-1.7-2-2.7-3.12-4.22-4.73-9.48-10.63-8.7-16.49,.1-.77,.27-1.53,.43-2.25,.37-1.32,.53-2.69,.47-4.06-.3-2.86-1.4-7.73-2.13-8.1-.36-.08-.73,.04-.97,.32-1.13,1.26-.9,5.22-.6,6.38h0l-.55,.15-.47,.28c-.11-.14-.73-.61-1.13-.93-.52-.36-1.02-.77-1.47-1.22-1.01-1.22-1.89-2.55-2.62-3.96-1.46-2.73-2.39-5.71-2.74-8.78,0-.6-.16-1.25-.54-1.42s-.84,.16-1.05,.55c-.2,.45-.32,.94-.35,1.44l-.06,.44c-.38,2.79-2.33,4.9-4.2,6.94-2.25,2.47-4.23,4.6-3.3,7.54h0Z" fill="#002346"></path>
  <path d="M703.8,528.41v.09l.42-.09h-.42Z" fill="#fff"></path>
  <path d="M699.02,537.89l.21-.06h1.31c4.15-2.96,3.38-8.54,3.29-9.32-7.03,1.38-14.31,.72-20.98-1.91h-.07c-.82,.11-9.7,1.41-13.42,6.83-3.89,5.67,18.74,4.46,29.66,4.46h0Z" fill="#f69074"></path>
  <path id="w" d="M687.23,538.56c-10.02,0-17.3-.51-18.65-3.03-.38-.8-.26-1.75,.32-2.42,3.83-5.63,12.8-6.94,13.81-7.08h.16l.2,.06c6.56,2.57,13.72,3.22,20.64,1.88l.57-.12,.09,.59c.18,1.13,.82,6.75-3.51,9.87l-.15,.1h-6.82c-2.32,.13-4.55,.16-6.66,.16h0Zm-4.5-11.4c-1.51,.21-9.52,1.59-12.93,6.57-.53,.77-.33,1.13-.26,1.26,1.44,2.69,15.76,2.5,24.3,2.37h6.47c3.16-2.37,3.15-6.42,2.99-8.09-6.91,1.21-14.02,.47-20.54-2.12h-.03Z" fill="#002346"></path>
  <path d="M671.81,180.82c1.5-3.61,.86-9.82,1.53-12.84,.85-4.36,3.02-8.35,6.21-11.44,3.27-3.06,7.83-4.32,12.2-3.38-4.05-4.31-10.6-5.11-15.58-1.91-9,6.2-9.65,22.22-5.7,31.57,.6-.55,1.06-1.24,1.33-2h0Z" fill="#f69074"></path>
  <path id="x" d="M670.2,183.74l-.29-.69c-3.76-8.91-3.83-25.53,5.89-32.27,5.2-3.37,12.07-2.55,16.32,1.96l1.19,1.36-1.76-.45c-4.2-.89-8.57,.35-11.67,3.31-3.09,3.02-5.18,6.91-6,11.14-.24,1.49-.36,2.99-.37,4.5-.11,2.85-.24,6.09-1.13,8.39h0c-.32,.87-.85,1.64-1.54,2.25l-.64,.5h0Zm12.55-33.86c-2.25-.03-4.45,.63-6.31,1.89-8.62,5.97-9.16,21.19-5.81,30.09,.27-.37,.49-.77,.66-1.19h0c.87-2.12,.99-5.25,1.13-8,0-1.6,.13-3.19,.38-4.77,.86-4.47,3.07-8.56,6.34-11.73,2.92-2.74,6.85-4.15,10.85-3.88-2.08-1.58-4.63-2.42-7.24-2.4h0Z" fill="#002346"></path>
  <path d="M676.26,189.52c-2.52,2.54-5.91,3.24-7.59,1.54-1.68-1.7-.99-5.14,1.52-7.69s5.91-3.24,7.58-1.54c1.67,1.7,1,5.19-1.51,7.69Z" fill="#f2b3c1"></path>
  <path id="y" d="M671.11,192.55h0c-1.06,.03-2.09-.38-2.84-1.13-1.89-1.91-1.22-5.72,1.51-8.48,1.44-1.57,3.43-2.51,5.55-2.65,1.06-.03,2.09,.38,2.84,1.13,1.89,1.91,1.2,5.72-1.52,8.48-1.43,1.57-3.42,2.52-5.54,2.65Zm4.22-11.09c-1.82,.13-3.52,.96-4.74,2.31-2.25,2.33-2.98,5.41-1.52,6.9,.55,.52,1.28,.79,2.04,.75,1.81-.11,3.51-.92,4.74-2.25,2.25-2.33,2.97-5.43,1.52-6.9-.54-.53-1.28-.83-2.04-.81Z" fill="#002346"></path>
  <path d="M668.15,138.07c-2.72,.65,0,4.5-1.06,6.03-.53,.68-1.42,.98-2.25,.77-3.44-.69-5.23-3.87-7.2-6.38-.83-1.05-2.25-1.85-3.49-1.29-.73,.38-1.24,1.09-1.35,1.9-.1,.81,0,1.64,.3,2.4,1.44,4.21,5.28,4.96,9,6.29,2.05,.72,3.87,.89,5.56,2.43,2.42,2.25,2.59,4.5,3.38,7.43s3.89,1.27,4.5-1.02c.55-2.1-.81-3.25-2.07-4.69-1.17-1.26-2.05-2.76-2.57-4.4-.56-2.01,.3-8.28-1.98-9.34-.24-.12-.51-.16-.78-.11v-.02Z" fill="#fbe493"></path>
  <path id="z" d="M672.8,159.81c-.52,0-1.7-.2-2.25-1.99-.16-.56-.3-1.13-.43-1.62-.56-2.17-1-3.88-2.85-5.56-1.09-.91-2.39-1.54-3.78-1.82-.52-.15-1.04-.3-1.58-.5l-1.4-.47c-3.25-1.13-6.63-2.25-7.98-6.17-.33-.85-.43-1.77-.32-2.67,.15-1,.77-1.87,1.68-2.33,1.52-.69,3.22,.28,4.15,1.46,.33,.42,.65,.86,.98,1.29,1.59,2.14,3.23,4.36,5.9,4.89,.61,.16,1.26-.04,1.67-.52,.21-.74,.18-1.52-.07-2.25-.28-1.5-.68-3.53,1.46-4.04,.41-.09,.84-.05,1.22,.14,1.87,.87,1.97,4.07,2.05,6.9,0,.94,.08,1.88,.24,2.81,.49,1.56,1.33,2.99,2.45,4.18l.43,.48c1.13,1.26,2.33,2.57,1.76,4.73-.38,1.62-1.72,2.84-3.38,3.04l.05,.02h0Zm-17.81-22.23c-.21,0-.42,.04-.61,.12-.56,.3-.95,.86-1.02,1.5-.09,.72,0,1.44,.27,2.12,1.13,3.38,4,4.37,7.27,5.46l1.41,.48c.52,.18,1.02,.33,1.52,.47,1.56,.33,3.01,1.04,4.22,2.07,2.09,1.9,2.6,3.86,3.17,6.11,.14,.51,.27,1.04,.43,1.58,.24,.8,.62,1.19,1.13,1.19h0c1.11-.23,1.99-1.09,2.25-2.19,.42-1.58-.43-2.51-1.5-3.69l-.45-.5c-1.23-1.32-2.14-2.9-2.68-4.61-.2-1.02-.29-2.05-.27-3.08-.08-2.25-.17-5.34-1.41-5.91-.13-.07-.28-.09-.43-.07h0c-.93,.23-.98,.84-.61,2.74,.34,1,.3,2.08-.1,3.05-.66,.87-1.77,1.27-2.83,1.01-3.1-.62-4.95-3.12-6.6-5.32-.32-.43-.63-.86-.96-1.26-.52-.72-1.33-1.18-2.22-1.26h.02Z" fill="#002346"></path>
  <path d="M681.04,136.44c1.99-1.05,2.41,2.69,3.85,3.11,.68,.14,1.38-.15,1.77-.72,1.73-2.25,1.13-5.14,1-7.72-.16-1.09,.42-2.16,1.42-2.63,.65-.16,1.33,0,1.83,.44s.89,.99,1.13,1.61c1.37,3.38-.57,5.83-2.14,8.62-.87,1.54-1.88,2.6-2.08,4.43-.3,2.63,.82,4.13,1.86,6.35s-1.7,2.84-3.28,1.77c-1.58-1.07-1.25-2.41-1.25-3.96,.05-1.38-.22-2.76-.78-4.03-.72-1.53-4.58-4.87-3.76-6.75,.08-.21,.23-.39,.43-.51h0Z" fill="#fbe493"></path>
  <path id="aa" d="M688.11,152.78c-.73,0-1.45-.22-2.06-.63-1.55-1.04-1.53-2.49-1.5-3.89v-.53c.05-1.3-.2-2.6-.72-3.79-.39-.64-.83-1.24-1.33-1.8-1.47-1.79-3.14-3.83-2.44-5.4,.14-.34,.4-.62,.72-.79h0c1.67-.87,2.58,.69,3.17,1.72,.34,.59,.72,1.24,1.13,1.34,.44,.05,.87-.15,1.13-.52,1.31-1.72,1.13-3.92,.97-6.04,0-.44-.07-.88-.09-1.31-.18-1.36,.56-2.67,1.82-3.21,.83-.22,1.71,0,2.35,.55,.57,.49,1,1.13,1.26,1.83,1.29,3.16-.17,5.63-1.59,8.08-.19,.34-.39,.68-.59,1.02s-.47,.78-.71,1.13c-.68,.9-1.13,1.96-1.32,3.07-.13,1.7,.3,3.39,1.22,4.83,.2,.39,.41,.79,.6,1.22,.52,.81,.39,1.89-.33,2.54-.49,.38-1.08,.58-1.7,.57h.01Zm-6.81-15.83c-.1,.05-.17,.13-.2,.24-.43,.96,1.2,2.93,2.25,4.23,.56,.63,1.06,1.31,1.49,2.04,.59,1.35,.87,2.82,.82,4.29v.54c0,1.43,0,2.25,.99,2.95,.71,.52,1.65,.57,2.42,.15,.28-.25,.3-.65,0-1.22s-.39-.81-.59-1.18c-1.02-1.63-1.49-3.55-1.33-5.47,.19-1.29,.71-2.5,1.49-3.55,.23-.35,.45-.71,.66-1.13l.61-1.05c1.4-2.38,2.6-4.43,1.51-7.09-.19-.53-.5-1.01-.92-1.38-.36-.32-.85-.44-1.32-.34-.73,.21-1.13,1.2-1.04,2.07,0,.42,0,.84,.09,1.27,.18,2.25,.38,4.76-1.19,6.75-.52,.77-1.47,1.14-2.37,.92-.8-.23-1.28-1.05-1.74-1.85-.8-1.37-1.13-1.61-1.69-1.29l.07,.09h0Z" fill="#002346"></path>
  <path d="M651.47,239.48l20.45,18.68c2.71-2.35,4.41-3.86,4.41-3.86l-21.39-19.03-3.48,4.21h.01Z" fill="#002346"></path>
  <polygon points="706.5 543.82 706.5 567.02 664.02 567.02 664.02 543.82 657.01 543.82 657.01 588.49 664.02 588.49 664.02 570.98 706.5 570.98 706.5 588.49 713.51 588.49 713.51 543.82 706.5 543.82" fill="#002346"></polygon>
  <g opacity=".2">
    <polygon points="706.5 543.82 706.5 567.02 664.02 567.02 664.02 543.82 657.01 543.82 657.01 588.49 664.02 588.49 664.02 570.98 706.5 570.98 706.5 588.49 713.51 588.49 713.51 543.82 706.5 543.82"></polygon>
  </g>
  <rect x="643.76" y="538.87" width="83" height="11.64" rx="5.41" ry="5.41" fill="#002346"></rect>
  <rect x="710.57" y="547.1" width="8.34" height="53.21" fill="#002346"></rect>
  <rect x="651.62" y="547.1" width="8.34" height="53.21" fill="#002346"></rect>
  <rect x="656.57" y="574.75" width="57.38" height="4.69" fill="#002346"></rect>
  <rect x="430.97" y="569.78" width="24.75" height="33.05" fill="#fff" stroke="#002346" stroke-miterlimit="10" stroke-width="1.14"></rect>
  <g clip-path="url(#ab)">
    <g>
      <rect x="448.07" y="560.79" width=".62" height="4.95" fill="#fff"></rect>
      <rect x="448.68" y="560.79" width=".46" height="4.95" fill="#fff"></rect>
      <rect x="449.15" y="560.79" width=".46" height="4.95" fill="#fefefe"></rect>
      <rect x="449.61" y="560.79" width=".46" height="4.95" fill="#fdfdfd"></rect>
      <rect x="450.08" y="560.79" width=".46" height="4.95" fill="#fcfcfc"></rect>
      <rect x="450.54" y="560.79" width=".46" height="4.95" fill="#fcfbfc"></rect>
      <rect x="451" y="560.79" width=".46" height="4.95" fill="#fbfafb"></rect>
      <rect x="451.46" y="560.79" width=".46" height="4.95" fill="#faf9fa"></rect>
      <rect x="451.94" y="560.79" width=".46" height="4.95" fill="#f9f8f9"></rect>
      <rect x="452.4" y="560.79" width=".46" height="4.95" fill="#f8f7f8"></rect>
      <rect x="452.86" y="560.79" width=".46" height="4.95" fill="#f7f6f7"></rect>
      <rect x="453.32" y="560.79" width=".46" height="4.95" fill="#f7f5f7"></rect>
      <rect x="453.79" y="560.79" width=".46" height="4.95" fill="#f6f4f6"></rect>
      <rect x="454.26" y="560.79" width=".46" height="4.95" fill="#f5f3f5"></rect>
      <rect x="454.72" y="560.79" width=".46" height="4.95" fill="#f4f1f4"></rect>
      <rect x="455.18" y="560.79" width=".46" height="4.95" fill="#f3f0f3"></rect>
      <rect x="455.64" y="560.79" width=".46" height="4.95" fill="#f2eff2"></rect>
      <rect x="456.11" y="560.79" width=".46" height="4.95" fill="#f2eef2"></rect>
      <rect x="456.57" y="560.79" width=".46" height="4.95" fill="#f1edf1"></rect>
      <rect x="457.04" y="560.79" width=".46" height="4.95" fill="#f0ecf0"></rect>
      <rect x="457.5" y="560.79" width=".46" height="4.95" fill="#efebef"></rect>
      <rect x="457.97" y="560.79" width=".46" height="4.95" fill="#eeeaee"></rect>
      <rect x="458.43" y="560.79" width=".46" height="4.95" fill="#ede9ed"></rect>
      <rect x="458.89" y="560.79" width=".46" height="4.95" fill="#ede8ed"></rect>
      <rect x="459.35" y="560.79" width=".46" height="4.95" fill="#ece7ec"></rect>
      <rect x="459.83" y="560.79" width=".46" height="4.95" fill="#ebe6eb"></rect>
      <rect x="460.29" y="560.79" width=".46" height="4.95" fill="#eae5ea"></rect>
    </g>
  </g>
  <path d="M480.16,564.58v3.38c.09,.9-.57,1.7-1.46,1.8h-49.53c-.89-.11-1.54-.91-1.45-1.8v-3.38c-.09-.89,.56-1.69,1.45-1.79h49.53c.9,.09,1.55,.89,1.46,1.79Z" fill="#f69074"></path>
  <path id="ac" d="M478.69,570.35h-49.53c-1.19-.12-2.08-1.16-2.01-2.36v-3.38c-.06-1.19,.82-2.23,2.01-2.35h49.53c1.19,.12,2.09,1.15,2.03,2.35v3.38c.07,1.2-.83,2.25-2.03,2.36Zm-49.53-6.99c-.48,0-.89,.56-.89,1.23v3.38c0,.68,.41,1.24,.89,1.24h49.53c.5,0,.9-.56,.9-1.24v-3.38c0-.66-.41-1.23-.9-1.23h-49.53Z" fill="#002346"></path>
  <path d="M452.59,564.58v3.38c-.06,1.06-.96,1.86-2.02,1.8h-20.81c-1.05,.06-1.95-.75-2.01-1.8v-3.38c.07-1.05,.97-1.85,2.01-1.79h20.81c1.05-.06,1.96,.74,2.03,1.79h-.01Z" fill="#f69074"></path>
  <path id="ad" d="M450.56,570.35h-20.81c-1.36,.06-2.52-1-2.58-2.36v-3.38c.07-1.36,1.22-2.41,2.58-2.35h20.81c1.36-.06,2.52,.99,2.59,2.35v3.38c-.07,1.37-1.22,2.42-2.59,2.36Zm-20.81-6.99c-.74-.05-1.38,.49-1.45,1.23v3.38c.07,.74,.71,1.29,1.45,1.24h20.81c.74,.06,1.4-.49,1.46-1.24v-3.38c-.07-.74-.72-1.29-1.46-1.23h-20.81Z" fill="#002346"></path>
  <rect x="454.03" y="569.78" width="23.54" height="33.05" fill="#fff" stroke="#002346" stroke-miterlimit="10" stroke-width="1.14"></rect>
  <rect x="605.81" y="521.86" width="10.13" height="11.82" fill="#fbe493" stroke="#002346" stroke-miterlimit="10" stroke-width="1.1"></rect>
  <rect x="605.81" y="533.11" width="10.13" height="56.28" fill="#fbe493" stroke="#002346" stroke-miterlimit="10" stroke-width="1.14"></rect>
  <rect x="552.9" y="521.29" width="10.69" height="12.38" fill="#fbe493" stroke="#002346" stroke-miterlimit="10" stroke-width="1.2"></rect>
  <rect x="552.9" y="533.68" width="10.69" height="55.72" fill="#fbe493" stroke="#002346" stroke-miterlimit="10" stroke-width="1.15"></rect>
</svg>
