<?xml version="1.0" encoding="UTF-8"?>
<svg xmlns="http://www.w3.org/2000/svg" id="a" width="865.76" height="682.89" viewBox="0 0 865.76 682.89">
  <path d="M781.28,341.44c0,28.96-3.68,57.07-10.59,83.87-.07,.3-.15,.6-.23,.9-.08,.29-.15,.58-.23,.87-5.22,19.82-12.21,38.91-20.8,57.11-.18,.4-.37,.8-.57,1.19-.16,.36-.33,.72-.51,1.07-10.37,21.58-22.99,41.88-37.55,60.58-4.8,6.17-9.82,12.17-15.03,17.98-13.44,14.98-28.21,28.74-44.12,41.1-56.72,44.08-127.98,70.33-205.37,70.33s-148.01-26.01-204.6-69.72c-16.39-12.66-31.57-26.8-45.33-42.22-4.54-5.06-8.91-10.27-13.11-15.61-.94-1.18-1.86-2.36-2.77-3.55-9.51-12.37-18.17-25.42-25.9-39.07-17.49-30.88-30.22-64.82-37.17-100.81-2.25-11.57-3.89-23.36-4.91-35.32-.61-7.27-1-14.6-1.14-22,0-.27,0-.54,0-.82-.04-1.95-.06-3.91-.06-5.88C111.28,156.43,261.26,6.44,446.28,6.44s335,149.99,335,335Z" fill="#f69074"></path>
  <g opacity=".8">
    <path d="M781.28,341.44c0,28.96-3.68,57.07-10.59,83.87-.07,.3-.15,.6-.23,.9-.08,.29-.15,.58-.23,.87-5.22,19.82-12.21,38.91-20.8,57.11-.18,.4-.37,.8-.57,1.19-.16,.36-.33,.72-.51,1.07-10.37,21.58-22.99,41.88-37.55,60.58-4.8,6.17-9.82,12.17-15.03,17.98-13.44,14.98-28.21,28.74-44.12,41.1-56.72,44.08-127.98,70.33-205.37,70.33s-148.01-26.01-204.6-69.72c-16.39-12.66-31.57-26.8-45.33-42.22-4.54-5.06-8.91-10.27-13.11-15.61-.94-1.18-1.86-2.36-2.77-3.55-9.51-12.37-18.17-25.42-25.9-39.07-17.49-30.88-30.22-64.82-37.17-100.81-2.25-11.57-3.89-23.36-4.91-35.32-.61-7.27-1-14.6-1.14-22,0-.27,0-.54,0-.82-.04-1.95-.06-3.91-.06-5.88C111.28,156.43,261.26,6.44,446.28,6.44s335,149.99,335,335Z" fill="#fff"></path>
  </g>
  <path d="M446.28,676.95c-37.75,0-74.8-6.22-110.13-18.5-34.15-11.86-66.04-29.13-94.77-51.33-16.37-12.65-31.65-26.87-45.4-42.28-4.48-5-8.9-10.26-13.13-15.63-.94-1.18-1.86-2.36-2.77-3.56-9.52-12.39-18.25-25.55-25.94-39.13-17.85-31.52-30.38-65.49-37.23-100.96-2.25-11.55-3.9-23.45-4.92-35.37-.62-7.4-1.01-14.81-1.14-22.03,0-.27,0-.54,0-.83-.04-1.94-.06-3.91-.06-5.88,0-89.61,34.9-173.86,98.26-237.23C272.41,40.84,356.66,5.94,446.28,5.94s173.86,34.9,237.23,98.27c63.37,63.37,98.27,147.62,98.27,237.23,0,28.44-3.57,56.7-10.61,83.99-.07,.29-.15,.6-.23,.9l-.23,.87c-5.16,19.6-12.17,38.84-20.83,57.19-.18,.4-.37,.81-.58,1.2-.15,.34-.33,.71-.51,1.07-10.3,21.43-22.95,41.85-37.6,60.66-4.76,6.11-9.82,12.17-15.05,18.01-13.43,14.97-28.29,28.81-44.19,41.16-28.8,22.38-60.79,39.8-95.08,51.77-35.47,12.38-72.68,18.66-110.6,18.66Zm0-670C261.84,6.94,111.78,157,111.78,341.44c0,1.97,.02,3.92,.06,5.87,0,.28,0,.55,0,.81,.14,7.21,.52,14.6,1.14,21.98,1.01,11.88,2.66,23.75,4.9,35.27,6.83,35.37,19.32,69.24,37.11,100.66,7.66,13.53,16.37,26.66,25.86,39.01,.91,1.19,1.83,2.37,2.76,3.54,4.22,5.36,8.62,10.6,13.09,15.59,13.71,15.37,28.94,29.55,45.26,42.16,58.96,45.54,129.61,69.62,204.29,69.62s145.95-24.28,205.06-70.22c15.85-12.31,30.67-26.12,44.05-41.04,5.22-5.82,10.27-11.86,15.01-17.95,14.6-18.76,27.22-39.11,37.49-60.49,.18-.35,.35-.71,.5-1.06,.21-.41,.39-.8,.57-1.19,8.64-18.3,15.62-37.49,20.77-57.03l.23-.88c.08-.29,.16-.58,.22-.88,7.02-27.23,10.58-55.4,10.58-83.76C780.78,157,630.72,6.94,446.28,6.94Z" fill="#002346"></path>
  <g opacity=".8">
    <circle cx="446.28" cy="232.45" r="197.5" fill="#fff"></circle>
  </g>
  <g>
    <g>
      <path d="M297.74,606.92l54.21-110.23s37.72-49.42,143.96-59.92c0,0,20.58-4.77,23.09,9.15,1.21,6.7,2.2,13.44,3.65,20.1l26.43,121.59-45.86,53.58s-40.98-9.17-69.62-10.28l-99.49,2.26-36.36-26.25Z" fill="#e6e7e8"></path>
      <path d="M503.39,641.74l-.29-.07c-.41-.09-41.26-9.17-69.53-10.26l-99.63,2.27-.14-.1-36.7-26.5,54.4-110.61c.15-.21,9.8-12.67,32.33-26.23,20.76-12.5,57.06-28.53,112.03-33.97,.42-.1,11.77-2.66,18.72,1.91,2.66,1.75,4.31,4.32,4.91,7.64,.39,2.18,.76,4.35,1.13,6.53,.76,4.46,1.54,9.06,2.51,13.55l26.48,121.83-46.22,54Zm-69.81-11.33c27.11,1.04,65.68,9.4,69.44,10.22l45.51-53.16-26.38-121.34c-.98-4.51-1.76-9.13-2.52-13.6-.37-2.18-.74-4.35-1.13-6.52-.55-3.04-2.05-5.39-4.47-6.98-6.59-4.34-17.9-1.79-18.01-1.76-54.81,5.42-90.94,21.37-111.61,33.8-22.39,13.46-31.96,25.81-32.06,25.93l-53.98,109.77,35.88,25.91,99.33-2.26Z" fill="#002346"></path>
    </g>
    <path d="M350.97,555.17c-.24,0-.45-.17-.49-.41-5.41-31.1,1.3-58.55,1.37-58.82,.07-.27,.34-.43,.61-.36,.27,.07,.43,.34,.36,.61-.07,.27-6.66,27.25-1.44,57.93,5.05-.76,49.84-8.78,90.53-58.37,1.18-1.35,28.96-32.9,47.99-36.98,.14-.05,18.77-5.88,29.67-12.4,.24-.14,.54-.06,.69,.17,.14,.24,.06,.54-.17,.69-11,6.58-29.74,12.45-29.93,12.5-18.75,4.02-47.2,36.33-47.48,36.66-43.24,52.7-91.17,58.73-91.65,58.78-.02,0-.04,0-.06,0Z" fill="#002346"></path>
    <path d="M333.25,632.87s-.07,0-.11-.01c-.27-.06-.44-.33-.38-.6l17.72-77.7c.06-.27,.33-.44,.6-.38s.44,.33,.38,.6l-17.72,77.7c-.05,.23-.26,.39-.49,.39Z" fill="#002346"></path>
    <path d="M502.28,642.41c-.28,0-.5-.22-.5-.5,0-16.11-13.48-67.51-13.61-68.03-9.45-56.7-5.41-111.39-5.36-111.93,.02-.28,.26-.5,.54-.46,.28,.02,.48,.26,.46,.54-.04,.54-4.08,55.12,5.34,111.65,.13,.47,13.64,52,13.64,68.24,0,.28-.22,.5-.5,.5Z" fill="#002346"></path>
    <path d="M373.5,633.46s-.06,0-.08,0c-.27-.05-.46-.3-.41-.58,7.48-44.11,45.5-66.16,45.88-66.38l64.19-33.59c.24-.12,.55-.03,.67,.21,.13,.24,.03,.55-.21,.67l-64.17,33.58c-.36,.21-37.97,22.04-45.37,65.67-.04,.24-.25,.42-.49,.42Z" fill="#002346"></path>
    <path d="M409.58,631.11c-.16,0-.32-.08-.41-.22-.35-.51-.67-1.02-.99-1.53-6.59-10.81-6.61-24.57-.05-35.89,11.38-19.65,10.52-26.39,10.51-26.46-.04-.27,.14-.53,.42-.57,.27-.04,.53,.14,.57,.41,.05,.28,1,7.02-10.63,27.12-6.37,11.01-6.36,24.37,.04,34.87,.3,.5,.62,.99,.96,1.49,.16,.23,.1,.54-.13,.69-.09,.06-.18,.09-.28,.09Z" fill="#002346"></path>
    <path d="M518.85,623.88c-.19,0-.38-.11-.46-.3-.19-.44-19.24-44.82-8.42-86.76,.02-.06,.04-.11,.08-.16,.13-.18,12.51-18.87-4.54-82.96-.07-.27,.09-.54,.35-.61,.27-.07,.54,.09,.61,.35,16.81,63.21,5.47,82.19,4.45,83.72-10.69,41.57,8.19,85.59,8.39,86.03,.11,.25,0,.55-.26,.66-.07,.03-.13,.04-.2,.04Z" fill="#002346"></path>
  </g>
  <g>
    <g>
      <path d="M539.9,164.33s-1.28,49.25-47.96,105.35l2.57,3.43s16.2-2.86,23.15,11.39c2.39,4.89,2.98,10.47,1.9,15.81-.73,3.64-2.24,8.12-5.32,12.35-1.49,2.06-3.36,4.06-5.7,5.88-4.24,3.31-10.03,5.98-17.9,7.25-40.25,4.28-57.38-26.12-57.38-26.12-57.81,10.28-107.49-14.99-107.49-14.99-10.08-4.48-14.63-7.66-16.55-9.82-1.33-1.49-.73-3.84,1.13-4.55,37.7-14.42,66.38-3.61,66.38-3.61,11.13-15.84,32.33-7.92,32.33-7.92-4.71-14.99-4.28-27.84-4.28-27.84,0,0-6.72-7.36-13.23-13.95-4.57-4.62-10.06-8.23-16.13-10.58l-30.66-11.88c-2.97-1.15-3-5.34-.05-6.54,7.4-4.7,16.51-9.73,27.31-14.23,12.26-5.1,23.53-8.21,32.93-10.15,.08-.03,1.91-.74,3.48,.48,.93,.72,1.51,1.91,1.33,3.25l-3.88,28.96c-.57,4.22,.54,8.5,3.07,11.92,3.54,4.79,7.07,9.57,10.61,14.36,0,0,19.7,7.71,34.69,17.99,0,0,7.28-23.55,33.83-31.69,0,0,3-35.97,42.4-59.95,0,0,12.85-8.99,9.42,15.42Z" fill="#fbe493"></path>
      <path d="M483.1,326.68c-32.73,0-48.25-23.5-50.09-26.48-9.58,1.68-18.96,2.38-27.94,2.38-44.55,0-79.11-17.27-79.53-17.48-8.63-3.83-14.25-7.18-16.7-9.94-.74-.83-1.01-1.92-.75-3,.26-1.08,1.04-1.96,2.08-2.35,35.17-13.45,62.89-4.92,66.37-3.74,9.92-13.69,27.52-9.39,31.76-8.1-4.07-13.48-4.05-25.19-4.02-26.87-.98-1.07-7.16-7.79-13.08-13.79-4.55-4.61-9.92-8.13-15.95-10.46l-30.66-11.88c-1.57-.61-2.55-2.03-2.57-3.72-.01-1.68,.95-3.12,2.51-3.75,8.58-5.46,17.8-10.26,27.3-14.22,10.62-4.42,21.73-7.85,33.02-10.18,.15-.06,2.15-.77,3.88,.58,1.14,.89,1.71,2.27,1.52,3.71l-3.88,28.96c-.55,4.11,.51,8.22,2.97,11.56l10.53,14.24c1.75,.7,19.97,8.05,34.11,17.62,1.41-3.82,9.81-23.84,33.63-31.29,.45-3.74,5.47-37.4,42.6-60,.15-.11,4.31-2.97,7.49-1.01,3.09,1.89,3.99,7.58,2.69,16.9-.05,1.47-2.28,50.42-47.82,105.32l2.15,2.87c2.31-.3,16.87-1.61,23.38,11.7,2.37,4.85,3.06,10.58,1.94,16.13-.95,4.7-2.76,8.92-5.4,12.54-1.63,2.25-3.58,4.26-5.79,5.98-4.75,3.7-10.84,6.17-18.12,7.35-2.64,.28-5.18,.41-7.63,.41Zm-49.57-27.58l.17,.31c.17,.3,17.45,30.07,56.89,25.87,7.08-1.15,13.03-3.56,17.64-7.15,2.14-1.66,4.02-3.6,5.6-5.78,2.56-3.51,4.32-7.59,5.23-12.15,1.07-5.33,.41-10.84-1.86-15.49-6.71-13.73-22.46-11.14-22.62-11.11l-.3,.05-2.99-3.99,.25-.3c46.02-55.3,47.83-104.55,47.85-105.04v-.06c1.56-11.1-.34-14.79-2.21-15.94-2.63-1.62-6.39,.97-6.42,1-38.74,23.58-42.15,59.23-42.18,59.59l-.03,.34-.32,.1c-25.98,7.96-33.43,31.13-33.5,31.36l-.2,.65-.56-.38c-14.77-10.13-34.39-17.85-34.59-17.93l-.13-.05-10.7-14.48c-2.62-3.55-3.74-7.91-3.16-12.29l3.88-28.96c.15-1.08-.28-2.12-1.14-2.78-1.3-1.01-2.82-.47-2.99-.41-11.3,2.34-22.35,5.75-32.92,10.14-9.45,3.94-18.62,8.71-27.23,14.19-1.48,.61-1.97,1.87-1.97,2.86,0,.99,.52,2.25,1.93,2.79l30.66,11.88c6.17,2.39,11.65,5.98,16.3,10.69,6.45,6.52,13.18,13.89,13.25,13.96l.14,.15v.2c-.01,.13-.38,12.94,4.25,27.67l.31,.98-.96-.36c-.21-.08-20.97-7.6-31.75,7.74l-.22,.32-.36-.14c-.29-.11-28.95-10.56-66.02,3.61-.74,.28-1.27,.89-1.46,1.65-.18,.75,0,1.52,.52,2.09,2.35,2.65,7.86,5.91,16.38,9.7,.52,.26,50.22,25.08,107.2,14.95l.35-.06Z" fill="#002346"></path>
    </g>
    <g>
      <path d="M508.55,318.52c-4.24,3.31-10.03,5.98-17.9,7.25-40.25,4.28-57.38-26.12-57.38-26.12l46.25-8.14,14.56,12.85-1.28,4.71,13.28,3,2.48,6.45Z" fill="#f69074"></path>
      <path d="M483.1,326.68c-34.75,0-50.11-26.5-50.27-26.78l-.35-.62,47.18-8.3,14.97,13.21-1.23,4.51,13.03,2.94,2.71,7.04-.29,.23c-4.75,3.7-10.85,6.17-18.12,7.35-2.64,.28-5.18,.41-7.63,.41Zm-49.03-26.66c2.72,4.26,20.24,29.11,56.52,25.26,6.93-1.13,12.78-3.46,17.35-6.93l-2.25-5.85-13.52-3.05,1.34-4.92-14.15-12.48-45.29,7.97Z" fill="#002346"></path>
    </g>
    <g>
      <path d="M519.56,300.3c-.73,3.64-2.24,8.12-5.32,12.35-1.37,.55-2.76,.95-4.13,1.22-13.75,2.73-27.23-6.11-30.19-19.81-.34-1.56-.4-2.54-.4-2.54,1.28-15.42,14.99-18.41,14.99-18.41,0,0,16.2-2.86,23.15,11.39,2.39,4.89,2.98,10.47,1.9,15.81Z" fill="#fbe493"></path>
      <path d="M505.15,314.86c-12.1,0-23.08-8.48-25.72-20.7-.34-1.58-.41-2.57-.41-2.61,1.3-15.68,15.24-18.9,15.38-18.93,.19-.03,16.67-2.76,23.71,11.66,2.37,4.85,3.06,10.58,1.94,16.13h0c-.95,4.7-2.76,8.92-5.4,12.54l-.08,.12-.13,.05c-1.34,.54-2.76,.96-4.22,1.25-1.7,.34-3.39,.5-5.06,.5Zm-25.13-23.3s.08,.94,.39,2.39c2.89,13.38,16.18,22.09,29.61,19.43,1.35-.27,2.67-.65,3.91-1.14,2.51-3.48,4.24-7.53,5.15-12.03,1.07-5.33,.41-10.84-1.86-15.49-6.71-13.73-22.46-11.14-22.62-11.11-.52,.12-13.34,3.11-14.58,17.96h0Z" fill="#002346"></path>
    </g>
    <g>
      <ellipse cx="496.22" cy="297.94" rx="5.14" ry="6.85" transform="translate(-82.49 288.03) rotate(-30)" fill="#fff"></ellipse>
      <path d="M497.61,304.9c-2.29,0-4.78-1.55-6.28-4.14-2.03-3.51-1.48-7.63,1.21-9.19,2.69-1.56,6.53,.04,8.56,3.55h0c.97,1.68,1.39,3.54,1.18,5.26-.21,1.77-1.06,3.16-2.39,3.93-.7,.41-1.48,.6-2.28,.6Zm-2.77-12.93c-.64,0-1.25,.15-1.8,.47-2.21,1.28-2.59,4.79-.84,7.82,1.75,3.03,4.98,4.46,7.19,3.18,1.05-.61,1.72-1.74,1.9-3.18,.18-1.5-.19-3.15-1.06-4.64h0c-1.32-2.28-3.46-3.65-5.39-3.65Z" fill="#002346"></path>
    </g>
    <path d="M433.27,300.15c-.23,0-.44-.16-.49-.4-.05-.27,.12-.53,.39-.59,.08-.02,8.54-1.74,14.39-5.5,.23-.15,.54-.08,.69,.15,.15,.23,.08,.54-.15,.69-6.01,3.86-14.38,5.57-14.73,5.64-.03,0-.07,0-.1,0Z" fill="#002346"></path>
    <path d="M491.94,270.18c-.15,0-.29-.06-.39-.19-10.53-13.05-37.28-28.84-37.55-29-.24-.14-.32-.45-.18-.68,.14-.24,.45-.32,.68-.18,.27,.16,27.18,16.04,37.82,29.24,.17,.21,.14,.53-.08,.7-.09,.07-.2,.11-.31,.11Z" fill="#002346"></path>
    <path d="M519.77,213.65c-.23,0-.43-.15-.49-.38-6.82-28.13,12.28-61.7,12.47-62.03,.14-.24,.44-.32,.68-.18,.24,.14,.32,.44,.18,.68-.19,.33-19.09,33.56-12.37,61.3,.07,.27-.1,.54-.37,.6-.04,0-.08,.01-.12,.01Z" fill="#002346"></path>
    <path d="M510.35,214.51c-.25,0-.46-.18-.49-.43-4.26-30.65,13.01-60.13,13.19-60.43,.14-.24,.45-.32,.69-.17,.24,.14,.32,.45,.17,.69-.17,.29-17.26,29.48-13.06,59.78,.04,.27-.15,.53-.43,.56-.02,0-.05,0-.07,0Z" fill="#002346"></path>
    <path d="M500.93,215.36c-.21,0-.4-.13-.47-.34-5.99-17.53,5.46-45.89,5.58-46.17,.1-.26,.4-.38,.65-.27,.26,.1,.38,.4,.27,.65-.11,.28-11.42,28.29-5.56,45.47,.09,.26-.05,.54-.31,.63-.05,.02-.11,.03-.16,.03Z" fill="#002346"></path>
    <path d="M492.79,223.93c-.11,0-.23-.04-.32-.12-5.27-4.39-4.91-14.54-4.89-14.96,.01-.28,.25-.52,.52-.48,.28,.01,.49,.24,.48,.52,0,.1-.36,10.08,4.53,14.16,.21,.18,.24,.49,.06,.7-.1,.12-.24,.18-.38,.18Z" fill="#002346"></path>
    <path d="M482.94,232.49c-.13,0-.26-.05-.35-.15-8.26-8.26-4.41-19.76-4.37-19.88,.09-.26,.37-.4,.64-.31,.26,.09,.4,.38,.31,.64-.04,.11-3.68,11.03,4.13,18.85,.2,.2,.2,.51,0,.71-.1,.1-.23,.15-.35,.15Z" fill="#002346"></path>
    <path d="M476.52,235.92c-.08,0-.15-.02-.22-.05-6.22-3.11-5.86-11.26-5.84-11.61,.01-.28,.25-.51,.53-.47,.28,.01,.49,.25,.47,.53,0,.08-.33,7.85,5.29,10.66,.25,.12,.35,.42,.22,.67-.09,.17-.26,.28-.45,.28Z" fill="#002346"></path>
    <path d="M466.67,242.34c-.11,0-.22-.03-.31-.11-4.02-3.12-3.64-9.98-3.62-10.28,.02-.28,.26-.48,.53-.47,.28,.02,.49,.25,.47,.53,0,.07-.36,6.62,3.23,9.42,.22,.17,.26,.48,.09,.7-.1,.13-.25,.19-.4,.19Z" fill="#002346"></path>
    <path d="M480.37,242.34c-.09,0-.17-.02-.25-.07-4.71-2.75-7.01-.6-7.11-.5-.2,.19-.51,.19-.71,0-.19-.2-.19-.51,0-.7,.11-.11,2.7-2.61,7.72,.02,.31-1.15,1.15-3.42,3.08-4.31,1.47-.67,3.23-.41,5.22,.79,.24,.14,.31,.45,.17,.69-.14,.24-.45,.32-.69,.17-1.7-1.02-3.14-1.27-4.29-.74-2.09,.96-2.67,4.21-2.67,4.25-.03,.16-.13,.3-.28,.37-.07,.03-.14,.05-.21,.05Z" fill="#002346"></path>
    <path d="M489.37,234.63s-.07,0-.1-.01c-.27-.06-.44-.32-.39-.59,.05-.25,1.31-6.12,5.7-8.49,2.23-1.2,4.84-1.26,7.77-.19,.58-1.42,2.53-5.5,6.12-6.81,2.12-.77,4.43-.42,6.85,1.03,.24,.14,.31,.45,.17,.69-.14,.24-.45,.31-.69,.17-2.15-1.29-4.17-1.61-5.99-.94-3.83,1.39-5.68,6.62-5.7,6.67-.04,.13-.14,.24-.26,.29-.12,.06-.27,.06-.39,0-2.84-1.13-5.33-1.15-7.4-.03-3.99,2.14-5.19,7.75-5.2,7.81-.05,.24-.26,.4-.49,.4Z" fill="#002346"></path>
    <path d="M371.17,291.59c-.12,0-.24-.04-.33-.13-15.55-13.87-60.1-20.61-60.55-20.67-.27-.04-.46-.29-.42-.57,.04-.27,.3-.46,.57-.42,1.84,.27,45.29,6.85,61.07,20.92,.21,.18,.22,.5,.04,.71-.1,.11-.24,.17-.37,.17Z" fill="#002346"></path>
    <path d="M375.89,287.31c-.18,0-.36-.1-.44-.27-6.66-12.91-48.54-21.3-48.96-21.38-.27-.05-.45-.32-.39-.59,.05-.27,.32-.45,.59-.39,1.74,.34,42.77,8.57,49.66,21.91,.13,.25,.03,.55-.21,.67-.07,.04-.15,.06-.23,.06Z" fill="#002346"></path>
    <path d="M381.45,282.6c-.2,0-.38-.12-.46-.31-4.14-9.95-31.6-18.74-31.88-18.83-.26-.08-.41-.36-.33-.63,.08-.26,.36-.4,.63-.33,1.15,.36,28.18,9.02,32.5,19.39,.11,.25-.01,.55-.27,.65-.06,.03-.13,.04-.19,.04Z" fill="#002346"></path>
    <path d="M389.16,280.46c-.18,0-.35-.1-.44-.27-4.17-7.92-12.16-13.03-12.24-13.08-.23-.15-.3-.46-.16-.69,.15-.23,.46-.3,.69-.16,.34,.21,8.3,5.3,12.59,13.47,.13,.24,.03,.55-.21,.67-.07,.04-.15,.06-.23,.06Z" fill="#002346"></path>
    <path d="M399.44,277.46c-.24,0-.46-.18-.49-.43-1.23-8.22-12.05-14.14-12.16-14.19-.24-.13-.33-.43-.2-.68,.13-.24,.43-.33,.68-.2,.46,.25,11.37,6.21,12.68,14.93,.04,.27-.15,.53-.42,.57-.03,0-.05,0-.07,0Z" fill="#002346"></path>
    <path d="M405.43,270.18c-.21,0-.4-.13-.47-.34-2.05-6.14-7.83-9.1-7.89-9.13-.25-.12-.35-.42-.22-.67,.12-.25,.42-.35,.67-.22,.25,.13,6.21,3.17,8.39,9.71,.09,.26-.05,.54-.32,.63-.05,.02-.11,.03-.16,.03Z" fill="#002346"></path>
    <path d="M409.29,266.32c-.28,0-.5-.22-.5-.5,0-2.33-1.98-4.34-2-4.36-.19-.2-.19-.51,0-.71,.2-.2,.51-.2,.71,0,.09,.09,2.29,2.32,2.29,5.06,0,.28-.22,.5-.5,.5Z" fill="#002346"></path>
    <path d="M418.71,264.61c-.08,0-.17-.02-.24-.06l-9.64-5.35c-.24-.13-.33-.44-.19-.68,.13-.24,.44-.33,.68-.19l9.64,5.35c.24,.13,.33,.44,.19,.68-.09,.16-.26,.26-.44,.26Z" fill="#002346"></path>
    <path d="M404.79,231.42c-.26,0-.48-.2-.5-.47-1.06-17.62,1.08-34.56,1.1-34.72,.04-.27,.29-.47,.56-.43,.27,.04,.47,.29,.43,.56-.02,.17-2.15,17.02-1.09,34.54,.02,.28-.19,.51-.47,.53-.01,0-.02,0-.03,0Z" fill="#002346"></path>
    <path d="M375.03,295.02s-.03,0-.05,0c-.27-.03-.48-.27-.45-.54,.02-.17,.42-4.09,3.45-6.38,1.91-1.44,4.4-1.9,7.42-1.35,.27,.05,.45,.31,.4,.58-.05,.27-.31,.45-.58,.4-2.73-.5-4.96-.11-6.63,1.16-2.67,2.02-3.06,5.64-3.06,5.68-.03,.26-.24,.45-.5,.45Z" fill="#002346"></path>
    <path d="M387.02,286.45c-.12,0-.24-.04-.34-.13-.2-.19-.21-.5-.02-.71,.06-.07,6.34-6.66,13.87-2.67,.24,.13,.34,.43,.21,.68-.13,.24-.43,.33-.68,.21-6.85-3.63-12.44,2.22-12.68,2.47-.1,.1-.23,.16-.37,.16Z" fill="#002346"></path>
    <path d="M404.58,284.74c-.21,0-.41-.14-.48-.35-.05-.17-1.29-4.18,.49-7.3,.86-1.51,2.26-2.54,4.17-3.08-.02-.71,.02-2.2,.59-3.75,.73-1.99,2.49-4.46,6.73-4.93,.27-.02,.52,.17,.55,.44,.03,.28-.17,.52-.44,.55-2.99,.33-4.98,1.77-5.9,4.28-.7,1.9-.51,3.71-.51,3.73,.03,.25-.14,.48-.38,.54-1.84,.43-3.17,1.34-3.94,2.7-1.56,2.74-.42,6.48-.41,6.51,.08,.26-.06,.54-.33,.63-.05,.02-.1,.02-.15,.02Z" fill="#002346"></path>
    <path d="M419.56,223.07c-.05,0-.11,0-.16-.03l-11.13-3.85c-.26-.09-.4-.38-.31-.64,.09-.26,.37-.4,.64-.31l11.13,3.85c.26,.09,.4,.38,.31,.64-.07,.21-.27,.34-.47,.34Z" fill="#002346"></path>
    <path d="M398.15,215.36c-.05,0-.11,0-.17-.03l-17.13-6c-.26-.09-.4-.38-.31-.64,.09-.26,.38-.4,.64-.31l17.13,6c.26,.09,.4,.38,.31,.64-.07,.21-.27,.33-.47,.33Z" fill="#002346"></path>
    <path d="M389.16,205.52c-.11,0-.22-.04-.31-.11-12.22-9.69-38.58-20.48-38.84-20.59-.26-.1-.38-.4-.27-.65s.4-.38,.65-.27c.27,.11,26.75,10.95,39.08,20.73,.22,.17,.25,.49,.08,.7-.1,.12-.24,.19-.39,.19Z" fill="#002346"></path>
    <path d="M386.16,207.66c-.1,0-.2-.03-.28-.09-5.45-3.77-15.63-7.61-15.74-7.65-.26-.1-.39-.38-.29-.64,.1-.26,.38-.39,.64-.29,.42,.16,10.4,3.92,15.95,7.76,.23,.16,.28,.47,.13,.7-.1,.14-.25,.22-.41,.22Z" fill="#002346"></path>
    <path d="M389.16,200.38c-.12,0-.24-.04-.34-.13l-17.13-15.84c-.2-.19-.22-.5-.03-.71s.5-.21,.71-.03l17.13,15.84c.2,.19,.22,.5,.03,.71-.1,.11-.23,.16-.37,.16Z" fill="#002346"></path>
    <path d="M393.87,200.8c-.13,0-.26-.05-.35-.15-8.17-8.17-9.55-20.73-9.56-20.86-.03-.28,.17-.52,.45-.55,.27-.04,.52,.17,.55,.45,.01,.12,1.37,12.34,9.28,20.25,.2,.2,.2,.51,0,.71-.1,.1-.23,.15-.35,.15Z" fill="#002346"></path>
    <path d="M396.87,199.09c-.17,0-.33-.08-.43-.24-4.73-7.75-4.37-21.53-4.36-22.12,0-.28,.23-.46,.51-.48,.28,0,.49,.24,.48,.51,0,.14-.37,14.07,4.21,21.56,.14,.24,.07,.54-.17,.69-.08,.05-.17,.07-.26,.07Z" fill="#002346"></path>
    <path d="M400.29,200.38c-.23,0-.44-.16-.49-.4-1.75-8.38,.15-18.92,.96-23.42,.17-.93,.31-1.74,.31-1.95,0-.28,.22-.5,.5-.5s.5,.22,.5,.5-.1,.85-.33,2.12c-.8,4.44-2.67,14.85-.97,23.04,.06,.27-.12,.54-.39,.59-.03,0-.07,.01-.1,.01Z" fill="#002346"></path>
    <g>
      <path d="M506.07,312.07l2.48,6.45,18.5,3.4-10.68-12.63s-3.88-.64-10.31,2.78Z" fill="#fff"></path>
      <path d="M528.33,322.67l-20.15-3.7-2.74-7.12,.39-.21c6.5-3.46,10.46-2.86,10.63-2.84l.18,.03,11.7,13.84Zm-19.42-4.58l16.85,3.1-9.64-11.41c-.79-.06-4.22-.14-9.43,2.54l2.22,5.77Z" fill="#002346"></path>
    </g>
  </g>
  <g>
    <g>
      <path d="M691.9,203.5c-23,27-48-1-48-1-24,25-49,1-49,1-8.61,8.61-17.03,4.55-22.23,.15-4.84-4.09-6.48-11-3.51-16.59,5.81-10.93,23.25-7.06,23.25-7.06,0,0-7.5-14.5,3.5-22.5,0,0,14-5,19,3,0,0,5-18,28-17,0,0,16,1,21,16,0,0,23-8,30,14,0,0,17-3,17,13,0,0,11-2,17,6,0,0,10.1-5.89,14.08,2.4,.91,1.89,1.15,4.09,.41,6.06-1.02,2.72-3.99,5.58-12.49,2.54,0,0-17,20-38,0Z" fill="#fff"></path>
      <path d="M669.75,215.75c-13.08,0-23.77-10.36-25.86-12.52-12.46,12.71-25.15,12.27-33.64,9.63-8.01-2.49-13.87-7.36-15.34-8.67-8.63,8.32-17.02,4.53-22.57-.15-5.11-4.32-6.64-11.56-3.63-17.21,5.12-9.63,19.05-8.1,22.84-7.49-1.42-3.34-5.56-15.24,4.06-22.24l.13-.07c.57-.2,13.48-4.71,19.02,2.39,1.46-3.75,8.13-17.25,28.17-16.42,.17,.01,16.07,1.17,21.29,15.87,2.2-.67,11.39-3.06,19.49,1,4.93,2.47,8.48,6.86,10.54,13.07,1.76-.24,8.42-.81,12.94,2.99,2.68,2.25,4.09,5.61,4.21,9.99,2.35-.27,11.29-.79,16.64,5.93,1.32-.69,5.71-2.72,9.62-1.52,2.09,.64,3.7,2.1,4.78,4.34,1.02,2.12,1.17,4.47,.43,6.45-1.12,2.99-4.26,5.9-12.81,2.95-1.32,1.45-8.03,8.26-17.81,8.78-6.93,.36-13.76-2.54-20.3-8.64-6.57,7.55-13.94,11.43-21.9,11.52-.1,0-.19,0-.29,0Zm-25.84-13.98l.36,.4c.11,.13,11.41,12.58,25.48,12.58,.09,0,.19,0,.28,0,7.8-.09,15.02-3.98,21.48-11.57l.34-.4,.38,.36c6.45,6.14,13.16,9.08,19.93,8.72,10.29-.54,17.27-8.6,17.34-8.68l.22-.26,.33,.12c6.35,2.27,10.45,1.49,11.86-2.25,.65-1.73,.51-3.79-.39-5.66-.95-1.98-2.35-3.26-4.16-3.82-4.15-1.27-9.17,1.61-9.22,1.63l-.38,.22-.27-.36c-5.74-7.65-16.4-5.83-16.51-5.81l-.59,.11v-.6c0-4.35-1.3-7.65-3.85-9.8-4.79-4.02-12.48-2.72-12.56-2.71l-.43,.08-.13-.42c-1.96-6.15-5.38-10.49-10.17-12.88-8.7-4.36-19.09-.83-19.19-.79l-.48,.17-.16-.48c-4.83-14.5-20.4-15.65-20.56-15.66-22.31-1-27.29,15.92-27.49,16.63l-.31,1.09-.6-.96c-4.56-7.29-17.31-3.17-18.34-2.82-10.43,7.66-3.36,21.68-3.29,21.82l.49,.95-1.04-.23c-.17-.04-17.13-3.66-22.7,6.8-2.79,5.24-1.36,11.96,3.39,15.98,5.3,4.48,13.34,8.09,21.56-.12l.35-.35,.35,.34c1.01,.96,24.92,23.36,48.29-.99l.37-.39Z" fill="#002346"></path>
    </g>
    <path d="M601.76,185.98c-7.09-2.02-9.66-5.54-9.77-5.69l.81-.58s2.51,3.39,9.23,5.31l-.27,.96Z" fill="#002346"></path>
    <path d="M615.34,171.72l-.89-.45c1.89-3.78-.01-10.57-.03-10.64l.96-.28c.08,.29,2.03,7.23-.03,11.36Z" fill="#002346"></path>
    <path d="M661.36,179.68l-.93-.36c4.87-12.66,3.01-19.62,2.99-19.68l.96-.27c.08,.29,1.99,7.31-3.01,20.32Z" fill="#002346"></path>
    <path d="M686.33,178.76l-.86-.51c3.11-5.18,8.21-5.24,8.43-5.24v1c-.19,0-4.76,.07-7.57,4.76Z" fill="#002346"></path>
    <path d="M708.2,193.9l-.6-.8c3.67-2.75,2.85-6.33,2.81-6.48l.97-.24c.04,.18,1.03,4.36-3.19,7.52Z" fill="#002346"></path>
    <path d="M730.4,196.5h-1c0-1.77-1.84-3.63-1.85-3.65l.71-.71c.09,.09,2.15,2.17,2.15,4.35Z" fill="#002346"></path>
  </g>
  <g>
    <g>
      <path d="M178.4,208s-7.62,.69-13.07,5.74c-11.33,10.49-2.35,28.97,12.97,27.01,3.82-.49,8.33-2.04,13.6-5.25,0,0,30,25,54,5,0,0,18.17,11.14,32.08,1.1,15.63-11.29,9.96-36.18-8.95-39.94-4.35-.87-9.66-1.03-16.12-.16,0,0-4-12-18-4,0,0-1-18-25-17,0,0-14,0-20,17,0,0-13-7-11.5,10.5Z" fill="#fff"></path>
      <path d="M224.8,248.7c-16.29,0-30.76-10.88-32.94-12.59-4.79,2.88-9.33,4.61-13.5,5.14-7.3,.93-14-2.72-17.08-9.3-3-6.42-1.54-13.71,3.71-18.57,4.78-4.43,11.07-5.57,12.88-5.82-.41-5.61,.67-9.3,3.21-10.97,3.02-1.99,7.11-.44,8.55,.22,6.15-16.61,20.14-16.81,20.28-16.81,21.32-.89,24.86,13.21,25.41,16.7,4.58-2.47,8.59-3.08,11.93-1.81,3.8,1.45,5.51,4.89,5.99,6.06,5.96-.77,11.3-.7,15.89,.21,9.03,1.8,15.87,8.58,17.86,17.7,1.96,8.98-1.38,17.84-8.71,23.13-13.01,9.39-29.83,.51-32.32-.9-6.83,5.59-14.16,7.59-21.15,7.59Zm-32.85-13.81l.27,.23c.3,.25,29.96,24.5,53.36,5l.28-.23,.31,.19c.18,.11,18.05,10.84,31.52,1.12,7-5.05,10.19-13.53,8.32-22.11-1.9-8.73-8.44-15.22-17.08-16.94-4.58-.91-9.95-.96-15.96-.15l-.41,.06-.13-.39s-1.48-4.28-5.56-5.83c-3.2-1.22-7.14-.51-11.72,2.11l-.7,.4-.05-.81c-.04-.71-1.27-17.51-24.48-16.53-.16,0-13.74,.22-19.55,16.67l-.19,.55-.51-.28s-4.9-2.58-8.05-.51c-2.28,1.5-3.19,5.04-2.72,10.53l.04,.5-.5,.05c-.07,0-7.52,.74-12.78,5.61-5.98,5.54-5.72,12.62-3.48,17.41,2.89,6.18,9.19,9.62,16.05,8.73,4.11-.53,8.62-2.27,13.4-5.18l.31-.19Z" fill="#002346"></path>
    </g>
    <path d="M246.36,210.7l-.92-.39c3.04-7.09,7.07-9.17,7.24-9.25l.45,.89s-3.89,2.03-6.77,8.75Z" fill="#002346"></path>
    <path d="M190.54,207.85c-3.17-3.17-1.21-10.19-1.13-10.49l.96,.27c-.02,.07-1.88,6.75,.87,9.51l-.71,.71Z" fill="#002346"></path>
    <path d="M238.67,206.95c-4.23-2.11-4.28-9.15-4.28-9.45h1c0,.07,.05,6.72,3.72,8.55l-.45,.89Z" fill="#002346"></path>
    <path d="M182.4,213.5h-1c0-2.7-3.26-5.07-3.29-5.09l.58-.81c.15,.11,3.71,2.69,3.71,5.91Z" fill="#002346"></path>
  </g>
  <g>
    <g>
      <path d="M286.56,525.3s-62.73-.48-64.17-79.12c-.39-21.45,4.09-42.7,12.68-62.36,12.98-29.71,37.93-83.43,53.87-96.31,2.82-2.27,6.9-2.02,9.41,.59,13.37,13.9,61.22,70.03,65.74,165.62,0,0-2.66,83.6-77.53,71.58Z" fill="#f69074"></path>
      <path d="M300.65,526.98c-4.51,0-9.22-.39-14.14-1.18-.9-.02-16.36-.48-31.76-10.14-14.58-9.14-32.11-28.62-32.86-69.47-.38-21,4.01-42.64,12.72-62.57,13.33-30.51,38.08-83.62,54.01-96.5,3.04-2.46,7.37-2.18,10.08,.63,14.32,14.88,61.38,70.84,65.88,165.94-.01,.44-1.56,40.09-26.62,60.77-10.09,8.33-22.6,12.51-37.32,12.51Zm-7.33-240.53c-1.43,0-2.87,.48-4.07,1.45-15.77,12.74-40.43,65.69-53.73,96.12-8.65,19.8-13.02,41.29-12.64,62.15,.74,40.4,18.02,59.63,32.39,68.64,15.56,9.76,31.13,9.99,31.28,9.99h.08c20.68,3.33,37.73-.41,50.69-11.1,24.71-20.39,26.25-59.6,26.26-59.99-4.48-94.72-51.34-150.44-65.6-165.26-1.27-1.33-2.96-2-4.66-2Z" fill="#002346"></path>
    </g>
    <g>
      <polygon points="293.58 325.41 290.95 393.73 267.3 371.83 289.2 405.11 289.2 436.64 252.42 399.86 288.32 445.4 288.32 475.18 247.6 442.34 287.89 487 285.26 617.5 301.9 617.5 300.15 487.88 340.44 442.34 299.27 475.62 299.27 446.72 336.93 400.3 299.27 434.45 299.27 402.92 320.29 373.15 298.4 394.17 293.58 325.41" fill="#002346"></polygon>
      <path d="M301.9,618h-16.64c-.13,0-.26-.05-.36-.15-.09-.1-.15-.23-.14-.36l2.62-130.3-40.16-44.52c-.17-.19-.17-.49,0-.68,.18-.19,.47-.21,.68-.05l39.91,32.19v-28.56l-35.8-45.41c-.16-.21-.14-.51,.06-.68,.2-.17,.5-.17,.69,.02l35.93,35.93v-30.17l-21.81-33.16c-.14-.21-.1-.49,.09-.66,.19-.16,.48-.16,.66,.01l22.85,21.16,2.59-67.23c.01-.26,.23-.48,.49-.48,.28,.04,.49,.2,.51,.46l4.74,67.69,21.13-20.28c.19-.18,.48-.19,.67-.02,.2,.17,.23,.46,.08,.67l-20.93,29.65v30.24l36.83-33.4c.19-.18,.49-.17,.68,0,.19,.18,.21,.48,.04,.68l-37.55,46.28v27.68l40.35-32.62c.2-.16,.5-.15,.68,.04,.18,.19,.19,.48,.01,.68l-40.16,45.4,1.75,129.43c0,.13-.05,.26-.14,.36-.09,.09-.22,.15-.36,.15Zm-16.13-1h15.62l-1.74-129.12c0-.12,.04-.25,.13-.34l36.32-41.06-36.51,29.52c-.15,.12-.36,.15-.53,.06-.17-.08-.28-.26-.28-.45v-28.9c0-.11,.04-.23,.11-.32l33.54-41.34-32.81,29.76c-.15,.13-.36,.17-.54,.09-.18-.08-.3-.26-.3-.46v-31.53c0-.1,.03-.2,.09-.29l18.01-25.52-18.13,17.41c-.14,.14-.35,.18-.53,.11-.18-.07-.31-.24-.32-.43l-4.17-59.56-2.27,59.11c0,.19-.13,.37-.31,.44-.18,.07-.39,.04-.53-.09l-20.63-19.1,19.64,29.85c.05,.08,.08,.18,.08,.27v31.53c0,.2-.12,.38-.31,.46-.19,.08-.4,.03-.54-.11l-30.79-30.79,30.66,38.88c.07,.09,.11,.2,.11,.31v29.78c0,.19-.11,.37-.28,.45-.17,.08-.38,.06-.53-.06l-35.82-28.89,36.06,39.98c.09,.09,.13,.22,.13,.34l-2.62,129.99Z" fill="#002346"></path>
    </g>
  </g>
  <g>
    <circle cx="148.41" cy="315.93" r="68.58" fill="#7cd295"></circle>
    <path d="M148.41,385.01c-38.09,0-69.08-30.99-69.08-69.08s30.99-69.08,69.08-69.08,69.08,30.99,69.08,69.08-30.99,69.08-69.08,69.08Zm0-137.16c-37.54,0-68.08,30.54-68.08,68.08s30.54,68.08,68.08,68.08,68.08-30.54,68.08-68.08-30.54-68.08-68.08-68.08Z" fill="#002346"></path>
  </g>
  <g>
    <circle cx="119.13" cy="397.09" r="65.5" fill="#7cd295"></circle>
    <path d="M119.13,463.09c-36.39,0-66-29.61-66-66s29.61-66,66-66,66,29.61,66,66-29.61,66-66,66Zm0-131c-35.84,0-65,29.16-65,65s29.16,65,65,65,65-29.16,65-65-29.16-65-65-65Z" fill="#002346"></path>
  </g>
  <g>
    <circle cx="200.3" cy="422.27" r="41.87" fill="#7cd295"></circle>
    <path d="M200.3,464.63c-23.36,0-42.37-19.01-42.37-42.37s19.01-42.37,42.37-42.37,42.37,19.01,42.37,42.37-19.01,42.37-42.37,42.37Zm0-83.74c-22.81,0-41.37,18.56-41.37,41.37s18.56,41.37,41.37,41.37,41.37-18.56,41.37-41.37-18.56-41.37-41.37-41.37Z" fill="#002346"></path>
  </g>
  <g>
    <circle cx="201.84" cy="356" r="57.79" fill="#7cd295"></circle>
    <path d="M201.84,414.29c-32.14,0-58.29-26.15-58.29-58.29s26.15-58.29,58.29-58.29,58.29,26.15,58.29,58.29-26.15,58.29-58.29,58.29Zm0-115.59c-31.59,0-57.29,25.7-57.29,57.29s25.7,57.29,57.29,57.29,57.29-25.7,57.29-57.29-25.7-57.29-57.29-57.29Z" fill="#002346"></path>
  </g>
  <g>
    <circle cx="113.48" cy="350.86" r="57.79" fill="#7cd295"></circle>
    <path d="M113.48,409.15c-32.14,0-58.29-26.15-58.29-58.29s26.15-58.29,58.29-58.29,58.29,26.15,58.29,58.29-26.15,58.29-58.29,58.29Zm0-115.59c-31.59,0-57.29,25.7-57.29,57.29s25.7,57.29,57.29,57.29,57.29-25.7,57.29-57.29-25.7-57.29-57.29-57.29Z" fill="#002346"></path>
  </g>
  <g>
    <path d="M242.16,389.13l-1.02,6.67-15.93-4.11c-24.14,8.22-31.85-6.16-31.85-6.16-12.91,11.74-19.87,25.87-22.45,31.93-1.06,2.5-1.55,5.23-1.3,7.94,.76,7.98,6.8,5.34,6.8,5.34,20.55-10.79,19.52-34.94,19.52-34.94h5.65c-2.57,22.61,17.47,12.33,17.47,12.33v6.68c-11.82,0-12.85,4.11-12.85,4.11-1.54,6.17,9.76,4.62,9.76,4.62v4.11c-15.41-2.56-8.73,10.79-8.73,10.79h-4.11c-.51-16.95-9.76-12.84-9.76-12.84l-8.22,4.62c-10.27,4.63-10.27,23.12-10.27,23.12l.51,30.82c1.39,27.4,4.67,49.14,7.86,64.73-.94-1.18-1.86-2.36-2.77-3.55-9.51-12.37-18.17-25.42-25.9-39.07l4.11-54.73c0-22.09-11.3-27.22-11.3-27.22l-15.67-9.51c-5.57-2.94-10.35-6.21-14.31-9.35-9.18-7.25-13.94-13.77-13.94-13.77-6.16,1.55-18.49,10.28-18.49,10.28l-4.11-6.17,5.65-5.65c5.65-7.19-7.19-10.27-7.19-10.27l3.59-5.14c3.6,6.17,14.9,7.71,14.9,7.71,2.57-16.44-14.9-30.83-14.9-30.83l6.17-4.11c12.33,14.9,17.98-2.56,17.98-2.56l4.28,2.37,.34,.19c-.11,.21-.23,.42-.33,.63-13.84,26.28-.7,37.9-.7,37.9,2.57-3.59,1.54-15.92,1.54-15.92l.3,.02,6.38,.49c-1.03,14.9,10.79,7.71,10.79,7.71l1.54,4.11c-9.25,2.57-15.92,9.24-15.92,9.24,4.11,3.6,12.84,9.25,12.84,9.25,9.76,3.6,29.79,17.47,29.79,17.47l5.14-12.85c-15.92-1.54-24.14-20.03-24.14-20.03-6.68-16.95-16.44-22.09-16.44-22.09l5.65-4.62c13.87,15.41,17.47-3.09,17.47-3.09l5.13,3.09c-13.35,24.66,2.06,32.36,2.06,32.36,16.95,12.84,39.04-15.41,39.04-15.41-1.54-6.17-19.52-7.71-19.52-7.71l2.57-5.13c17.46,5.65,12.33-12.33,12.33-12.33h4.62c.51,21.57,7.71,19,7.71,19,11.81-7.19,10.78-29.28,10.78-29.28h7.2c-3.09,22.09,15.41,12.85,15.41,12.85v6.67c-15.41-3.08-27.23,11.31-27.23,11.31-8.73,7.7,.51,13.35,.51,13.35,16.96,10.79,25.69-10.79,25.69-10.79l4.11,2.57c-13.36,12.33,6.16,12.85,6.16,12.85Z" fill="#002346"></path>
    <path d="M183.24,549.4c-.15,0-.29-.07-.39-.19-.94-1.18-1.86-2.37-2.78-3.56-9.52-12.39-18.25-25.55-25.94-39.13-.05-.09-.07-.18-.06-.28l4.11-54.73c0-21.42-10.9-26.68-11.01-26.73l-15.72-9.54c-5-2.64-9.84-5.8-14.36-9.39-8.07-6.38-12.81-12.27-13.82-13.59-6.1,1.72-17.89,10.03-18.01,10.12-.11,.08-.25,.11-.38,.08-.13-.02-.25-.1-.32-.21l-4.11-6.17c-.13-.2-.11-.46,.06-.63l5.65-5.65c1.17-1.5,1.56-2.93,1.1-4.23-1.22-3.52-7.99-5.18-8.06-5.2-.16-.04-.29-.15-.35-.31-.06-.16-.04-.33,.06-.46l3.59-5.14c.1-.14,.26-.19,.43-.21,.17,0,.33,.1,.41,.25,3.02,5.17,11.86,7.01,14.05,7.39,2.07-15.77-14.62-29.73-14.8-29.87-.12-.1-.19-.25-.18-.41,0-.16,.09-.3,.22-.39l6.17-4.11c.21-.14,.5-.1,.66,.1,3.62,4.38,6.97,6.31,9.94,5.74,4.78-.91,7.16-8.06,7.18-8.14,.05-.14,.15-.26,.29-.31s.3-.04,.43,.03l4.62,2.56c.24,.13,.32,.43,.2,.67l-.11,.2c-.07,.14-.15,.27-.21,.41-12.03,22.85-3.34,34.54-1.24,36.87,2.03-3.96,1.14-14.95,1.13-15.07-.01-.15,.04-.29,.14-.39s.25-.16,.39-.15l.3,.02,6.38,.49c.27,.02,.48,.26,.46,.53-.3,4.39,.49,7.19,2.35,8.33,2.91,1.77,7.63-1.05,7.68-1.08,.13-.08,.28-.09,.42-.04,.14,.05,.25,.16,.3,.3l1.54,4.11c.05,.13,.04,.28-.02,.4-.06,.12-.18,.22-.31,.25-7.76,2.16-13.76,7.31-15.31,8.74,4.02,3.4,11.65,8.38,12.32,8.82,8.85,3.28,26.13,14.96,29.33,17.15l4.66-11.66c-15.6-1.99-23.81-20.07-23.89-20.25-6.53-16.57-16.12-21.8-16.22-21.85-.15-.08-.25-.23-.26-.39s.05-.33,.18-.44l5.65-4.62c.21-.17,.51-.15,.69,.05,4.18,4.65,7.77,6.6,10.68,5.79,4.43-1.23,5.92-8.57,5.93-8.64,.03-.16,.14-.29,.29-.36,.15-.07,.32-.05,.46,.03l5.13,3.09c.23,.14,.31,.43,.18,.67-5,9.23-6.53,17.09-4.56,23.37,1.87,5.96,6.36,8.28,6.41,8.3,15.7,11.89,36.25-12.6,38.26-15.07-1.84-5.57-18.84-7.09-19.01-7.1-.17-.01-.31-.11-.39-.25-.08-.14-.08-.32-.01-.47l2.57-5.13c.11-.22,.37-.33,.6-.25,4.9,1.58,8.4,1.42,10.39-.5,3.49-3.37,1.33-11.14,1.31-11.22-.04-.15-.01-.31,.08-.44,.09-.13,.24-.2,.4-.2h4.62c.27,0,.49,.22,.5,.49,.29,12.33,2.73,16.59,4.73,18,1.13,.79,2.06,.61,2.27,.56,11.36-6.99,10.5-28.58,10.49-28.8,0-.14,.04-.27,.14-.37,.09-.1,.23-.15,.36-.15h7.2c.14,0,.28,.06,.38,.17s.14,.25,.12,.4c-.92,6.6,0,10.96,2.77,12.95,4.32,3.11,11.84-.58,11.92-.62,.16-.08,.34-.07,.49,.02,.15,.09,.24,.25,.24,.42v6.67c0,.15-.07,.29-.18,.39-.12,.1-.27,.14-.41,.1-14.93-2.98-26.63,11-26.75,11.14-2.61,2.31-3.81,4.58-3.62,6.8,.3,3.49,3.97,5.78,4,5.8,4.45,2.83,8.71,3.62,12.67,2.36,8.02-2.57,12.26-12.81,12.3-12.91,.06-.14,.17-.24,.31-.29s.29-.03,.42,.05l4.11,2.57c.13,.08,.22,.22,.23,.38s-.04,.31-.16,.41c-3.61,3.33-5.07,6.02-4.33,7.99,1.39,3.71,10.08,3.99,10.16,3.99,.14,0,.28,.07,.37,.18,.09,.11,.13,.25,.11,.4l-1.02,6.67c-.02,.14-.1,.26-.22,.34-.12,.08-.26,.1-.4,.07l-15.79-4.07c-21.45,7.24-30.22-3.35-31.97-5.91-12.69,11.72-19.52,25.8-21.89,31.35-1.06,2.5-1.5,5.16-1.26,7.7,.23,2.45,1,4.07,2.26,4.83,1.7,1,3.82,.11,3.84,.1,20-10.5,19.23-34.22,19.22-34.46,0-.14,.04-.27,.14-.37,.09-.1,.22-.15,.36-.15h5.65c.14,0,.28,.06,.37,.17,.09,.11,.14,.25,.12,.39-.74,6.51,.35,10.82,3.23,12.81,4.88,3.37,13.43-.94,13.52-.99,.15-.08,.34-.07,.49,.02s.24,.25,.24,.43v6.68c0,.28-.22,.5-.5,.5-11.15,0-12.36,3.7-12.37,3.74-.27,1.08-.12,1.92,.46,2.57,2.07,2.31,8.68,1.44,8.75,1.43,.14-.02,.29,.02,.4,.12,.11,.09,.17,.23,.17,.38v4.11c0,.15-.06,.29-.18,.38s-.26,.14-.41,.11c-4.46-.74-7.4-.2-8.74,1.61-2.17,2.94,.51,8.41,.54,8.46,.08,.16,.07,.34-.02,.49-.09,.15-.25,.24-.43,.24h-4.11c-.27,0-.49-.21-.5-.49-.19-6.25-1.64-10.41-4.21-12.03-2.33-1.46-4.82-.38-4.85-.37l-8.18,4.6c-9.9,4.47-10.02,22.5-10.02,22.68l.51,30.81c1.18,23.18,3.82,44.93,7.85,64.64,.05,.23-.07,.46-.28,.55-.07,.03-.14,.05-.21,.05Zm-28.16-43.23c7.65,13.49,16.32,26.57,25.79,38.88,.49,.64,.98,1.27,1.47,1.9-3.81-19.21-6.32-40.31-7.46-62.75l-.51-30.84c0-.78,.12-18.87,10.56-23.58l8.18-4.6c.16-.08,3.06-1.33,5.83,.42,2.83,1.78,4.4,5.94,4.66,12.36h2.85c-.71-1.71-2.17-6.02-.13-8.78,1.51-2.05,4.58-2.75,9.13-2.09v-2.97c-1.75,.17-7.01,.47-9.06-1.82-.81-.9-1.04-2.07-.69-3.49,.05-.18,1.23-4.37,12.84-4.49v-5.39c-2.27,1.02-9.27,3.72-13.81,.57-3.12-2.16-4.37-6.6-3.71-13.19h-4.59c0,3.61-.88,24.95-19.79,34.88-.14,.06-2.63,1.12-4.77-.14-1.56-.92-2.49-2.8-2.76-5.6-.25-2.7,.21-5.53,1.34-8.18,2.42-5.68,9.46-20.18,22.57-32.1,.11-.1,.27-.15,.42-.12,.15,.03,.28,.12,.36,.25,.08,.14,7.83,13.9,31.25,5.92,.09-.03,.19-.04,.29-.01l15.39,3.97,.85-5.58c-2.07-.13-9.09-.84-10.51-4.61-.86-2.29,.52-5.19,4.11-8.63l-3.07-1.92c-1.01,2.24-5.21,10.55-12.68,12.94-4.25,1.36-8.8,.53-13.51-2.46-.16-.1-4.12-2.56-4.47-6.56-.22-2.56,1.09-5.11,3.9-7.59,.06-.09,11.83-14.16,27.06-11.54v-5.29c-2.09,.9-8.2,3.1-12.22,.2-3.01-2.16-4.1-6.64-3.26-13.33h-6.11c.08,3.49,.01,22.48-11.04,29.21-.03,.02-.06,.03-.09,.04-.06,.02-1.5,.51-3.18-.64-2.18-1.5-4.83-5.9-5.19-18.33h-3.49c.47,2.04,1.6,8.35-1.74,11.57-2.22,2.14-5.91,2.43-10.98,.86l-2.05,4.1c3.47,.37,17.79,2.24,19.23,8.02,.04,.15,0,.31-.09,.43-.18,.23-15,18.92-29.75,18.92-3.39,0-6.78-.99-9.99-3.42-.12-.05-4.82-2.46-6.82-8.82-2.04-6.46-.56-14.45,4.4-23.76l-4.13-2.49c-.5,1.98-2.28,7.56-6.48,8.72-3.22,.9-7.04-1.04-11.37-5.73l-4.73,3.87c2.31,1.46,10.26,7.33,16.03,21.97,.07,.16,8.28,18.22,23.72,19.72,.16,.02,.3,.1,.38,.24,.08,.13,.1,.3,.04,.45l-5.14,12.85c-.06,.14-.17,.25-.32,.29-.15,.05-.3,.02-.43-.07-.2-.14-20.09-13.88-29.68-17.41-.03-.01-.07-.03-.1-.05-.09-.06-8.81-5.71-12.9-9.29-.1-.09-.17-.22-.17-.36,0-.14,.05-.27,.15-.37,.07-.07,6.61-6.54,15.62-9.22l-1.15-3.06c-1.42,.75-5.36,2.51-8.19,.79-2.13-1.3-3.09-4.24-2.86-8.75l-5.61-.43c.17,2.53,.67,12.39-1.67,15.67-.08,.12-.21,.19-.35,.21-.14,.02-.28-.03-.39-.12-.13-.12-13.27-12.19,.59-38.51,.03-.06,.06-.13,.1-.2l-3.68-2.04c-.7,1.82-3.17,7.37-7.74,8.24-3.28,.63-6.84-1.3-10.61-5.74l-5.25,3.5c2.87,2.56,16.9,15.93,14.57,30.85-.04,.27-.29,.46-.56,.42-.45-.06-10.82-1.54-14.85-7.31l-2.76,3.95c1.88,.55,6.91,2.32,8.07,5.65,.57,1.64,.13,3.4-1.3,5.22l-5.4,5.4,3.6,5.4c2.25-1.57,12.63-8.65,18.24-10.06,.2-.05,.41,.03,.53,.19,.05,.06,4.83,6.55,13.85,13.67,4.47,3.55,9.26,6.68,14.23,9.3l15.7,9.52c.42,.19,11.54,5.49,11.54,27.65l-4.1,54.62Z" fill="#002346"></path>
  </g>
  <g>
    <path d="M777.07,329.35c14.06-13.29,14.63-35.72,2.31-53.18-6.14-8.7-14.96-17.04-25.88-17.38-1.85-8.67-6.82-16.48-13.83-21.93-5.81-4.52-14.65-8.82-22.23-6.97-1.05,.26-2.06,.62-3.02,1.06-2.79-6.44-7.57-11.57-15.71-11.79-6.82-.19-13.06,5.13-15.45,11.56-9.82-5.31-23.47-2.74-32.55,6.19-9.97,9.81-15.61,28.62-10.75,42.76-20.27,3.22-34.18,22.2-31.96,43.37,1.16,11.07,6.3,22.53,14.96,29.77,.32,.26,.66,.49,.99,.73-2.05,6.64-1.29,14.35,2.48,20.49,4.5,7.31,10.78,10.22,17.41,10.24,1.68,10.43,9.72,19.47,19.68,23.84,11.45,5.02,22.68,.61,30.28-7.79,6.46,7.46,16.93,12.21,26.03,10.69,13.31-2.22,19.45-14.39,20.56-26.87,11.55-.52,24.58-7.08,31.63-13.79,7.64-7.28,12.37-16.19,10.14-26.87-1.03-4.92-2.68-9.78-5.1-14.13Z" fill="#76ce8d"></path>
    <path d="M716.34,411.73c-7.92,0-16.56-4.05-22.54-10.75-8.64,9.3-19.99,12.12-30.45,7.54-10.36-4.54-18.13-13.86-19.88-23.81-7.28-.14-13.29-3.74-17.41-10.44-3.68-5.98-4.65-13.64-2.62-20.54l-.04-.03c-.24-.17-.49-.35-.72-.54-8.21-6.86-13.86-18.1-15.12-30.06-2.22-21.17,11.72-40.29,31.82-43.76-4.41-13.6,.38-32.25,11.02-42.72,9.04-8.89,22.67-11.58,32.62-6.5,2.73-6.8,9.3-11.58,15.69-11.38,7.17,.2,12.52,4.12,15.92,11.65,.89-.38,1.79-.68,2.7-.91,9.56-2.33,19.72,4.81,22.6,7.05,7.07,5.5,12,13.25,13.92,21.85,11.51,.53,20.42,9.81,25.88,17.55,12.57,17.79,11.66,40.23-2.12,53.51,2.23,4.08,3.91,8.77,4.98,13.95,2.02,9.69-1.44,18.86-10.27,27.28-6.76,6.44-19.71,13.23-31.53,13.9-1.44,14.9-9.23,24.94-20.89,26.89-1.16,.19-2.36,.29-3.57,.29Zm-22.53-12.07l.32,.38c6.7,7.75,17,11.98,25.63,10.54,11.33-1.89,18.88-11.79,20.19-26.48l.03-.38,.38-.02c11.71-.53,24.64-7.28,31.35-13.67,8.6-8.19,11.97-17.09,10.02-26.46-1.09-5.22-2.79-9.93-5.06-14l-.17-.3,.25-.23c13.69-12.94,14.64-35.07,2.25-52.6-5.41-7.65-14.22-16.84-25.54-17.19h-.34s-.07-.35-.07-.35c-1.82-8.53-6.67-16.23-13.67-21.67-5.78-4.5-14.56-8.67-21.85-6.89-.99,.24-1.98,.59-2.94,1.03l-.41,.19-.18-.41c-3.24-7.46-8.39-11.34-15.32-11.53-.11,0-.22,0-.33,0-6.11,0-12.25,4.69-14.7,11.28l-.18,.47-.44-.24c-9.65-5.21-23.12-2.64-32.03,6.12-10.38,10.21-15.15,29.19-10.64,42.3l.17,.49-.52,.08c-19.91,3.16-33.78,22-31.59,42.89,1.23,11.74,6.77,22.76,14.81,29.48,.21,.18,.44,.34,.66,.5l.55,.4-.09,.3c-2.08,6.74-1.17,14.27,2.43,20.13,4.02,6.54,9.92,10.01,17.04,10.03h.37s.06,.37,.06,.37c1.58,9.8,9.2,19.03,19.42,23.51,10.23,4.49,21.37,1.62,29.78-7.68l.33-.37Z" fill="#002346"></path>
  </g>
  <g>
    <path d="M809.02,284.73c-3.46-6.93-11.24-12.42-19.68-14.82-5.42-17.89-29.4-26.54-47.52-24.26-16.75,2.11-32.04,16.89-33.47,33.82-6.46,2.47-12.32,7.66-15.28,13.52-5.04,9.96-5.29,23.6-.2,34.02-2.36,4.77-2.42,10.38,1.43,15.78,1.64,2.29,4.34,4.17,7.45,5.47,.76,4.42,2.64,8.78,5.91,12.79,9.09,11.13,21.79,11.66,31.7,4.69,7.69,7.89,19.35,11.46,30.11,9,10.87-2.49,20.39-10.77,24.15-21.33,1.77-4.98,2.28-10.79,.77-15.7,3.09-1.56,5.76-3.79,7.2-6.21,2.17-3.64,1.56-7.83-.55-11.32,10-8.48,14.74-21.87,7.97-35.45Z" fill="#7cd295"></path>
    <path d="M762.71,375.93c-8.6,0-17.25-3.46-23.4-9.62-10.89,7.45-23.41,5.51-31.99-4.99-3.11-3.81-5.12-8.1-5.97-12.75-3.28-1.41-5.84-3.31-7.42-5.53-3.57-5-4.12-10.69-1.56-16.03-4.96-10.33-4.85-24.05,.29-34.21,2.98-5.88,8.81-11.09,15.26-13.63,1.55-16.59,16.66-31.78,33.82-33.94,18.78-2.36,42.44,6.84,47.93,24.34,8.85,2.58,16.4,8.3,19.73,14.98h0c6.25,12.52,3.25,26.18-7.79,35.74,2.24,3.92,2.38,8.08,.36,11.45-1.39,2.33-3.95,4.58-7.05,6.21,1.33,4.64,1.01,10.31-.89,15.63-3.77,10.59-13.37,19.07-24.46,21.61-2.25,.51-4.56,.77-6.87,.77Zm-23.29-10.77l.26,.27c7.58,7.78,19.24,11.27,29.7,8.88,10.81-2.47,20.16-10.73,23.83-21.05,1.88-5.28,2.16-10.9,.77-15.43l-.11-.35,.33-.17c3.11-1.57,5.67-3.77,7.02-6.04,1.9-3.18,1.7-7.14-.55-10.87l-.19-.32,.28-.24c8.59-7.28,15.16-20.28,7.86-34.92-3.25-6.52-10.69-12.11-19.41-14.59l-.23-.07-.07-.23c-5.22-17.22-28.55-26.29-47.05-23.95-16.87,2.13-31.71,17.12-33.08,33.42l-.02,.27-.26,.1c-6.36,2.43-12.13,7.53-15.05,13.31-5.06,10-5.14,23.51-.19,33.63l.09,.19-.1,.19c-2.52,5.1-2.02,10.54,1.39,15.33,1.5,2.1,4.08,3.99,7.26,5.32l.22,.09,.04,.24c.79,4.6,2.75,8.83,5.82,12.58,8.35,10.22,20.56,12.03,31.11,4.61l.31-.22Z" fill="#002346"></path>
  </g>
  <g>
    <path d="M707.67,361.05c9.09,11.13,21.79,11.66,31.7,4.69,7.69,7.89,19.35,11.46,30.11,9,10.87-2.49,20.39-10.77,24.15-21.33,1.77-4.98,2.28-10.79,.77-15.7,3.09-1.56,5.76-3.79,7.2-6.21,1.01-1.69,1.4-3.5,1.33-5.31-11.18,8.14-25.87,3.15-25.87,3.15,0,0-.9,13.62-16.07,19.9-15.18,6.28-15.03-21.98-15.03-21.98,0,0-17.43,13.12-26.15-5.41-7.54-16.01,7.33-28.35,7.33-28.35-5.07-.3-10.77-3.91-8.37-25.04,.73-6.4,6.13-13.7,9.39-18.15-10.67,6.06-18.79,17.04-19.81,29.15-6.46,2.47-12.32,7.66-15.28,13.52-5.04,9.96-5.29,23.6-.2,34.02-2.36,4.77-2.42,10.38,1.43,15.78,1.64,2.29,4.34,4.17,7.45,5.47,.76,4.42,2.64,8.78,5.91,12.79Z" fill="#76ce8d"></path>
    <path d="M762.71,375.93c-8.6,0-17.25-3.46-23.4-9.62-10.89,7.45-23.41,5.51-31.99-4.99-3.11-3.81-5.12-8.1-5.97-12.75-3.28-1.41-5.84-3.31-7.42-5.53-3.57-5-4.12-10.69-1.56-16.03-4.96-10.33-4.85-24.05,.29-34.21,2.98-5.88,8.81-11.09,15.26-13.63,1.09-11.64,8.73-22.81,20.01-29.22l1.79-1.01-1.36,1.85c-3.17,4.32-8.47,11.54-9.17,17.74-1.25,11.07-.39,18.48,2.58,22,1.32,1.57,3.09,2.41,5.39,2.54l1.11,.07-.85,.71c-.15,.12-14.51,12.32-7.21,27.83,2.42,5.14,5.74,8.26,9.88,9.29,7.61,1.88,15.53-3.98,15.61-4.04l.71-.53v.89c0,.17-.01,16.79,6.73,21.32,2.1,1.41,4.68,1.49,7.68,.25,14.73-6.1,15.8-19.39,15.8-19.52l.04-.57,.54,.18c.14,.05,14.6,4.81,25.47-3.09l.67-.49,.03,.83c.07,2.01-.4,3.88-1.39,5.55-1.39,2.33-3.95,4.58-7.05,6.21,1.33,4.64,1.01,10.31-.89,15.63-3.77,10.59-13.37,19.07-24.46,21.61-2.25,.51-4.56,.77-6.87,.77Zm-23.29-10.77l.26,.27c7.58,7.78,19.24,11.27,29.7,8.88,10.81-2.47,20.16-10.73,23.83-21.05,1.88-5.28,2.16-10.9,.77-15.43l-.11-.35,.33-.17c3.11-1.57,5.67-3.77,7.02-6.04,.77-1.29,1.19-2.71,1.27-4.24-9.95,6.68-22.38,3.65-25.05,2.88-.37,2.63-2.76,14.14-16.28,19.73-3.29,1.36-6.15,1.25-8.51-.34-6.31-4.24-7.03-17.68-7.11-21.22-2.15,1.43-8.89,5.39-15.65,3.71-4.41-1.09-7.93-4.38-10.47-9.77-6.6-14.02,3.78-25.38,6.71-28.2-2.08-.31-3.73-1.22-5.02-2.75-3.17-3.77-4.08-11.18-2.78-22.67,.65-5.71,4.97-12.15,8.19-16.59-10.09,6.45-16.82,16.88-17.73,27.68l-.02,.27-.26,.1c-6.36,2.43-12.13,7.53-15.05,13.31-5.06,10-5.14,23.51-.19,33.63l.09,.19-.1,.19c-2.52,5.1-2.02,10.54,1.39,15.33,1.5,2.1,4.08,3.99,7.26,5.32l.22,.09,.04,.24c.79,4.6,2.75,8.83,5.82,12.58,8.35,10.22,20.56,12.03,31.11,4.61l.31-.22Z" fill="#002346"></path>
  </g>
  <g>
    <path d="M689.02,295.51c-1.47-8.58-7.06-17.18-13.69-20.92-2.6-1.47-5.47-2.33-8.41-2.69-2.75-16.42-15.52-29.83-34.47-28.18-6.89,.6-12.8,2.56-17.74,5.54-13.67,5.88-24.44,20.06-24.1,36.09-9.18,2.04-16.84,9.45-19.16,19.34-2.34,9.98-.05,24.75,7.92,32.43-3.21,4.62-4.15,11.02-2.19,16.78,1.96,5.75,8.92,11.1,15.05,10.85,.77,15.03,15.05,29.69,30.21,31.83,20.59,2.9,37.89-10.55,43.31-28.82,5.18,.24,10.84-1.79,14.4-4.98,4.54-4.09,5.13-9.84,3.39-15.12,14.38-4.73,27.8-15.9,29.47-31.05,1.7-15.4-11.28-21.89-24-21.1Z" fill="#7cd295"></path>
    <path d="M627.87,397.41c-1.81,0-3.64-.13-5.48-.39-15.38-2.17-29.55-16.97-30.57-31.82-6.05,0-13-5.12-15.06-11.16-1.92-5.65-1.14-12.07,2.04-16.86-7.83-7.83-10.12-22.65-7.78-32.59,2.28-9.7,9.77-17.35,19.14-19.58-.15-15.06,9.83-29.89,24.38-36.15,5.13-3.1,11.16-4.99,17.87-5.57,20.29-1.77,32.26,13.33,34.89,28.22,3.01,.41,5.79,1.32,8.25,2.7,6.6,3.72,12.25,12.24,13.84,20.84,7.95-.4,15.24,2.05,19.56,6.58,3.62,3.79,5.18,8.99,4.51,15.03-1.81,16.38-16.85,27.04-29.36,31.28,1.81,5.93,.49,11.44-3.65,15.16-3.63,3.26-9.22,5.25-14.37,5.11-5.37,17.61-20.9,29.19-38.22,29.19Zm-35.22-33.1l.02,.43c.75,14.6,14.69,29.28,29.84,31.41,19.12,2.7,37.13-9.29,42.83-28.51l.1-.33,.34,.02c5.03,.23,10.54-1.68,14.08-4.87,3.97-3.57,5.16-8.91,3.27-14.65l-.14-.42,.42-.14c12.34-4.06,27.39-14.53,29.17-30.68,.65-5.85-.79-10.67-4.27-14.33-4.22-4.43-11.43-6.78-19.26-6.29l-.39,.02-.07-.39c-1.46-8.48-7-16.96-13.48-20.61-2.45-1.38-5.23-2.27-8.25-2.64l-.33-.04-.05-.32c-2.45-14.61-14.12-29.54-34-27.81-6.58,.58-12.48,2.42-17.55,5.48-14.4,6.2-24.2,20.87-23.89,35.71v.36s-.34,.08-.34,.08c-9.21,2.05-16.6,9.51-18.83,19.01-2.3,9.82-.02,24.48,7.8,32.02l.27,.26-.21,.31c-3.19,4.59-4.01,10.87-2.13,16.38,1.92,5.62,8.63,10.56,14.25,10.56,.12,0,.25,0,.37,0l.43-.02Z" fill="#002346"></path>
  </g>
  <g>
    <path d="M662.59,350.47c-18.32,26.35-38.73-.7-38.73-.7-26.05,4.8-29.83-16.7-29.83-16.7-17.15-.57-21.87-15.5-23.1-25.49-1.34,9.77,1.2,22.57,8.44,29.55-3.21,4.62-4.15,11.02-2.19,16.78,1.96,5.75,8.92,11.1,15.05,10.85,.77,15.03,15.05,29.69,30.21,31.83,20.59,2.9,37.89-10.55,43.31-28.82,5.18,.24,10.84-1.79,14.4-4.98,3.71-3.34,4.75-7.79,4.07-12.19-8.18,10.15-21.63-.12-21.63-.12Z" fill="#76ce8d"></path>
    <path d="M627.87,397.41c-1.81,0-3.64-.13-5.48-.39-15.38-2.17-29.55-16.97-30.57-31.82-6.05,0-13-5.12-15.06-11.16-1.92-5.65-1.14-12.07,2.04-16.86-7.48-7.47-9.56-20.56-8.3-29.67l.46-3.34,.41,3.34c1.38,11.16,6.43,24.57,22.68,25.11h.36s.06,.36,.06,.36c.01,.08,1.53,8.22,8.68,13.19,5.26,3.65,12.21,4.72,20.64,3.16l.27-.05,.16,.22c.09,.12,9.24,12.06,20.5,12.06,.1,0,.21,0,.31,0,6.27-.12,12.06-3.94,17.21-11.34l.26-.38,.37,.28c.54,.41,13.21,9.89,21.02,.19l.62-.77,.15,.98c.77,4.98-.73,9.44-4.21,12.58-3.63,3.26-9.22,5.25-14.37,5.11-5.37,17.61-20.9,29.19-38.22,29.19Zm-35.22-33.1l.02,.43c.75,14.6,14.69,29.28,29.84,31.41,19.12,2.7,37.13-9.29,42.83-28.51l.1-.33,.34,.02c5.03,.23,10.54-1.68,14.08-4.87,3.78-3.4,4.36-7.61,4.05-10.83-7.6,8.22-19.02,.98-21.22-.54-5.25,7.41-11.19,11.23-17.66,11.35-.11,0-.22,0-.33,0-10.98,0-19.69-10.49-21.03-12.19-8.56,1.53-15.64,.4-21.05-3.36-6.68-4.64-8.6-11.73-8.96-13.4-15.41-.69-20.76-13.01-22.61-22.32-.33,8.61,2.07,19.33,8.61,25.64l.27,.26-.21,.31c-3.19,4.59-4.01,10.87-2.13,16.38,1.92,5.62,8.63,10.56,14.25,10.56,.12,0,.25,0,.37,0l.43-.02Z" fill="#002346"></path>
  </g>
  <g>
    <path d="M757.13,386.88c5.1,12.36,9.84,25.66,13.33,39.33-.08,.29-.15,.58-.23,.87-5.22,19.82-12.21,38.91-20.8,57.11-.18,.4-.37,.8-.57,1.19,.81-9.33,.94-18.66,.48-27.77-1.5-29.76-14.7-59.11-37.89-75.94-22.69-10.69-49.18-10.74-70.2-25.81-20.59-14.75-33.08-37.04-36.15-61.98-.05-.39,.6-.47,.67-.09,4.34,24.65,19.89,46.1,40.88,58.96-1.33-2.25-2.26-4.89-2.62-8.05-.74-6.47,1.17-13.07,2.44-19.34,2.51-12.35,3-23.78,.45-36.17-.07-.33,.39-.46,.5-.14,2.99,8.47,4.89,17.29,4.75,26.31-.15,8.81-3.46,17.56-2.77,26.34,1.03,13.21,12.49,15.84,23.05,18.64,9.68,2.57,19.39,5.07,28.87,8.33,17.02,5.86,36,16.24,48.11,31.07-.71-3.48-1.43-6.95-2.21-10.42-9.11-24.13-20.08-51.19-8.21-76.17,.21-.44,1.01-.24,.95,.25-1.67,12.73-.54,24.61,2.02,36.16,.42-4.25,1.44-8.43,3.29-12.45,6.22-13.56,23.04-20.72,24.97-36.18,.07-.51,.8-.54,.82,0,.47,12.78-9.32,21.12-16.07,30.82-12.08,17.38-5.17,37.43,2.14,55.13Z" fill="#002346"></path>
    <path d="M755.35,332c1.55-2.23,3.29-4.42,4.98-6.55,5.67-7.15,11.54-14.54,11.17-24.53-.02-.47-.34-.8-.79-.82-.46-.03-.85,.31-.9,.78-1.1,8.77-6.98,14.73-13.2,21.04-4.47,4.52-9.08,9.2-11.74,15-1.42,3.1-2.43,6.46-3,10.02-2.39-11.86-2.87-22.83-1.48-33.48,.06-.43-.21-.82-.66-.95-.46-.14-.93,.05-1.11,.45-11.57,24.33-1.54,50.8,7.3,74.15l.88,2.31c.57,2.57,1.17,5.37,1.85,8.7-14.4-16.78-35.63-25.89-47.19-29.87-8.71-3-17.75-5.39-26.49-7.7l-3.35-.88c-10.23-2.7-20.8-5.49-21.79-18-.38-4.84,.5-9.79,1.34-14.57,.67-3.83,1.37-7.8,1.44-11.73,.13-8.32-1.43-16.98-4.77-26.47-.13-.35-.49-.55-.86-.45-.36,.1-.57,.46-.49,.83,2.38,11.6,2.25,22.7-.45,35.99-.22,1.11-.47,2.23-.71,3.35-1.16,5.28-2.35,10.74-1.74,16.13,.28,2.47,.9,4.7,1.89,6.76-20.86-13.31-35.14-34.29-39.28-57.8-.07-.4-.44-.66-.88-.6-.43,.07-.71,.42-.66,.82,3.16,25.64,16.07,47.76,36.33,62.29,12.38,8.87,26.85,12.62,40.84,16.24,9.86,2.55,20.07,5.19,29.36,9.57,22.03,15.98,36.13,44.24,37.72,75.6,.5,9.86,.31,19.5-.56,28.82,.18-.35,.35-.71,.51-1.07,.2-.39,.39-.79,.57-1.19,.69-8.63,.81-17.52,.35-26.6-1.59-31.63-15.83-60.14-38.14-76.31-9.44-4.45-19.69-7.11-29.59-9.67-13.91-3.6-28.3-7.33-40.54-16.1-19.12-13.71-31.63-34.24-35.47-58.12,5.05,22.84,19.61,43.01,40.38,55.74l1.5,.92-.89-1.52c-1.39-2.35-2.23-4.93-2.57-7.88-.59-5.25,.59-10.63,1.72-15.84,.25-1.13,.5-2.25,.72-3.36,2.53-12.46,2.83-23.01,.93-33.84,2.74,8.45,4.02,16.24,3.9,23.75-.07,3.86-.76,7.79-1.43,11.59-.85,4.84-1.73,9.84-1.34,14.79,1.03,13.13,11.91,16,22.43,18.78l3.36,.88c8.72,2.31,17.75,4.7,26.42,7.68,11.78,4.06,33.66,13.46,47.92,30.94l1.13,1.38-.36-1.75c-.84-4.1-1.54-7.41-2.22-10.48l-.9-2.37c-8.78-23.19-18.73-49.47-7.35-73.45,.01,0,.03-.01,.05-.01,.03,0,.07,.01,.08,.01-1.5,11.49-.84,23.37,2.03,36.3l.6,2.68,.27-2.73c.44-4.43,1.53-8.57,3.25-12.31,2.59-5.66,7.15-10.28,11.56-14.75,6.06-6.14,12.32-12.49,13.39-21.59,.36,9.67-5.41,16.93-10.98,23.96-1.69,2.13-3.44,4.34-5.01,6.59-12.07,17.36-5.58,36.96,2.09,55.55,5.87,14.23,10.37,27.52,13.51,40.03,.08-.29,.15-.58,.23-.87,.08-.3,.16-.6,.23-.9-3.13-12.09-7.51-24.92-13.16-38.6-7.58-18.36-13.99-37.71-2.18-54.71Z" fill="#002346"></path>
  </g>
  <g>
    <g>
      <path d="M596.26,555.56s-56.13-.43-57.42-70.8c-.35-19.19,3.66-38.21,11.35-55.8,11.62-26.59,33.94-74.65,48.2-86.18,2.52-2.04,6.17-1.8,8.42,.53,11.96,12.44,54.78,62.66,58.82,148.19,0,0-2.38,74.81-69.37,64.05Z" fill="#fbe493"></path>
      <path d="M608.87,557.12c-4.04,0-8.26-.35-12.66-1.06-.85-.02-14.67-.44-28.45-9.08-13.05-8.19-28.76-25.63-29.42-62.2-.34-18.8,3.59-38.17,11.39-56.01,11.93-27.3,34.08-74.83,48.35-86.36,2.74-2.21,6.65-1.97,9.09,.57,12.81,13.32,54.94,63.4,58.96,148.52-.01,.4-1.39,35.9-23.84,54.42-9.04,7.46-20.24,11.21-33.42,11.21Zm-6.56-215.23c-1.27,0-2.54,.42-3.61,1.29-14.11,11.4-36.16,58.76-48.06,85.99-7.74,17.71-11.65,36.93-11.3,55.59,.66,36.1,16.09,53.29,28.92,61.35,13.91,8.74,27.86,8.96,28,8.96h.08c18.48,2.98,33.73-.37,45.31-9.92,22.1-18.23,23.47-53.29,23.48-53.64-4-84.73-45.93-134.58-58.68-147.83-1.13-1.17-2.63-1.77-4.13-1.77Z" fill="#002346"></path>
    </g>
    <g>
      <polygon points="602.54 376.7 600.19 437.83 579.03 418.24 598.62 448.02 598.62 476.23 565.71 443.32 597.84 484.07 597.84 510.71 561.4 481.33 597.45 521.29 595.1 638.06 609.99 630.06 608.42 522.08 644.47 481.33 607.64 511.11 607.64 485.24 641.34 443.71 607.64 474.27 607.64 446.06 626.45 419.41 606.85 438.22 602.54 376.7" fill="#002346"></polygon>
      <path d="M595.1,638.56c-.09,0-.18-.02-.26-.07-.15-.09-.24-.26-.24-.44l2.35-116.57-35.92-39.82c-.17-.19-.17-.49,0-.68,.18-.19,.47-.21,.68-.05l35.63,28.73v-25.43l-32.02-40.62c-.16-.21-.14-.51,.06-.68,.2-.17,.5-.17,.69,.02l32.06,32.06v-26.86l-19.51-29.66c-.14-.21-.1-.49,.09-.66,.19-.16,.48-.16,.66,.01l20.36,18.85,2.31-60.04c.01-.26,.23-.48,.49-.48,.27,.04,.49,.2,.51,.46l4.24,60.45,18.82-18.07c.19-.18,.48-.19,.67-.02,.2,.17,.23,.46,.08,.67l-18.72,26.52v26.92l32.86-29.8c.19-.18,.49-.17,.68,0,.19,.18,.21,.48,.04,.68l-33.59,41.4v24.64l36.02-29.12c.2-.16,.5-.15,.68,.04,.18,.19,.19,.48,.01,.68l-35.92,40.61,1.56,107.79c0,.19-.1,.36-.26,.45l-14.89,8c-.07,.04-.16,.06-.24,.06Zm-29.1-152.89l31.83,35.28c.09,.09,.13,.22,.13,.34l-2.33,115.92,13.87-7.45-1.56-107.68c0-.12,.04-.25,.13-.34l32.08-36.27-32.18,26.02c-.15,.12-.36,.15-.53,.06-.17-.08-.28-.26-.28-.45v-25.86c0-.11,.04-.23,.11-.32l29.58-36.45-28.85,26.17c-.15,.13-.36,.17-.54,.09-.18-.08-.3-.26-.3-.46v-28.21c0-.1,.03-.2,.09-.29l15.8-22.38-15.83,15.2c-.14,.14-.35,.18-.53,.11-.18-.07-.31-.24-.32-.43l-3.67-52.33-2,51.92c0,.19-.13,.37-.31,.44-.18,.07-.39,.04-.53-.09l-18.14-16.8,17.33,26.34c.05,.08,.08,.18,.08,.27v28.21c0,.2-.12,.38-.31,.46-.19,.08-.4,.03-.54-.11l-26.92-26.92,26.88,34.09c.07,.09,.11,.2,.11,.31v26.65c0,.19-.11,.37-.28,.45-.17,.08-.38,.06-.53-.06l-31.53-25.43Z" fill="#002346"></path>
    </g>
  </g>
  <g>
    <path d="M651.65,606.11c-56.72,44.08-127.98,70.33-205.37,70.33s-148.01-26.01-204.6-69.72c.48-.09,.94-.19,1.43-.3l1.52-.34c1.12-.26,2.25-.52,3.37-.81,1.13-.29,2.67-.67,4.04-1.05,2.06-.55,4.18-1.12,6.31-1.81l3.02-.96,1.78-.59h.13c2.25-.79,4.56-1.63,6.83-2.55,.61-.23,1.21-.47,1.8-.73,.6-.26,1.46-.62,2.18-.93,0,0,35.2-16.24,84.98-19.23,11.8-.68,23.64,.58,35.03,3.75,15.21,4.18,37.84,11.25,54.18,19.95,0,0,47.33-24.36,103.37-21.86l1.89,.09c4.88,.27,9.82,.75,14.78,1.47l1.85,.28c1.49,.22,2.99,.48,4.51,.75,1.2,.24,2.41,.46,3.64,.72,.97,.21,1.95,.43,2.93,.66,.64,.13,1.27,.29,1.91,.45l2.13,.52,1.57,.42c.9,.24,1.79,.5,2.68,.75l2.13,.63,2.12,.68,1.77,.59c.83,.27,1.68,.56,2.51,.86,.83,.31,1.41,.5,2.1,.77,.7,.27,1.42,.53,2.12,.81l.35,.13,1.78,.72,1.45,.61c1.64,.69,3.26,1.42,4.89,2.18,.23,0,19.3,9.07,40.89,12.76Z" fill="#fff"></path>
    <path d="M446.28,676.94c-37.75,0-74.8-6.22-110.13-18.5-34.15-11.86-66.04-29.13-94.77-51.33l-.88-.68,1.1-.21c.47-.09,.93-.19,1.41-.3l1.74-.39c1.04-.24,2.09-.48,3.13-.75l.89-.23c.98-.25,2.11-.54,3.14-.82,1.93-.52,4.11-1.1,6.29-1.8l5-1.57c1.86-.65,4.29-1.53,6.73-2.51,.61-.23,1.2-.47,1.79-.72l2.18-.93c.34-.16,35.84-16.31,85.15-19.27,11.91-.69,23.75,.58,35.19,3.77,15.71,4.32,37.8,11.26,54.05,19.87,3.7-1.84,49.87-24.17,103.39-21.8l1.89,.09c5,.28,9.99,.77,14.83,1.47l1.85,.28c1.52,.22,3.07,.49,4.52,.75l1.34,.26c.77,.15,1.54,.3,2.32,.46,.98,.21,1.96,.43,2.94,.66,.59,.12,1.18,.27,1.78,.42l3.84,.98c.63,.17,1.25,.35,1.88,.52l2.94,.86,3.91,1.28c.83,.27,1.69,.56,2.52,.86,.36,.14,.67,.25,.96,.35,.39,.14,.75,.27,1.15,.42l.81,.31c.44,.17,.88,.33,1.32,.5l.34,.13,3.25,1.34c1.49,.63,3.08,1.34,4.87,2.17,.12,.04,.34,.14,.85,.36,17.31,7.54,31.28,10.89,39.95,12.38l1.12,.19-.9,.7c-28.8,22.38-60.79,39.8-95.08,51.77-35.47,12.38-72.68,18.66-110.6,18.66Zm-203.43-69.95c58.79,45.11,129.11,68.95,203.43,68.95s145.23-24.04,204.17-69.53c-12.22-2.2-25.7-6.42-39.06-12.25-.36-.16-.6-.26-.71-.31l-.13-.05c-1.79-.83-3.38-1.55-4.87-2.17l-3.56-1.45c-.44-.17-.87-.34-1.31-.5l-.82-.31c-.39-.15-.74-.28-1.13-.42-.3-.11-.61-.22-.97-.35-.82-.3-1.66-.58-2.49-.85l-3.89-1.27-2.92-.85c-.62-.18-1.24-.35-1.86-.52l-3.83-.97c-.59-.15-1.16-.29-1.75-.41-.99-.23-1.97-.45-2.94-.66-.77-.16-1.54-.31-2.3-.46l-1.33-.26c-1.43-.25-2.97-.52-4.49-.75l-1.85-.28c-4.81-.7-9.76-1.19-14.73-1.46l-1.89-.09c-55.27-2.46-102.65,21.56-103.12,21.8l-.23,.12-.23-.12c-16.19-8.62-38.34-15.58-54.08-19.91-11.34-3.16-23.07-4.41-34.87-3.73-49.1,2.95-84.45,19.02-84.8,19.19l-2.19,.93c-.6,.26-1.2,.51-1.82,.74-2.48,1.01-4.96,1.89-6.84,2.55l-1.92,.59-3.03,.96c-2.2,.71-4.4,1.3-6.33,1.82-1.04,.29-2.18,.58-3.16,.83l-.89,.23c-1.05,.27-2.11,.52-3.16,.76l-1.75,.39c-.12,.03-.25,.05-.37,.08Z" fill="#002346"></path>
  </g>
</svg>
